<svg width="1440" height="1024" viewBox="0 0 1440 1024" fill="none" xmlns="http://www.w3.org/2000/svg">
  <rect width="2500" height="2500" fill="white" />
  <g opacity="0.18" clip-path="url(#clip0_52_23570)">
    <path
      d="M612.406 892.865H637.612C637.612 850.584 672.008 816.171 714.306 816.171V790.965C658.126 790.965 612.423 836.667 612.423 892.847L612.406 892.865Z"
      fill="#27A0F7" />
    <path
      d="M637.594 714.288H612.388C612.388 756.569 577.992 790.982 535.694 790.982V816.188C591.874 816.188 637.576 770.486 637.576 714.306L637.594 714.288Z"
      fill="#BCDFFF" />
    <path
      d="M459.035 714.288H433.829C433.829 756.569 399.433 790.982 357.135 790.982V816.188C413.315 816.188 459.018 770.486 459.018 714.306L459.035 714.288Z"
      fill="#27A0F7" />
    <path
      d="M433.829 892.865H459.035C459.035 850.584 493.431 816.171 535.729 816.171V790.965C479.549 790.965 433.847 836.667 433.847 892.847L433.829 892.865Z"
      fill="#BCDFFF" />
    <path
      d="M357.153 816.171V790.965C314.872 790.965 280.459 756.569 280.459 714.271H255.253C255.253 770.451 300.955 816.153 357.135 816.153L357.153 816.171Z"
      fill="#27A0F7" />
    <path
      d="M178.577 790.982V816.188C220.857 816.188 255.271 850.584 255.271 892.882H280.477C280.477 836.702 234.774 791 178.594 791L178.577 790.982Z"
      fill="#BCDFFF" />
    <path
      d="M101.882 714.288H76.6764C76.6764 756.569 42.2804 790.982 -0.0177002 790.982V816.188C56.1623 816.188 101.865 770.486 101.865 714.306L101.882 714.288Z"
      fill="#27A0F7" />
    <path
      d="M76.694 892.865H101.9C101.9 850.584 136.296 816.171 178.594 816.171V790.965C122.414 790.965 76.7116 836.667 76.7116 892.847L76.694 892.865Z"
      fill="#BCDFFF" />
    <path
      d="M1071.42 816.171V790.965C1029.14 790.965 994.73 756.569 994.73 714.271H969.524C969.524 770.451 1015.23 816.153 1071.41 816.153L1071.42 816.171Z"
      fill="#27A0F7" />
    <path
      d="M892.865 790.982V816.188C935.145 816.188 969.559 850.584 969.559 892.882H994.765C994.765 836.702 949.062 791 892.882 791L892.865 790.982Z"
      fill="#BCDFFF" />
    <path
      d="M1250 816.171V790.965C1207.72 790.965 1173.31 756.569 1173.31 714.271H1148.1C1148.1 770.451 1193.8 816.153 1249.98 816.153L1250 816.171Z"
      fill="#27A0F7" />
    <path
      d="M1071.42 790.982V816.188C1113.7 816.188 1148.12 850.584 1148.12 892.882H1173.32C1173.32 836.702 1127.62 791 1071.44 791L1071.42 790.982Z"
      fill="#BCDFFF" />
    <path
      d="M892.865 816.171V790.965C850.584 790.965 816.171 756.569 816.171 714.271H790.965C790.965 770.451 836.667 816.153 892.847 816.153L892.865 816.171Z"
      fill="#27A0F7" />
    <path
      d="M714.288 790.982V816.188C756.569 816.188 790.982 850.584 790.982 892.882H816.188C816.188 836.702 770.486 791 714.306 791L714.288 790.982Z"
      fill="#BCDFFF" />
    <path
      d="M612.406 1071.42H637.612C637.612 1029.14 672.008 994.73 714.306 994.73V969.524C658.126 969.524 612.423 1015.23 612.423 1071.41L612.406 1071.42Z"
      fill="#27A0F7" />
    <path
      d="M637.594 892.865H612.388C612.388 935.145 577.992 969.559 535.694 969.559V994.765C591.874 994.765 637.576 949.062 637.576 892.882L637.594 892.865Z"
      fill="#BCDFFF" />
    <path
      d="M790.982 1071.42H816.188C816.188 1029.14 850.584 994.73 892.882 994.73V969.524C836.702 969.524 791 1015.23 791 1071.41L790.982 1071.42Z"
      fill="#27A0F7" />
    <path
      d="M816.171 892.865H790.965C790.965 935.145 756.569 969.559 714.271 969.559V994.765C770.451 994.765 816.153 949.062 816.153 892.882L816.171 892.865Z"
      fill="#BCDFFF" />
    <path
      d="M892.865 969.541V994.747C935.145 994.747 969.559 1029.14 969.559 1071.44H994.765C994.765 1015.26 949.062 969.559 892.882 969.559L892.865 969.541Z"
      fill="#27A0F7" />
    <path
      d="M1071.42 994.747V969.541C1029.14 969.541 994.73 935.145 994.73 892.847H969.524C969.524 949.027 1015.23 994.729 1071.41 994.729L1071.42 994.747Z"
      fill="#BCDFFF" />
    <path
      d="M1250 994.747V969.541C1207.72 969.541 1173.31 935.145 1173.31 892.847H1148.1C1148.1 949.027 1193.8 994.729 1249.98 994.729L1250 994.747Z"
      fill="#27A0F7" />
    <path
      d="M1071.42 969.541V994.747C1113.7 994.747 1148.12 1029.14 1148.12 1071.44H1173.32C1173.32 1015.26 1127.62 969.559 1071.44 969.559L1071.42 969.541Z"
      fill="#BCDFFF" />
    <path
      d="M178.577 969.541V994.747C220.857 994.747 255.271 1029.14 255.271 1071.44H280.477C280.477 1015.26 234.774 969.559 178.594 969.559L178.577 969.541Z"
      fill="#27A0F7" />
    <path
      d="M357.153 994.747V969.541C314.872 969.541 280.459 935.145 280.459 892.847H255.253C255.253 949.027 300.955 994.729 357.135 994.729L357.153 994.747Z"
      fill="#BCDFFF" />
    <path
      d="M0 969.541V994.747C42.2805 994.747 76.6941 1029.14 76.6941 1071.44H101.9C101.9 1015.26 56.1976 969.559 0.0176389 969.559L0 969.541Z"
      fill="#27A0F7" />
    <path
      d="M178.576 994.747V969.541C136.296 969.541 101.882 935.145 101.882 892.847H76.6764C76.6764 949.027 122.379 994.729 178.559 994.729L178.576 994.747Z"
      fill="#BCDFFF" />
    <path
      d="M433.829 1071.42H459.035C459.035 1029.14 493.431 994.73 535.729 994.73V969.524C479.549 969.524 433.847 1015.23 433.847 1071.41L433.829 1071.42Z"
      fill="#27A0F7" />
    <path
      d="M459.035 892.865H433.829C433.829 935.145 399.433 969.559 357.135 969.559V994.765C413.315 994.765 459.018 949.062 459.018 892.882L459.035 892.865Z"
      fill="#BCDFFF" />
    <path
      d="M1428.58 790.982V816.188C1470.86 816.188 1505.27 850.584 1505.27 892.882H1530.48C1530.48 836.702 1484.77 791 1428.59 791L1428.58 790.982Z"
      fill="#BCDFFF" />
    <path
      d="M1351.88 714.288H1326.68C1326.68 756.569 1292.28 790.982 1249.98 790.982V816.188C1306.16 816.188 1351.86 770.486 1351.86 714.306L1351.88 714.288Z"
      fill="#27A0F7" />
    <path
      d="M1326.69 892.865H1351.9C1351.9 850.584 1386.3 816.171 1428.59 816.171V790.965C1372.41 790.965 1326.71 836.667 1326.71 892.847L1326.69 892.865Z"
      fill="#BCDFFF" />
    <path
      d="M1428.58 969.541V994.747C1470.86 994.747 1505.27 1029.14 1505.27 1071.44H1530.48C1530.48 1015.26 1484.77 969.559 1428.59 969.559L1428.58 969.541Z"
      fill="#27A0F7" />
    <path
      d="M1250 969.541V994.747C1292.28 994.747 1326.69 1029.14 1326.69 1071.44H1351.9C1351.9 1015.26 1306.2 969.559 1250.02 969.559L1250 969.541Z"
      fill="#27A0F7" />
    <path
      d="M1428.58 994.747V969.541C1386.3 969.541 1351.88 935.145 1351.88 892.847H1326.68C1326.68 949.027 1372.38 994.729 1428.56 994.729L1428.58 994.747Z"
      fill="#BCDFFF" />
    <path
      d="M637.594 357.135H612.388C612.388 399.416 577.992 433.829 535.694 433.829V459.035C591.874 459.035 637.576 413.333 637.576 357.153L637.594 357.135Z"
      fill="#27A0F7" />
    <path
      d="M612.406 535.712H637.612C637.612 493.431 672.008 459.018 714.306 459.018V433.812C658.126 433.812 612.423 479.514 612.423 535.694L612.406 535.712Z"
      fill="#BCDFFF" />
    <path
      d="M790.982 535.712H816.188C816.188 493.431 850.584 459.018 892.882 459.018V433.812C836.702 433.812 791 479.514 791 535.694L790.982 535.712Z"
      fill="#27A0F7" />
    <path
      d="M816.171 357.135H790.965C790.965 399.416 756.569 433.829 714.271 433.829V459.035C770.451 459.035 816.153 413.333 816.153 357.153L816.171 357.135Z"
      fill="#BCDFFF" />
    <path
      d="M892.865 433.829V459.035C935.145 459.035 969.559 493.431 969.559 535.729H994.765C994.765 479.549 949.062 433.847 892.882 433.847L892.865 433.829Z"
      fill="#27A0F7" />
    <path
      d="M1071.44 459.035V433.829C1029.16 433.829 994.747 399.433 994.747 357.135H969.541C969.541 413.315 1015.24 459.018 1071.42 459.018L1071.44 459.035Z"
      fill="#BCDFFF" />
    <path
      d="M1148.12 535.712H1173.32C1173.32 493.431 1207.72 459.018 1250.02 459.018V433.812C1193.84 433.812 1148.13 479.514 1148.13 535.694L1148.12 535.712Z"
      fill="#27A0F7" />
    <path
      d="M1173.32 357.135H1148.12C1148.12 399.416 1113.72 433.829 1071.42 433.829V459.035C1127.6 459.035 1173.31 413.333 1173.31 357.153L1173.32 357.135Z"
      fill="#BCDFFF" />
    <path
      d="M178.577 433.829V459.035C220.857 459.035 255.271 493.431 255.271 535.729H280.477C280.477 479.549 234.774 433.847 178.594 433.847L178.577 433.829Z"
      fill="#27A0F7" />
    <path
      d="M357.153 459.035V433.829C314.872 433.829 280.459 399.433 280.459 357.135H255.253C255.253 413.315 300.955 459.018 357.135 459.018L357.153 459.035Z"
      fill="#BCDFFF" />
    <path
      d="M0 433.829V459.035C42.2805 459.035 76.6941 493.431 76.6941 535.729H101.9C101.9 479.549 56.1976 433.847 0.0176389 433.847L0 433.829Z"
      fill="#27A0F7" />
    <path
      d="M178.576 459.035V433.829C136.296 433.829 101.882 399.433 101.882 357.135H76.6764C76.6764 413.315 122.379 459.018 178.559 459.018L178.576 459.035Z"
      fill="#BCDFFF" />
    <path
      d="M433.829 535.712H459.035C459.035 493.431 493.431 459.018 535.729 459.018V433.812C479.549 433.812 433.847 479.514 433.847 535.694L433.829 535.712Z"
      fill="#27A0F7" />
    <path
      d="M459.035 357.135H433.829C433.829 399.416 399.433 433.829 357.135 433.829V459.035C413.315 459.035 459.018 413.333 459.018 357.153L459.035 357.135Z"
      fill="#BCDFFF" />
    <path
      d="M535.712 612.406V637.612C577.992 637.612 612.406 672.008 612.406 714.306H637.612C637.612 658.126 591.909 612.423 535.729 612.423L535.712 612.406Z"
      fill="#27A0F7" />
    <path
      d="M714.288 637.594V612.388C672.008 612.388 637.594 577.992 637.594 535.694H612.388C612.388 591.874 658.091 637.576 714.271 637.576L714.288 637.594Z"
      fill="#BCDFFF" />
    <path
      d="M459.035 535.712H433.829C433.829 577.992 399.433 612.406 357.135 612.406V637.612C413.315 637.612 459.018 591.909 459.018 535.729L459.035 535.712Z"
      fill="#27A0F7" />
    <path
      d="M433.829 714.288H459.035C459.035 672.008 493.431 637.594 535.729 637.594V612.388C479.549 612.388 433.847 658.091 433.847 714.271L433.829 714.288Z"
      fill="#BCDFFF" />
    <path
      d="M255.253 714.288H280.459C280.459 672.008 314.855 637.594 357.153 637.594V612.388C300.973 612.388 255.27 658.091 255.27 714.271L255.253 714.288Z"
      fill="#27A0F7" />
    <path
      d="M280.459 535.712H255.253C255.253 577.992 220.857 612.406 178.559 612.406V637.612C234.739 637.612 280.441 591.909 280.441 535.729L280.459 535.712Z"
      fill="#BCDFFF" />
    <path
      d="M101.882 535.712H76.6764C76.6764 577.992 42.2804 612.406 -0.0177002 612.406V637.612C56.1623 637.612 101.865 591.909 101.865 535.729L101.882 535.712Z"
      fill="#27A0F7" />
    <path
      d="M76.694 714.288H101.9C101.9 672.008 136.296 637.594 178.594 637.594V612.388C122.414 612.388 76.7116 658.091 76.7116 714.271L76.694 714.288Z"
      fill="#BCDFFF" />
    <path
      d="M1071.44 637.594V612.388C1029.16 612.388 994.747 577.992 994.747 535.694H969.541C969.541 591.874 1015.24 637.576 1071.42 637.576L1071.44 637.594Z"
      fill="#27A0F7" />
    <path
      d="M892.865 612.406V637.612C935.145 637.612 969.559 672.008 969.559 714.306H994.765C994.765 658.126 949.062 612.423 892.882 612.423L892.865 612.406Z"
      fill="#BCDFFF" />
    <path
      d="M1148.12 714.288H1173.32C1173.32 672.008 1207.72 637.594 1250.02 637.594V612.388C1193.84 612.388 1148.13 658.091 1148.13 714.271L1148.12 714.288Z"
      fill="#27A0F7" />
    <path
      d="M1173.32 535.712H1148.12C1148.12 577.992 1113.72 612.406 1071.42 612.406V637.612C1127.6 637.612 1173.31 591.909 1173.31 535.729L1173.32 535.712Z"
      fill="#BCDFFF" />
    <path
      d="M816.171 535.712H790.965C790.965 577.992 756.569 612.406 714.271 612.406V637.612C770.451 637.612 816.153 591.909 816.153 535.729L816.171 535.712Z"
      fill="#27A0F7" />
    <path
      d="M790.982 714.288H816.188C816.188 672.008 850.584 637.594 892.882 637.594V612.388C836.702 612.388 791 658.091 791 714.271L790.982 714.288Z"
      fill="#BCDFFF" />
    <path
      d="M612.406 178.576H637.612C637.612 136.296 672.008 101.882 714.306 101.882V76.6764C658.126 76.6764 612.423 122.379 612.423 178.559L612.406 178.576Z"
      fill="#27A0F7" />
    <path
      d="M637.594 0H612.388C612.388 42.2805 577.992 76.6941 535.694 76.6941V101.9C591.874 101.9 637.576 56.1976 637.576 0.0176389L637.594 0Z"
      fill="#BCDFFF" />
    <path
      d="M357.153 76.694V101.9C399.433 101.9 433.847 136.296 433.847 178.594H459.053C459.053 122.414 413.351 76.7116 357.171 76.7116L357.153 76.694Z"
      fill="#27A0F7" />
    <path
      d="M535.712 101.882V76.6764C493.431 76.6941 459.035 42.2805 459.035 0H433.829C433.829 56.18 479.532 101.882 535.712 101.882Z"
      fill="#BCDFFF" />
    <path
      d="M357.153 101.882V76.6764C314.855 76.6941 280.459 42.2805 280.459 0H255.253C255.253 56.18 300.955 101.882 357.135 101.882H357.153Z"
      fill="#27A0F7" />
    <path
      d="M178.577 76.694V101.9C220.857 101.9 255.271 136.296 255.271 178.594H280.477C280.477 122.414 234.774 76.7116 178.594 76.7116L178.577 76.694Z"
      fill="#BCDFFF" />
    <path
      d="M101.882 0H76.6764C76.6941 42.2805 42.2805 76.6941 0 76.6941V101.9C56.18 101.9 101.882 56.1976 101.882 0.0176389V0Z"
      fill="#27A0F7" />
    <path
      d="M76.694 178.576H101.9C101.9 136.296 136.296 101.882 178.594 101.882V76.6764C122.414 76.6764 76.7116 122.379 76.7116 178.559L76.694 178.576Z"
      fill="#BCDFFF" />
    <path
      d="M1071.44 101.882V76.6764C1029.16 76.6764 994.747 42.2804 994.747 -0.0177002H969.541C969.541 56.1623 1015.24 101.865 1071.42 101.865L1071.44 101.882Z"
      fill="#27A0F7" />
    <path
      d="M892.865 76.694V101.9C935.145 101.9 969.559 136.296 969.559 178.594H994.765C994.765 122.414 949.062 76.7116 892.882 76.7116L892.865 76.694Z"
      fill="#BCDFFF" />
    <path
      d="M1250 101.882V76.6764C1207.72 76.6764 1173.31 42.2804 1173.31 -0.0177002H1148.1C1148.1 56.1623 1193.8 101.865 1249.98 101.865L1250 101.882Z"
      fill="#27A0F7" />
    <path
      d="M1071.42 76.694V101.9C1113.7 101.9 1148.12 136.296 1148.12 178.594H1173.32C1173.32 122.414 1127.62 76.7116 1071.44 76.7116L1071.42 76.694Z"
      fill="#BCDFFF" />
    <path
      d="M816.171 0H790.965C790.965 42.2805 756.569 76.6941 714.271 76.6941V101.9C770.468 101.882 816.171 56.18 816.171 0Z"
      fill="#27A0F7" />
    <path
      d="M790.982 178.576H816.188C816.188 136.296 850.584 101.882 892.882 101.882V76.6764C836.702 76.6764 791 122.379 791 178.559L790.982 178.576Z"
      fill="#BCDFFF" />
    <path
      d="M714.288 280.459V255.253C672.008 255.253 637.594 220.857 637.594 178.559H612.388C612.388 234.739 658.091 280.441 714.271 280.441L714.288 280.459Z"
      fill="#27A0F7" />
    <path
      d="M535.712 255.253V280.459C577.992 280.459 612.406 314.855 612.406 357.153H637.612C637.612 300.973 591.909 255.27 535.729 255.27L535.712 255.253Z"
      fill="#BCDFFF" />
    <path
      d="M790.982 357.135H816.188C816.188 314.855 850.584 280.441 892.882 280.441V255.235C836.702 255.235 791 300.938 791 357.118L790.982 357.135Z"
      fill="#27A0F7" />
    <path
      d="M816.171 178.576H790.965C790.965 220.857 756.569 255.27 714.271 255.27V280.476C770.451 280.476 816.153 234.774 816.153 178.594L816.171 178.576Z"
      fill="#BCDFFF" />
    <path
      d="M892.865 255.253V280.459C935.145 280.459 969.559 314.855 969.559 357.153H994.765C994.765 300.973 949.062 255.27 892.882 255.27L892.865 255.253Z"
      fill="#27A0F7" />
    <path
      d="M1071.44 280.459V255.253C1029.16 255.253 994.747 220.857 994.747 178.559H969.541C969.541 234.739 1015.24 280.441 1071.42 280.441L1071.44 280.459Z"
      fill="#BCDFFF" />
    <path
      d="M1250 280.459V255.253C1207.72 255.253 1173.31 220.857 1173.31 178.559H1148.1C1148.1 234.739 1193.8 280.441 1249.98 280.441L1250 280.459Z"
      fill="#27A0F7" />
    <path
      d="M1071.42 255.253V280.459C1113.7 280.459 1148.12 314.855 1148.12 357.153H1173.32C1173.32 300.973 1127.62 255.27 1071.44 255.27L1071.42 255.253Z"
      fill="#BCDFFF" />
    <path
      d="M178.577 255.253V280.459C220.857 280.459 255.271 314.855 255.271 357.153H280.477C280.477 300.973 234.774 255.27 178.594 255.27L178.577 255.253Z"
      fill="#27A0F7" />
    <path
      d="M357.153 280.459V255.253C314.872 255.253 280.459 220.857 280.459 178.559H255.253C255.253 234.739 300.955 280.441 357.135 280.441L357.153 280.459Z"
      fill="#BCDFFF" />
    <path
      d="M0 255.253V280.459C42.2805 280.459 76.6941 314.855 76.6941 357.153H101.9C101.882 300.955 56.18 255.253 0 255.253Z"
      fill="#27A0F7" />
    <path
      d="M178.576 280.459V255.253C136.296 255.253 101.882 220.857 101.882 178.559H76.6764C76.6764 234.739 122.379 280.441 178.559 280.441L178.576 280.459Z"
      fill="#BCDFFF" />
    <path
      d="M433.829 357.135H459.035C459.035 314.855 493.431 280.441 535.729 280.441V255.235C479.549 255.235 433.847 300.938 433.847 357.118L433.829 357.135Z"
      fill="#27A0F7" />
    <path
      d="M459.035 178.576H433.829C433.829 220.857 399.433 255.27 357.135 255.27V280.476C413.315 280.476 459.018 234.774 459.018 178.594L459.035 178.576Z"
      fill="#BCDFFF" />
    <path
      d="M1428.58 433.829V459.035C1470.86 459.035 1505.27 493.431 1505.27 535.729H1530.48C1530.48 479.549 1484.77 433.847 1428.59 433.847L1428.58 433.829Z"
      fill="#27A0F7" />
    <path
      d="M1250 433.829V459.035C1292.28 459.035 1326.69 493.431 1326.69 535.729H1351.9C1351.9 479.549 1306.2 433.847 1250.02 433.847L1250 433.829Z"
      fill="#27A0F7" />
    <path
      d="M1428.58 459.035V433.829C1386.3 433.829 1351.88 399.433 1351.88 357.135H1326.68C1326.68 413.315 1372.38 459.018 1428.56 459.018L1428.58 459.035Z"
      fill="#BCDFFF" />
    <path
      d="M1530.46 535.712H1505.25C1505.25 577.992 1470.86 612.406 1428.56 612.406V637.612C1484.74 637.612 1530.44 591.909 1530.44 535.729L1530.46 535.712Z"
      fill="#BCDFFF" />
    <path
      d="M1351.88 535.712H1326.68C1326.68 577.992 1292.28 612.406 1249.98 612.406V637.612C1306.16 637.612 1351.86 591.909 1351.86 535.729L1351.88 535.712Z"
      fill="#27A0F7" />
    <path
      d="M1326.69 714.288H1351.9C1351.9 672.008 1386.3 637.594 1428.59 637.594V612.388C1372.41 612.388 1326.71 658.091 1326.71 714.271L1326.69 714.288Z"
      fill="#BCDFFF" />
    <path
      d="M1428.58 76.694V101.9C1470.86 101.9 1505.27 136.296 1505.27 178.594H1530.48C1530.48 122.414 1484.77 76.7116 1428.59 76.7116L1428.58 76.694Z"
      fill="#BCDFFF" />
    <path
      d="M1351.88 0H1326.68C1326.68 42.2805 1292.28 76.6941 1249.98 76.6941V101.9C1306.16 101.9 1351.86 56.1976 1351.86 0.0176389L1351.88 0Z"
      fill="#27A0F7" />
    <path
      d="M1326.69 178.576H1351.9C1351.9 136.296 1386.3 101.882 1428.59 101.882V76.6764C1372.41 76.6764 1326.71 122.379 1326.71 178.559L1326.69 178.576Z"
      fill="#BCDFFF" />
    <path
      d="M1428.58 255.253V280.459C1470.86 280.459 1505.27 314.855 1505.27 357.153H1530.48C1530.48 300.973 1484.77 255.27 1428.59 255.27L1428.58 255.253Z"
      fill="#27A0F7" />
    <path
      d="M1250 255.253V280.459C1292.28 280.459 1326.69 314.855 1326.69 357.153H1351.9C1351.9 300.973 1306.2 255.27 1250.02 255.27L1250 255.253Z"
      fill="#27A0F7" />
    <path
      d="M1428.58 280.459V255.253C1386.3 255.253 1351.88 220.857 1351.88 178.559H1326.68C1326.68 234.739 1372.38 280.441 1428.56 280.441L1428.58 280.459Z"
      fill="#BCDFFF" />
  </g>
  <defs>
    <clipPath id="clip0_52_23570">
      <rect width="2500" height="2500" fill="white" />
    </clipPath>
  </defs>
</svg>