<svg width="1048" height="778" viewBox="0 0 1048 778" fill="none" xmlns="http://www.w3.org/2000/svg">
<path d="M102.757 132.393C89.9896 129.623 71.5696 132.168 64.6206 160.695C58.3133 186.756 53.3722 206.4 51.1607 220.188C48.9492 233.976 49.9951 245.205 51.3345 258.972C52.1605 267.467 53.6109 275.864 54.7492 284.286C55.4057 288.582 56.0383 292.879 56.6468 297.175C57.3601 300.895 57.6943 304.682 57.6443 308.477C57.0055 317.141 56.5569 326.049 58.7505 334.521C59.2634 336.572 59.9208 338.549 60.6021 340.527L65.0183 353.492C65.782 356.491 67.5972 359.096 70.1232 360.819C72.3579 361.933 74.8135 362.519 77.3082 362.534C78.1567 362.755 79.0475 362.756 79.8992 362.537C80.4759 362.25 80.9987 361.862 81.443 361.391C82.4458 360.605 83.285 359.624 83.9112 358.505C84.5374 357.386 84.9379 356.153 85.0891 354.877C85.1003 353.34 84.3924 351.704 85.1223 350.313C85.3427 349.941 85.5857 349.582 85.8498 349.24C86.2802 348.513 86.5644 347.707 86.6858 346.869C86.8073 346.031 86.7635 345.178 86.5571 344.359C86.1824 342.757 85.6387 341.202 84.9354 339.72C82.0488 332.534 80.8328 324.757 81.3819 316.993C81.3873 316.261 81.8744 315.261 82.5443 315.505C82.7006 315.59 82.8368 315.707 82.9434 315.851C83.0501 315.994 83.1247 316.16 83.1621 316.336C83.9591 318.581 84.5683 320.893 84.9832 323.245C85.1666 325.38 85.763 327.454 86.7382 329.348C87.2531 330.283 88.0848 330.994 89.0792 331.349C90.0735 331.705 91.1631 331.681 92.1462 331.282L91.3618 320.371C91.2476 318.513 91.0368 316.663 90.7304 314.83C89.6976 310.552 88.1988 306.409 86.2618 302.475C84.6052 298.545 83.5357 294.381 83.0888 290.122C82.2676 280.426 82.154 270.677 82.749 260.954C82.9833 251.826 83.3616 242.698 83.9318 233.57L102.34 169.932L102.757 132.393Z" fill="#FFA8A7"/>
<path d="M105.174 130.694C92.489 128.07 87.086 128.97 79.1547 134.658C72.3604 139.649 67.5557 146.932 65.6192 155.173C67.8056 166.953 75.9435 191.835 91.9137 198.396L105.174 130.694Z" fill="#37474F"/>
<path d="M129.342 654.542C128.128 659.442 127.673 664.497 127.994 669.528C129.136 672.938 135.406 676.477 138.293 677.363C146.443 679.824 147.466 679.506 160.678 681.236C164.271 681.604 167.821 682.297 171.286 683.307C182.346 686.776 190.672 691.887 201.145 692.51C216.793 693.458 228.537 689.741 234.637 683.222C235.823 679.83 235.85 676.142 234.713 672.748C232.976 667.521 226.39 663.884 221.492 662.187C208.325 657.612 201.902 654.956 191.965 650.899C186.689 648.645 181.56 646.059 176.608 643.157C172.372 640.7 169.726 636.748 164.7 636.032C159.673 635.316 154.607 636.66 149.666 637.415C144.726 638.171 138.884 639.22 133.58 639.853C131.853 640.047 133.058 641.52 129.342 654.542Z" fill="#455A64"/>
<path d="M131.656 604.483C131.829 610.752 133.395 622.507 133.569 628.751C133.701 633.893 133.494 639.109 133.262 644.25C133.155 645.438 133.27 646.634 133.601 647.777C134.409 649.528 135.787 650.946 137.507 651.796C149.428 659.153 158.09 660.362 171.422 664.072C180.655 666.884 190.057 669.109 199.573 670.735C206.854 671.599 215.135 671.851 219.289 668.305C221.269 666.593 221.026 663.213 213.228 660.121C205.429 657.028 198.356 654.401 190.562 650.598C185.676 648.36 180.962 645.761 176.458 642.823C174.248 641.559 172.423 639.712 171.178 637.48C170.309 634.995 170.013 632.341 170.311 629.717C170.603 626.338 171.016 622.984 171.404 619.605C172.102 613.876 172.751 608.122 173.472 602.467C173.546 602.271 131.658 604.19 131.656 604.483Z" fill="#FFA8A7"/>
<path d="M17.3416 554.589C18.647 553.197 19.8095 551.676 20.811 550.048C24.7193 541.697 29.1333 526.995 33.4 512.585L71.0484 530.75C67.6655 536.723 64.2664 542.697 60.8511 548.671C59.1841 551.625 57.5411 554.604 55.8018 557.51C54.1465 559.967 52.6331 562.519 51.2693 565.152C49.854 568.071 48.7527 571.133 47.9846 574.285C47.0477 579.119 46.8894 584.068 47.5159 588.943C47.7705 592.628 48.5093 596.26 49.713 599.743C51.0948 602.985 53.3247 605.782 56.165 607.836C57.4884 608.912 58.3833 608.986 57.3988 611.257C57.0295 612.136 55.8667 612.282 54.9709 612.33C53.5 612.406 52.0261 612.347 50.5674 612.154C47.546 611.595 44.7125 610.292 42.3177 608.36C40.0666 606.7 38.0956 604.686 36.4796 602.393C32.3369 596.257 32.0551 588.341 32.3507 580.915C32.4905 579.284 32.4292 577.642 32.1681 576.029C31.9079 574.99 31.5589 573.976 31.125 572.998C28.2002 565.789 22.0902 560.603 17.3416 554.589Z" fill="#FFA8A7"/>
<path d="M3.02072 570.481C2.49608 568.533 2.66558 566.457 3.4998 564.613C5.22304 561.094 7.55756 560.24 10.1658 558.433C11.5551 557.481 12.8003 556.333 14.1658 555.332C15.2412 554.246 16.4553 553.31 17.7755 552.548C18.8351 552.207 19.9598 552.132 21.0512 552.331C26.0269 552.797 30.6632 555.038 34.1265 558.652C37.2989 562.665 37.6503 567.727 37.687 572.691L37.8132 585.406C37.5703 590.427 38.1819 595.447 39.6216 600.249C40.4294 602.975 41.9634 605.42 44.0573 607.32C46.1179 609.28 48.7717 610.487 51.5995 610.751C52.579 610.912 53.5858 610.716 54.4388 610.197C55.2918 609.678 55.9349 608.87 56.2524 607.919C56.2524 607.919 58.236 608.63 58.9372 608.924C60.5625 609.563 62.1103 610.385 63.5519 611.373C65.4703 612.811 66.8968 614.814 67.6357 617.109C68.3746 619.404 68.3898 621.877 67.6791 624.19C66.764 626.634 56.405 633.715 37.5277 631.497C35.6406 630.859 28.6252 628.358 26.7643 627.452C21.496 624.83 13.9676 622.843 12.7798 616.068C12.5631 614.152 12.5771 612.214 12.8216 610.298C13.6254 603.41 13.1244 596.44 11.3455 589.757C9.72874 585.447 7.83923 581.247 5.68853 577.183C4.56028 575.055 3.66575 572.808 3.02072 570.481Z" fill="#455A64"/>
<path d="M3.48947 564.581C0.784659 567.168 2.9926 573.082 6.41148 582.222C7.93154 586.206 12.646 593.539 11.6736 600.867C10.7012 608.195 10.5297 615.206 12.3438 618.677C15.2085 624.127 28.2163 629.099 37.4443 631.356C31.9667 623.36 28.8546 613.946 28.4683 604.206C27.8114 587.911 26.7502 577.332 19.4948 569.996C10.3161 560.899 3.48947 564.581 3.48947 564.581Z" fill="black"/>
<path d="M60.3987 551.237C60.3987 551.237 79.5878 518.675 108.351 469.27C112.781 462.345 115.895 454.653 117.533 446.589C119.55 438.336 121.069 432.28 121.069 432.28L125.326 489.119C123.148 497.934 121.765 506.925 121.192 515.981C120.983 532.988 121.952 549.98 124.091 566.835C128.334 602.108 130.471 621.014 130.471 621.014C132.876 622.824 136.482 625.709 153.696 625.653C159.825 625.297 165.826 623.682 171.332 620.908C171.332 620.908 176.019 584.277 178.283 558.708C181.542 522.27 183.035 509.669 184.274 495.431C186.57 468.689 189.756 455.967 190.711 413.813C191.703 370.095 189.457 305.735 189.457 305.735L72.7771 268.713C72.7771 268.713 59.3677 290.999 65.821 331.647C64.2522 368.281 61.8013 436.812 61.8013 436.812C55.6473 445.33 48.8581 458.146 42.8328 479.047C36.1136 502.291 32.0523 515.672 26.7555 532.763C36.6453 532.602 56.8952 544.199 60.3987 551.237Z" fill="#37474F"/>
<path d="M118.196 391.586C117.223 395.762 116.252 399.742 115.33 403.551C108.78 430.409 103.153 449.942 96.0944 463.514C87.5894 479.868 61.189 524.34 50.5955 542.06C51.2209 542.476 51.7982 542.867 52.3512 543.283C62.8962 525.587 89.4186 480.969 97.9964 464.566C104.712 451.702 110.087 433.659 116.136 409.169C116.982 405.799 117.829 402.332 118.628 398.743L118.196 391.586Z" fill="#263238"/>
<path d="M175.738 305.977L177.843 305.98C178.832 324.595 179.152 347.796 178.934 373.826C183.228 371.784 187.822 367.375 190.862 358.377C190.85 360.134 190.839 361.89 190.827 363.671C188.478 369.25 184.173 373.715 178.777 376.168C178.077 450.135 168.363 546.167 162.218 624.566L160.087 625.051C168.62 517.966 179.571 377.633 175.738 305.977Z" fill="#263238"/>
<path opacity="0.2" d="M120.781 432.337L115.458 354.215C104.451 349.465 95.233 341.293 89.1282 330.873C89.1282 330.873 89.4887 347.962 108.217 356.306L119.01 430.748L118.302 442.221C118.302 442.221 120.606 433.24 120.781 432.337Z" fill="black"/>
<path d="M129.109 30.7721C131.253 28.6613 133.727 26.9193 136.429 25.6165C138.538 24.6674 140.74 23.9477 142.998 23.4697C149.914 21.6211 157.145 21.3772 164.147 22.7562C171.202 24.1826 177.398 28.3551 181.395 34.3708C182.481 36.5439 183.801 38.5883 185.332 40.4671C188.368 43.5775 193.025 44.1693 197.092 45.6658C200.651 46.8812 203.762 49.1419 206.027 52.1585C207.131 53.6774 207.869 55.4355 208.184 57.2951C208.499 59.1547 208.383 61.0653 207.843 62.8772C206.796 65.2238 205.52 67.4603 204.032 69.5533C203.302 70.6125 202.821 71.8248 202.627 73.0971C202.432 74.3693 202.53 75.6677 202.911 76.8926C203.937 79.3404 207.522 80.347 209.091 78.3177C207.863 79.7812 206.313 80.9366 204.567 81.6912C202.82 82.4458 200.925 82.7788 199.034 82.6632C199.871 84.013 200.402 85.5341 200.588 87.1183C200.774 88.7025 200.612 90.3108 200.112 91.8288C199.612 93.3468 198.787 94.7372 197.695 95.901C196.604 97.0648 195.273 97.9735 193.797 98.5623C193.375 98.6764 192.983 98.8851 192.651 99.1729C192.205 99.8334 192.01 100.633 192.101 101.423C191.793 110.476 181.482 112.986 174.619 115.402C167.756 117.818 159.023 120.403 154.393 126.173C153.55 127.407 152.466 128.456 151.207 129.254C149.949 130.053 148.543 130.584 147.077 130.815C143.317 131.548 139.463 131.611 135.691 130.999C132.651 130.669 129.689 129.84 126.921 128.544C123.994 127.098 122.918 124.87 120.724 122.788C118.94 121.098 114.031 121.827 111.779 121.067C103.037 118.146 99.0956 109.285 99.0416 99.9628C98.2216 101.644 97.7886 103.488 97.775 105.357C97.7615 107.226 98.1679 109.07 98.9636 110.753C96.8972 108.83 95.3416 106.416 94.4372 103.728C93.5327 101.04 93.3079 98.1638 93.783 95.3577C94.4903 91.5414 96.482 88.0199 97.5522 84.3752C100.616 73.6368 95.8503 61.2514 101.092 51.3959C103.231 47.8815 106.1 44.8727 109.499 42.5778C112.898 40.2829 116.746 38.7565 120.778 38.1044C124.011 37.5448 125.491 34.3164 127.716 32.0186C128.205 31.6276 128.644 31.2121 129.109 30.7721Z" fill="#263238"/>
<path d="M112.347 137.667C112.347 137.667 115.827 115.67 115.781 115.303C114.891 107.675 103.828 92.0195 103.955 74.3214C104.083 56.6233 123.832 34.3976 150.148 36.0857C170.503 37.3768 180.678 48.3382 185.025 64.1095C187.672 73.6457 185.073 77.6766 185.955 83.1287C187.72 93.8373 190.65 104.4 183.261 120.38C181.803 123.367 179.679 125.976 177.056 128.002C174.433 130.027 171.383 131.413 168.146 132.05C163.759 132.602 159.317 132.449 154.986 131.597L153.135 149.514L112.347 137.667Z" fill="#FFA8A7"/>
<path d="M170.674 109.24C170.427 109.916 170.05 110.536 169.566 111.066C169.082 111.596 168.499 112.026 167.852 112.33C167.204 112.634 166.504 112.807 165.792 112.839C165.08 112.871 164.37 112.761 163.702 112.516C163.033 112.271 162.42 111.895 161.897 111.41C161.375 110.925 160.952 110.341 160.655 109.69C160.357 109.039 160.19 108.335 160.163 107.617C160.136 106.899 160.249 106.182 160.496 105.507L170.674 109.24Z" fill="#B16668"/>
<path d="M166.343 112.751C165.929 111.349 165.13 110.097 164.037 109.139C162.944 108.18 161.602 107.555 160.166 107.336C160.155 108.462 160.488 109.562 161.12 110.487C161.752 111.411 162.652 112.115 163.698 112.503C164.545 112.803 165.453 112.888 166.343 112.751Z" fill="#F28F8F"/>
<path d="M161.247 85.6972C161.386 86.3268 161.337 86.9849 161.107 87.5889C160.876 88.1929 160.474 88.716 159.951 89.0924C159.428 89.4689 158.808 89.6819 158.167 89.7049C157.527 89.7278 156.895 89.5596 156.351 89.2213C155.807 88.8831 155.376 88.3898 155.111 87.8036C154.846 87.2173 154.759 86.5641 154.861 85.9259C154.964 85.2877 155.25 84.693 155.686 84.2163C156.121 83.7397 156.686 83.4025 157.309 83.2469C158.156 83.0551 159.042 83.204 159.777 83.6617C160.513 84.1194 161.04 84.8498 161.247 85.6972Z" fill="#263238"/>
<path d="M159.339 75.6138L152.798 80.2087C152.211 79.3047 151.993 78.205 152.191 77.1384C152.388 76.0718 152.986 75.1206 153.859 74.4827C154.292 74.1838 154.779 73.9755 155.292 73.8705C155.805 73.7654 156.334 73.7657 156.845 73.8713C157.357 73.977 157.841 74.1857 158.27 74.4851C158.698 74.7846 159.062 75.1685 159.339 75.6138Z" fill="#263238"/>
<path d="M185.626 77.1975L177.94 74.9359C178.063 74.4201 178.291 73.9348 178.608 73.51C178.924 73.0852 179.324 72.7299 179.781 72.4662C180.239 72.2025 180.745 72.036 181.267 71.977C181.79 71.9179 182.318 71.9676 182.82 72.123C183.844 72.4428 184.706 73.147 185.228 74.0907C185.75 75.0345 185.892 76.1462 185.626 77.1975Z" fill="#263238"/>
<path d="M184.289 84.7431C184.277 85.1515 184.183 85.5537 184.013 85.9254C183.843 86.297 183.599 86.6303 183.298 86.9049C182.996 87.1795 182.642 87.3897 182.258 87.5227C181.874 87.6556 181.468 87.7085 181.064 87.6782C180.66 87.6479 180.267 87.5349 179.909 87.3463C179.551 87.1576 179.235 86.8972 178.981 86.5809C178.726 86.2645 178.539 85.8989 178.43 85.5062C178.321 85.1136 178.292 84.7022 178.346 84.297C178.368 83.8964 178.468 83.5035 178.641 83.1412C178.813 82.7788 179.056 82.4542 179.353 82.186C179.651 81.9178 179.998 81.7115 180.374 81.5789C180.751 81.4463 181.149 81.3902 181.546 81.4137C182.349 81.489 183.087 81.8812 183.601 82.5048C184.115 83.1284 184.362 83.933 184.289 84.7431Z" fill="#263238"/>
<path d="M185.599 98.6012L174.979 102.721L171.063 81.1853L185.599 98.6012Z" fill="#F28F8F"/>
<path d="M155.051 131.522C150.782 130.171 146.631 128.474 142.639 126.446C135.667 121.775 130.369 114.975 127.515 107.034C127.474 112.709 132.113 122.253 138.934 128.693C143.995 133.468 154.581 136.046 154.581 136.046L155.051 131.522Z" fill="#F28F8F"/>
<path d="M126.03 101.594C125.456 105.749 123.747 109.669 121.095 112.914C119.068 115.485 116.755 117.814 114.202 119.854C109.905 110.066 108.91 103.363 106.721 97.2947C104.093 89.7252 102.892 81.7191 103.179 73.6871C103.708 66.4531 106.285 59.511 110.604 53.6858C114.494 48.2734 119.493 43.7644 125.259 40.4671C128.314 38.6935 131.588 37.3393 134.995 36.4406C142.418 34.8577 150.051 34.6084 157.544 35.7042C168.862 37.6965 181.719 48.3493 183.72 60.19C182.14 57.1309 179.321 54.4375 175.864 55.9263C171.994 57.5613 168.865 60.6647 164.828 61.9327C159.477 63.6153 149.444 61.7466 144.685 58.8556C145.798 62.6481 147.05 67.3212 145.664 71.0867C144.496 74.565 142.328 77.62 139.437 79.8619C138.284 80.4707 137.407 81.5042 136.99 82.7458C136.808 84.2611 136.497 85.7584 136.059 87.2212C135.674 88.3156 135.015 89.2926 134.146 90.0567C133.718 90.4394 133.201 90.7053 132.643 90.829C132.085 90.9527 131.507 90.9299 130.962 90.7629C130.542 90.645 130.181 90.3747 129.948 90.0037C129.818 89.6939 129.746 89.3621 129.737 89.0251C129.745 87.9488 129.752 86.8971 129.76 85.8208C129.708 84.342 129.266 82.9064 128.48 81.6613C127.764 80.6508 126.845 79.8043 125.782 79.1764C124.719 78.5484 123.536 78.1531 122.309 78.0159C121.082 77.8787 119.838 78.0027 118.658 78.3799C117.478 78.757 116.389 79.3789 115.459 80.2055C111.595 84.3355 110.177 89.2262 113.738 96.7634C116.103 101.927 121.929 105.039 126.03 101.594Z" fill="#263238"/>
<path d="M76.5059 160.725C78.4796 149.239 85.6924 137.317 92.872 133.34C100.441 129.192 105.627 129.417 131.442 136.189C148.621 140.679 172.801 149.038 172.801 149.038C179.562 152.638 184.856 158.118 197.53 182.086C207.79 201.431 205.241 222.108 189.325 230.697C189.543 244.239 186.746 252.18 187.279 258.976C189.641 287.675 190.241 315.395 190.241 315.395C190.241 315.395 150.145 329.069 113.331 318.082C77.5798 307.438 67.8151 293.422 64.0014 287.796C64.0014 287.796 66.6624 278.486 71.883 263.825C77.4992 248.089 80.9925 237.654 79.4393 224.478C76.5071 200.838 73.2914 179.544 76.5059 160.725Z" fill="#F0F0F0"/>
<path d="M303.279 696.514C304.861 696.516 304.414 701.197 303.743 703.203C303.072 705.208 296.382 711.74 284.759 713.56C273.137 715.38 257.581 712.414 250.82 711.787C244.058 711.16 233.597 713.947 226.848 715.029C211.157 717.488 202.803 711.36 199.01 707.268C198.398 706.459 197.961 705.527 197.729 704.532C197.497 703.537 197.474 702.502 197.663 701.495C198.06 696.962 198.529 696.046 199.039 696.121L303.279 696.514Z" fill="#37474F"/>
<path d="M201.905 681.962C200.739 684.979 199.743 688.06 198.92 691.189C197.921 694.968 196.913 699.827 199.297 702.996C203.319 708.327 208.559 709.977 214.12 710.89C220.75 711.919 227.53 711.524 234.017 709.731C240.034 708.117 244.859 706.649 251.2 707.293C258.148 708.061 267.667 709.764 274.672 709.402C280.607 709.386 286.507 708.414 292.15 706.523C296.683 704.828 300.538 701.662 303.108 697.524C303.569 694.305 303.047 691.026 301.613 688.126C300.179 685.225 297.9 682.841 295.08 681.291C289.784 678.31 283.809 676.757 277.728 676.782C271.141 676.53 266.128 677.188 260.297 676.52C256.277 676.229 252.367 675.087 248.821 673.17C247.199 671.728 246.023 669.844 245.432 667.742C244.597 665.605 244.343 663.74 242.473 663.468C242.473 663.468 211.678 661.916 208.882 661.938C205.673 661.935 205.835 666.354 205.575 668.661C205.315 670.968 205.269 670.698 205.035 672.711C204.618 674.944 203.933 677.12 202.995 679.189C202.623 680.121 202.252 681.029 201.905 681.962Z" fill="#455A64"/>
<path d="M265.49 675.73C265.942 675.482 266.437 675.324 266.947 675.267C269.638 674.977 271.532 677.716 272.558 679.843C273.131 681.145 273.536 682.517 273.764 683.925C274.202 685.655 274.138 687.479 273.581 689.18C273.432 689.595 273.065 690.084 272.63 689.961C272.195 689.838 272.175 689.325 272.153 688.91C272.033 686.448 271.476 684.03 270.509 681.772C270.172 680.797 269.661 679.894 269.002 679.106C268.283 678.328 267.403 677.718 266.423 677.32C266.037 677.148 264.245 677.073 264.711 676.292C264.817 676.153 264.95 676.037 265.101 675.95L265.49 675.73Z" fill="#FAFAFA"/>
<path d="M257.742 675.356C259.008 675.298 260.247 675.717 261.219 676.532C262.19 677.534 262.852 678.798 263.129 680.174C263.981 682.813 264.558 686.723 262.87 689.213C262.332 689.995 261.657 689.554 261.396 688.797C261.241 687.87 261.183 686.928 261.223 685.987C261.02 683.919 260.572 681.884 259.887 679.927C259.648 679.145 259.312 678.398 258.887 677.702C258.596 677.25 258.221 676.86 257.782 676.553C257.564 676.395 257.319 676.279 257.058 676.21C256.82 676.147 256.578 676.098 256.333 676.063C256.336 675.696 256.797 675.501 257.161 675.428L257.742 675.356Z" fill="#FAFAFA"/>
<path d="M250.024 672.764C250.894 673.085 251.653 673.654 252.209 674.402C252.676 675.145 252.99 675.976 253.133 676.845C253.625 678.783 253.878 680.776 253.888 682.78C253.883 684.2 253.47 685.591 252.7 686.784C252.383 687.247 251.8 687.686 251.319 687.417C250.838 687.148 250.893 686.269 250.872 685.756C250.871 684.802 250.918 683.849 251.013 682.899C251.133 679.435 250.196 676.024 248.331 673.128C248.274 673.062 248.232 672.984 248.207 672.9C248.183 672.816 248.177 672.727 248.19 672.64C248.191 672.396 248.626 672.396 248.867 672.445C249.259 672.526 249.646 672.632 250.024 672.764Z" fill="#FAFAFA"/>
<path d="M273.75 676.882C276.468 676.884 281.972 680.975 284.312 689.516C285.647 695.783 285.715 702.264 284.513 708.575C290.215 708.131 295.639 705.865 299.996 702.106C301.617 700.834 302.987 699.266 304.034 697.486C304.565 695.285 304.65 693.001 304.282 690.772C303.915 688.543 303.103 686.416 301.896 684.517C298.194 679.62 292.249 676.141 282.548 675.177C271.804 674.066 270.716 676.928 270.716 676.928L273.75 676.882Z" fill="#FAFAFA"/>
<path d="M203.395 613.783L207.871 665.13C207.625 668.895 213.683 672.739 225.146 673.458C233.169 673.955 240.58 671.713 241.967 667.704C243.354 663.696 250.156 615.342 250.156 615.342L203.395 613.783Z" fill="#B16668"/>
<path d="M393.088 725.957C394.67 725.959 394.297 730.613 393.65 732.642C393.003 734.672 386.288 741.249 374.786 743.242C363.285 745.234 347.582 742.443 340.723 741.915C333.863 741.388 323.498 744.371 316.774 745.453C301.13 748.134 292.678 742.108 288.837 737.994C288.215 737.194 287.767 736.269 287.523 735.279C287.278 734.289 287.242 733.256 287.417 732.248C287.766 727.693 288.21 726.802 288.721 726.853L393.088 725.957Z" fill="#37474F"/>
<path d="M291.535 712.728C290.412 715.768 289.449 718.864 288.648 722.004C287.721 725.784 286.762 730.643 289.195 733.788C293.29 739.069 298.555 740.646 304.116 741.486C310.766 742.437 317.549 741.95 324.015 740.056C330.009 738.368 334.81 736.827 341.054 737.446C348.003 738.091 357.547 739.696 364.553 739.236C370.483 739.136 376.366 738.089 381.984 736.136C386.499 734.389 390.315 731.169 392.821 726.99C393.251 723.764 392.694 720.489 391.224 717.604C389.754 714.72 387.442 712.364 384.598 710.854C379.268 707.941 373.273 706.472 367.196 706.59C360.608 706.412 355.594 707.144 349.763 706.574C345.736 706.354 341.807 705.271 338.237 703.396C336.607 701.967 335.408 700.103 334.775 698.016C333.915 695.905 333.637 694.014 331.766 693.767C331.766 693.767 300.944 692.632 298.148 692.679C294.939 692.676 295.174 697.144 294.938 699.451C294.703 701.758 294.656 701.488 294.447 703.501C294.067 705.739 293.414 707.924 292.503 710.004C292.23 710.863 291.858 711.795 291.535 712.728Z" fill="#455A64"/>
<path d="M330.644 699.324C330.619 702.753 323.546 706.665 314.753 706.657C305.959 706.649 298.89 703.385 298.869 699.539C298.868 695.291 300.54 691.206 303.519 688.181C306.498 685.157 310.538 683.442 314.752 683.414C318.965 683.385 323.007 685.046 325.987 688.029C328.968 691.013 330.643 695.076 330.644 699.324Z" fill="#37474F"/>
<path d="M317.751 687.404C317.738 689.234 311.59 689.275 311.603 687.396L311.545 650.793L317.694 650.8L317.751 687.404Z" fill="#E0E0E0"/>
<path d="M355.028 705.666C355.483 705.421 355.976 705.256 356.485 705.179C359.177 704.863 361.095 707.627 362.171 709.681C362.751 710.983 363.165 712.354 363.401 713.764C363.873 715.473 363.86 717.285 363.363 718.994C363.19 719.434 362.847 719.922 362.412 719.8C361.977 719.677 361.932 719.188 361.911 718.773C361.76 716.304 361.17 713.886 360.17 711.634C359.823 710.666 359.304 709.771 358.638 708.993C357.902 708.229 357.015 707.629 356.034 707.231C355.648 707.084 353.856 707.009 354.321 706.252C354.406 706.103 354.534 705.984 354.687 705.91L355.028 705.666Z" fill="#FAFAFA"/>
<path d="M347.28 705.389C348.547 705.318 349.793 705.719 350.781 706.516C351.759 707.51 352.438 708.764 352.74 710.134C353.616 712.773 354.241 716.659 352.674 719.174C352.16 719.979 351.461 719.539 351.201 718.781C351.037 717.855 350.971 716.913 351.003 715.971C350.767 713.907 350.286 711.881 349.57 709.935C349.337 709.159 349 708.419 348.57 707.735C348.268 707.276 347.875 706.885 347.416 706.586C347.201 706.438 346.965 706.322 346.717 706.243C346.475 706.243 346.209 706.243 345.992 706.12C345.775 705.998 346.431 705.534 346.795 705.462L347.28 705.389Z" fill="#FAFAFA"/>
<path d="M339.537 702.894C340.405 703.208 341.164 703.769 341.723 704.508C342.218 705.241 342.549 706.074 342.696 706.951C343.199 708.889 343.477 710.88 343.523 712.886C343.528 714.309 343.133 715.706 342.383 716.914C342.066 717.378 341.507 717.817 341.026 717.572C340.544 717.328 340.575 716.424 340.53 715.911C340.537 714.959 340.544 713.982 340.551 713.054C340.636 709.576 339.657 706.164 337.747 703.283C337.748 703.136 337.532 702.965 337.605 702.819C337.679 702.672 338.018 702.55 338.283 702.6C338.71 702.658 339.129 702.757 339.537 702.894Z" fill="#FAFAFA"/>
<path d="M363.312 706.72C366.006 706.722 371.584 710.691 374.021 719.208C375.445 725.457 375.604 731.939 374.489 738.267C380.178 737.738 385.566 735.404 389.877 731.602C391.48 730.302 392.825 728.71 393.843 726.908C394.343 724.698 394.394 722.412 393.993 720.187C393.592 717.962 392.747 715.845 391.51 713.964C387.76 709.067 381.862 705.734 372.16 704.893C361.391 703.929 360.351 706.791 360.351 706.791L363.312 706.72Z" fill="#FAFAFA"/>
<path d="M201.724 540.201C202.942 529.706 205.303 519.371 208.764 509.384C208.764 509.384 209.178 411.906 210.123 384.821C210.882 367.287 213.086 349.838 216.713 332.656L350.826 335.401C350.826 335.401 350.984 413.902 349.592 466.047C348.231 517.337 343.045 532.304 338.791 589.111C337.212 610.188 332.88 651.095 332.88 651.095C332.88 651.095 324.423 656.998 308.669 655.81C301.903 655.315 291.239 652.227 288.691 650.148C288.691 650.148 281.298 616.069 279.79 593.841C279.177 584.95 277.978 563.553 280.387 551.269L271.203 483.873C271.203 483.873 268.728 515.232 265.965 539.678C263.202 564.124 245.859 645.563 245.859 645.563C245.859 645.563 239.635 650.442 224.071 649.547C213.994 648.927 208.024 645.379 205.671 643.081C205.671 643.081 204.165 627.375 202.413 602.045C200.26 575.542 200.241 554.757 201.724 540.201Z" fill="#455A64"/>
<path d="M285.954 638.902L288.88 654.517C288.88 654.517 297.754 661.301 314.563 660.212C331.372 659.124 334.773 652.696 334.773 652.696L335.762 637.035C335.762 637.035 328.186 642.429 313.131 643.052C295.084 643.82 285.954 638.902 285.954 638.902Z" fill="#37474F"/>
<path d="M270.713 483.823L264.789 405.696C264.789 405.696 249.577 403.459 230.047 384.933C230.047 384.933 230.911 398.947 257.277 411.694L264.59 480.887L267.511 520.56C269.469 506.257 270.052 495.369 270.713 483.823Z" fill="#37474F"/>
<path d="M203.483 627.955L204.704 643.909C204.704 643.909 210.805 650.835 227.654 650.778C244.503 650.72 246.924 645.299 246.924 645.299L250.203 628.957C250.203 628.957 242.315 633.858 227.268 633.574C209.231 633.188 203.483 627.955 203.483 627.955Z" fill="#37474F"/>
<path d="M76.6622 203.369C77.0931 200.92 79.5247 200.603 81.5409 200.629C85.5794 201.043 89.3679 202.766 92.3396 205.539C95.7073 208.121 98.931 210.888 101.996 213.828C104.834 216.735 108.3 218.942 112.127 220.28C114.549 221.311 117.901 221.338 116.688 217.834C115.261 213.644 111.894 209.059 113.095 204.259C113.897 200.952 116.447 200.979 118.424 203.112C121.636 206.645 125.112 209.924 128.822 212.921C132.59 215.962 131.726 214.491 135.395 217.63C137.314 219.313 139.111 221.132 140.773 223.073C145.592 228.394 152.528 230.09 158.982 231.174C163.398 231.937 183.005 234.895 183.005 234.895C183.005 234.895 208.423 180.826 216.76 166.918C225.492 152.227 236.327 148.978 253.166 151.664L243.006 212.091C243.006 212.091 223.718 248.454 214.054 261.062C204.39 273.67 205.503 277.492 182.391 272.205C169.586 269.278 147.113 259.483 134.732 255.014C129.014 252.975 123.414 251.476 117.522 249.829C111.631 248.183 105.873 244.919 100.014 242.293C97.2418 240.969 94.8689 238.931 93.1336 236.382C92.0039 234.74 92.0433 232.682 90.9857 231.138C89.9282 229.594 87.9156 229.077 87.1049 226.994C86.2942 224.911 87.1409 222.095 86.1592 220.134C84.9403 218.095 83.8444 215.984 82.8775 213.811C82.5006 211.865 81.6826 210.037 80.4873 208.468C79.1368 207.119 76.2568 205.647 76.6622 203.369Z" fill="#B16668"/>
<path d="M255.982 150.434C239.778 148.709 228.773 148.821 219.549 160.498C210.326 172.175 191.43 213.766 191.43 213.766C191.43 213.766 193.358 221.86 204.669 229.595C211.271 234.19 219.167 236.535 227.211 236.289L251.666 183.678L255.982 150.434Z" fill="#F0F0F0"/>
<path d="M342.531 178.768C334.139 173.873 315.161 166.011 297.666 160.595C285.769 156.683 273.645 153.497 261.359 151.056C248.711 148.601 239.829 151.036 231.264 159.728C224.506 166.565 218.429 182.835 217.446 201.26C216.241 223.717 219.961 251.506 220.234 270.397C220.508 289.288 212.605 343.239 212.605 343.239C236.619 371.217 310.207 379.593 350.79 364.16C350.79 364.16 351.477 319.855 350.352 301.477C348.839 276.598 350.071 224.034 348.877 211.765C347.813 200.58 345.688 189.53 342.531 178.768Z" fill="#37474F"/>
<path d="M308.562 144.626L304.555 164.415C289.029 171.554 267.112 162.447 265.239 156.125L268.691 135.87L308.562 144.626Z" fill="#B16668"/>
<path d="M346.375 96.8921L353.688 117.804L344.604 121.239C344.069 111.763 342.103 99.7698 346.375 96.8921Z" fill="#9A4A4D"/>
<path d="M336.036 66.2469C354.121 71.424 345.161 98.9095 345.415 110.577C345.894 141.129 335.408 151.833 330.945 154.936C321.583 157.863 312.832 156.95 301.857 151.583C293.42 147.515 272.201 136.343 265.549 120.389C257.73 101.572 259.836 75.7434 273.547 68.6376C292.835 58.6504 329.015 64.2349 336.036 66.2469Z" fill="#B16668"/>
<path d="M340.901 133.53L340.416 133.529L340.173 133.529L339.252 133.186C338.695 132.955 338.167 132.658 337.68 132.302C337.084 131.869 336.52 131.394 335.99 130.88C335.725 130.635 335.484 130.341 335.218 130.121C334.953 129.9 334.736 129.679 334.468 129.752C334.2 129.826 334.321 129.973 334.272 129.973C334.306 130.485 334.383 130.993 334.504 131.491L334.624 131.712L334.936 132.153C335.134 132.407 335.351 132.645 335.587 132.864C336.071 133.363 336.614 133.799 337.205 134.163C338.362 134.908 339.654 135.416 341.007 135.661C341.13 135.691 341.259 135.692 341.383 135.664C341.507 135.636 341.623 135.58 341.723 135.499C341.822 135.419 341.902 135.316 341.955 135.2C342.009 135.084 342.036 134.957 342.033 134.829C342.038 134.509 341.925 134.199 341.716 133.959C341.507 133.719 341.217 133.566 340.901 133.53Z" fill="#9A4A4D"/>
<path d="M331.287 154.867C328.841 156.614 313.702 157.511 306.444 155.236L307.555 149.544C309.075 151.344 322.443 156.558 331.287 154.867Z" fill="#9A4A4D"/>
<path d="M336.054 91.7017C333.778 91.2927 331.575 90.5488 329.517 89.4937C330.073 89.7389 329.226 92.7478 329.077 93.1637C328.541 94.4978 327.701 95.6875 326.625 96.6361C325.651 97.5927 324.445 98.2729 323.129 98.6071C321.813 98.9413 320.435 98.9175 319.135 98.5381C319.539 100.731 319.726 102.961 319.693 105.194C319.81 106.545 319.41 107.893 318.574 108.961C318.17 109.369 317.66 109.65 317.103 109.771C316.546 109.892 315.968 109.848 315.438 109.644C313.357 108.786 313.693 105.996 312.807 104.258C311.869 102.459 310.395 101.003 308.59 100.095C306.842 99.1076 304.809 98.7529 302.825 99.0893C300.841 99.4256 299.026 100.433 297.679 101.945C295.787 104.365 294.519 107.217 293.988 110.245C293.458 113.273 293.681 116.381 294.639 119.291C299.412 130.379 306.581 125.834 306.581 125.834C306.51 129.393 305.699 132.902 304.2 136.134C303.093 138.898 301.158 141.25 298.665 142.858C282.883 143.676 271.986 140.241 266.132 134.265C262.626 125.845 257.284 116.297 255.966 107.34C254.61 99.6773 254.121 91.8784 254.511 84.0931C254.911 76.2718 257.564 68.7231 262.146 62.3714C264.108 59.7419 266.563 57.5252 269.37 55.8481C272.176 54.1711 275.28 53.0667 278.504 52.5982C279.086 52.5987 280.444 49.4189 280.959 48.7832C281.882 47.4312 282.985 46.2135 284.238 45.1647C287.515 42.3492 291.676 40.8034 295.968 40.8072C300.26 40.811 304.399 42.3641 307.635 45.1853C309.84 43.1966 312.472 41.7525 315.322 40.9683C318.172 40.1841 321.159 40.0817 324.047 40.6691C326.934 41.2566 329.64 42.5177 331.949 44.3516C334.259 46.1855 336.107 48.5414 337.346 51.231C339.566 49.9169 342.132 49.3299 344.688 49.5514C347.244 49.7729 349.663 50.792 351.608 52.4671C355.805 56.0677 356.617 61.207 356.19 66.443C360.238 67.1072 361.387 72.6382 360.73 76.2346C360.095 79.0176 358.821 81.6151 357.009 83.8167C355.803 85.1835 354.795 86.7151 354.015 88.3653C353.645 89.201 353.513 90.1229 353.635 91.0267C353.757 91.9306 354.128 92.7804 354.705 93.48C352.614 94.1394 350.37 94.0857 348.322 93.3273C346.274 92.5689 344.535 91.1481 343.377 89.2857C342.525 90.2111 341.464 90.9164 340.286 91.3414C339.108 91.7664 337.848 91.8986 336.612 91.7267L336.054 91.7017Z" fill="#263238"/>
<path d="M939.479 566.915C937.946 566.913 938.158 571.412 938.729 573.39C939.299 575.368 945.581 581.926 956.737 584.115C967.893 586.304 983.241 583.975 989.839 583.612C996.437 583.249 1006.49 586.327 1013.03 587.595C1028.17 590.555 1036.58 584.88 1040.45 581.054C1041.09 580.289 1041.55 579.399 1041.82 578.441C1042.09 577.483 1042.16 576.479 1042.03 575.494C1041.86 571.069 1041.45 570.179 1040.94 570.228L939.479 566.915Z" fill="#37474F"/>
<path d="M1038.61 556.294C1039.57 559.273 1040.36 562.305 1040.98 565.378C1041.75 569.084 1042.52 573.847 1040.04 576.838C1038.18 578.975 1035.91 580.711 1033.37 581.94C1030.83 583.169 1028.07 583.866 1025.26 583.989C1018.75 584.788 1012.17 584.17 1005.94 582.176C1000.16 580.403 995.531 578.803 989.352 579.238C982.54 579.722 973.193 581.086 966.413 580.465C960.598 580.254 954.86 579.105 949.416 577.06C945.076 575.253 941.464 572.038 939.147 567.919C938.842 564.767 939.499 561.591 941.032 558.815C942.564 556.04 944.897 553.799 947.719 552.393C953.001 549.696 958.869 548.402 964.767 548.631C971.211 548.638 976.068 549.429 981.786 548.969C985.83 548.867 989.811 547.883 993.453 546.085C995.093 544.736 996.328 542.952 997.016 540.935C997.93 538.899 998.235 537.058 1000.06 536.864C1000.06 536.864 1030.12 536.455 1032.86 536.556C1035.61 536.657 1035.6 540.952 1035.76 543.21C1035.91 545.468 1035.94 545.223 1036.07 547.162C1036.39 549.349 1036.95 551.49 1037.75 553.545C1038.09 554.478 1038.4 555.386 1038.61 556.294Z" fill="#455A64"/>
<path d="M977.09 547.899C976.655 547.653 976.181 547.487 975.688 547.409C973.097 547.039 971.115 549.628 970.01 551.655C969.388 552.902 968.931 554.224 968.649 555.589C968.153 557.256 968.14 559.029 968.612 560.697C968.609 561.137 969.066 561.626 969.503 561.504C969.941 561.383 969.992 560.918 970.02 560.503C970.236 558.107 970.894 555.77 971.959 553.613C972.326 552.707 972.858 551.879 973.528 551.17C974.281 550.451 975.166 549.887 976.133 549.511C976.522 549.365 978.267 549.342 977.836 548.584C977.747 548.441 977.622 548.323 977.475 548.242L977.09 547.899Z" fill="#FAFAFA"/>
<path d="M984.645 547.862C983.412 547.746 982.179 548.112 981.2 548.884C980.204 549.819 979.497 551.023 979.165 552.351C978.55 553.741 978.227 555.242 978.216 556.76C978.206 558.279 978.507 559.781 979.102 561.171C979.581 561.954 980.286 561.539 980.558 560.806C980.762 559.917 980.858 559.006 980.843 558.095C981.14 556.093 981.674 554.133 982.435 552.257C982.706 551.499 983.069 550.777 983.516 550.108C983.824 549.671 984.213 549.298 984.661 549.01C984.88 548.876 985.117 548.777 985.366 548.718C985.598 548.665 985.833 548.625 986.069 548.596C986.072 548.23 985.661 548.034 985.299 547.96L984.645 547.862Z" fill="#FAFAFA"/>
<path d="M992.258 545.655C991.4 545.948 990.636 546.47 990.048 547.166C989.555 547.905 989.213 548.735 989.04 549.607C988.479 551.482 988.14 553.417 988.033 555.37C987.98 556.748 988.314 558.111 988.996 559.302C989.282 559.767 989.835 560.207 990.32 559.988C990.805 559.768 990.787 558.865 990.839 558.376C990.845 557.448 990.852 556.496 990.858 555.592C990.881 552.196 991.952 548.885 993.922 546.121C993.981 546.06 994.025 545.987 994.051 545.906C994.077 545.826 994.083 545.74 994.07 545.657C994.072 545.413 993.661 545.412 993.419 545.436C993.026 545.471 992.637 545.544 992.258 545.655Z" fill="#FAFAFA"/>
<path d="M969.072 548.635C966.425 548.632 960.864 552.345 958.183 560.563C956.604 566.618 956.237 572.922 957.104 579.107C951.577 578.472 946.406 576.076 942.344 572.265C941.017 571.317 939.918 570.081 939.128 568.647C938.338 567.213 937.876 565.618 937.776 563.977C937.676 562.336 937.941 560.692 938.551 559.163C939.16 557.634 940.1 556.259 941.301 555.138C945.146 550.445 951.068 547.319 960.443 546.717C970.959 546.019 971.886 548.833 971.886 548.833L969.072 548.635Z" fill="#FAFAFA"/>
<path d="M1036.23 488.588C1035.87 505.452 1034.17 540.035 1034.17 540.035C1029.81 546.287 1018.43 547.619 1011.48 547.026C1005.02 544.868 1001.52 549.801 996.889 553.096C1004.28 535.995 991.557 508.828 990.7 489.543L1036.23 488.588Z" fill="#FFA8A7"/>
<path d="M863.066 640.604C861.534 640.405 861.575 645.045 862.072 647.045C862.569 649.044 868.606 655.814 879.684 658.394C890.763 660.974 906.155 659.215 912.775 659.075C919.395 658.935 929.324 662.377 935.787 663.891C950.825 667.413 959.428 662.043 963.445 658.37C964.101 657.632 964.595 656.763 964.896 655.818C965.196 654.874 965.295 653.877 965.187 652.893C965.217 648.451 964.81 647.537 964.299 647.561L863.066 640.604Z" fill="#37474F"/>
<path d="M962.656 633.526C963.541 636.543 964.258 639.608 964.804 642.707C965.458 646.438 966.056 651.224 963.482 654.142C961.542 656.212 959.207 657.865 956.62 659.001C954.033 660.138 951.248 660.733 948.433 660.752C941.918 661.309 935.368 660.466 929.217 658.277C923.492 656.283 918.934 654.511 912.732 654.726C905.921 654.988 896.529 655.984 889.775 655.143C884.013 654.691 878.363 653.336 873.026 651.124C868.762 649.152 865.273 645.809 863.1 641.616C862.908 638.454 863.68 635.302 865.312 632.584C866.944 629.866 869.357 627.711 872.229 626.41C877.604 623.89 883.524 622.806 889.418 623.263C895.836 623.466 900.667 624.453 906.432 624.213C910.362 624.221 914.255 623.389 917.853 621.772C919.528 620.516 920.827 618.818 921.608 616.867C922.571 614.856 922.973 613.04 924.798 612.895C924.798 612.895 954.847 613.565 957.568 613.789C960.29 614.013 960.163 618.283 960.219 620.541C960.276 622.799 960.351 622.529 960.41 624.492C960.643 626.696 961.133 628.864 961.872 630.948L962.656 633.526Z" fill="#455A64"/>
<path d="M901.367 622.956C900.946 622.684 900.479 622.493 899.989 622.393C897.398 621.925 895.344 624.465 894.166 626.444C893.516 627.674 893.018 628.978 892.684 630.329C892.109 631.973 892.013 633.745 892.405 635.437C892.547 635.877 892.835 636.366 893.272 636.269C893.709 636.172 893.785 635.683 893.836 635.292C894.149 632.9 894.888 630.582 896.018 628.45C896.419 627.54 896.984 626.711 897.684 626.008C898.453 625.308 899.357 624.777 900.338 624.446C900.727 624.3 902.471 624.448 902.065 623.592C901.986 623.442 901.87 623.316 901.728 623.225L901.367 622.956Z" fill="#FAFAFA"/>
<path d="M908.922 623.187C907.7 623.023 906.459 623.336 905.452 624.063C904.435 624.971 903.689 626.147 903.297 627.457C902.612 628.816 902.216 630.303 902.134 631.822C902.053 633.341 902.287 634.858 902.822 636.277C903.277 637.084 903.982 636.694 904.278 635.961C904.524 635.077 904.661 634.166 904.684 633.249C905.047 631.263 905.646 629.328 906.469 627.485C906.767 626.74 907.155 626.035 907.623 625.384C907.934 624.955 908.333 624.597 908.793 624.335C909.015 624.192 909.263 624.093 909.521 624.043C909.756 624.031 909.99 624.031 910.224 624.043C910.227 623.677 909.841 623.456 909.478 623.358L908.922 623.187Z" fill="#FAFAFA"/>
<path d="M916.654 621.249C915.784 621.49 915.005 621.991 914.42 622.687C913.901 623.369 913.525 624.15 913.316 624.982C912.68 626.839 912.268 628.766 912.091 630.72C911.988 632.096 912.28 633.47 912.933 634.677C913.196 635.141 913.724 635.606 914.209 635.387C914.694 635.168 914.725 634.313 914.801 633.8C914.807 632.896 914.814 631.944 914.821 631.016C914.955 627.621 916.145 624.349 918.223 621.666C918.334 621.547 918.396 621.389 918.395 621.226C918.397 620.982 917.986 620.933 917.744 620.981C917.374 621.04 917.01 621.129 916.654 621.249Z" fill="#FAFAFA"/>
<path d="M893.325 623.401C890.679 623.398 884.998 626.793 882.027 634.937C880.233 640.932 879.643 647.22 880.292 653.432C874.794 652.597 869.712 650.021 865.779 646.077C864.304 644.732 863.104 643.111 862.244 641.302C861.907 639.131 862.01 636.911 862.546 634.775C863.083 632.64 864.043 630.633 865.367 628.877C869.357 624.306 875.399 621.425 884.844 621.141C895.407 620.81 896.213 623.6 896.213 623.6L893.325 623.401Z" fill="#FAFAFA"/>
<path d="M963.617 565.614C963.617 565.614 959.196 618.055 959.17 618.275C958.932 621.158 953.829 623.01 951.643 623.644C947.123 624.988 942.446 625.706 937.742 625.78C936.007 625.737 934.272 625.841 932.553 626.092C929.153 627.003 925.995 628.67 923.309 630.97C923.489 629.422 923.96 627.921 924.698 626.548C925.512 624.44 925.795 622.164 925.521 619.926C925.315 618.215 924.378 616.943 924.075 615.281C923.772 613.619 923.641 611.541 923.437 609.684C922.877 604.307 922.35 598.913 921.856 593.504C921 584.347 920.185 575.181 919.41 566.008L919.416 565.128L963.617 565.614Z" fill="#FFA8A7"/>
<path d="M1036.84 404.202C1036.84 404.202 1038.36 339.301 1038.16 312.905C1037.58 294.402 1035.28 276.006 1031.3 257.957L905.291 264.092C905.291 264.092 905.804 328.361 907.209 379.127C908.803 437.317 909.988 457.707 913.137 507.718C914.417 528.255 921.111 599.783 921.111 599.783C921.111 599.783 926.987 605.698 942.274 606.033C949.472 606.348 956.593 604.309 962.581 600.219C962.581 600.219 969.364 535.91 971.425 514.278C971.964 501.905 971.177 489.517 969.077 477.331L976.055 395.49C976.055 395.49 979.533 422.964 987.082 472.468C990.199 492.811 996.21 527.662 996.21 527.662C996.21 527.662 1004.17 532.555 1019.35 530.691C1030.06 529.336 1032.66 527.288 1035.02 525.093C1034.92 525.093 1043.21 442.423 1036.84 404.202Z" fill="#37474F"/>
<path d="M976.088 395.638L985.415 333.045C985.415 333.045 1000.3 331.084 1019.84 313.331C1019.84 313.331 1018.63 326.954 992.568 339.011L982.119 392.959L980.912 430.705C979.043 418.397 977.411 406.651 976.088 395.638Z" fill="#263238"/>
<path d="M990.132 121.089L984.644 92.0482C986.12 85.4998 993.312 69.4991 992.521 51.2904C991.73 33.0817 964.567 8.17325 944.005 12.7953C923.442 17.4174 913.655 30.2871 909.83 46.609C907.456 56.5537 910.188 57.583 909.493 63.2279C908.056 74.3466 907.173 89.4008 913.376 103.314C914.699 106.358 916.84 108.965 919.558 110.842C922.276 112.718 925.464 113.79 928.764 113.937C933.294 114.306 937.857 113.922 942.273 112.802C943.06 117.445 943.601 122.129 943.894 126.833C944.022 128.446 943.545 130.054 942.558 131.338C941.57 132.621 940.144 133.489 938.56 133.768L990.132 121.089Z" fill="#FFBDA7"/>
<path d="M924.851 90.96C925.11 91.5922 925.49 92.1661 925.97 92.649C926.449 93.1318 927.019 93.5141 927.647 93.774C928.274 94.0339 928.947 94.1663 929.627 94.1637C930.307 94.1611 930.981 94.0236 931.61 93.7589C932.239 93.4942 932.81 93.1076 933.292 92.6212C933.774 92.1347 934.157 91.5578 934.419 90.9236C934.68 90.2894 934.816 89.6102 934.818 88.9248C934.819 88.2394 934.687 87.5612 934.428 86.929L924.851 90.96Z" fill="#B16668"/>
<path d="M929.114 94.099C929.456 92.7492 930.17 91.5226 931.174 90.5621C932.178 89.6015 933.431 88.9465 934.785 88.6734C934.838 89.7433 934.562 90.8056 933.996 91.7157C933.429 92.6257 932.598 93.3392 931.617 93.7591C930.825 94.087 929.963 94.2041 929.114 94.099Z" fill="#F28F8F"/>
<path d="M933.231 66.134C933.132 66.5757 933.12 67.0324 933.197 67.4776C933.274 67.9228 933.438 68.3477 933.679 68.7278C933.92 69.1079 934.233 69.4356 934.601 69.6921C934.97 69.9486 935.385 70.1287 935.824 70.222C936.502 70.3862 937.214 70.3418 937.869 70.0943C938.524 69.8469 939.092 69.4078 939.499 68.8338C939.907 68.2597 940.135 67.5769 940.154 66.8734C940.174 66.1699 939.984 65.4779 939.609 64.8867C939.234 64.2954 938.691 63.8319 938.051 63.556C937.41 63.2801 936.701 63.2044 936.015 63.3386C935.329 63.4728 934.697 63.8108 934.201 64.309C933.704 64.8072 933.367 65.4429 933.231 66.134Z" fill="#263238"/>
<path d="M934.731 55.4362L942.239 58.6519C942.656 57.611 942.657 56.4507 942.243 55.414C941.829 54.3774 941.033 53.5448 940.02 53.0909C939.523 52.8827 938.989 52.7785 938.451 52.7845C937.912 52.7906 937.379 52.9067 936.885 53.126C936.39 53.3452 935.944 53.663 935.574 54.0601C935.204 54.4572 934.917 54.9253 934.731 55.4362Z" fill="#B16668"/>
<path d="M908.796 57.6623L916.111 53.7529C915.885 53.2616 915.562 52.8224 915.161 52.4623C914.76 52.1022 914.29 51.8288 913.78 51.6587C913.27 51.4886 912.73 51.4254 912.193 51.473C911.656 51.5207 911.134 51.6781 910.659 51.9357C909.683 52.4749 908.947 53.3684 908.6 54.433C908.254 55.4977 908.324 56.653 908.796 57.6623Z" fill="#B16668"/>
<path d="M910.311 65.1193C910.407 65.7196 910.675 66.2775 911.083 66.7236C911.491 67.1697 912.02 67.4845 912.606 67.6288C913.192 67.7731 913.807 67.7407 914.377 67.5355C914.947 67.3303 915.445 66.9614 915.81 66.4746C916.176 65.9878 916.392 65.4045 916.432 64.797C916.472 64.1896 916.334 63.5849 916.035 63.0578C915.737 62.5308 915.29 62.1047 914.752 61.8323C914.214 61.56 913.607 61.4535 913.007 61.5261C912.18 61.6463 911.431 62.0921 910.926 62.7657C910.42 63.4393 910.199 64.2857 910.311 65.1193Z" fill="#263238"/>
<path d="M912.034 80.3427L924.476 84.3137L925.663 60.4217C921.07 59.3419 916.533 70.7707 912.034 80.3427Z" fill="#F0997A"/>
<path d="M942.306 112.758C942.306 112.758 953.373 109.76 956.375 107.537C964.501 101.576 967.226 97.3464 968.626 91.672C968.462 95.4542 967.39 99.1455 965.502 102.429C963.614 105.713 960.966 108.49 957.785 110.523C953.144 113.162 948.248 115.313 943.174 116.942L942.306 112.758Z" fill="#F0997A"/>
<path d="M996.693 41.4851C995.679 37.5186 993.304 34.0495 989.989 31.6903C989.478 31.3663 988.912 31.1416 988.318 31.0279C988.601 28.2129 988.313 25.373 987.472 22.6807C986.63 19.9885 985.253 17.5002 983.425 15.3673C981.596 13.2344 979.353 11.5014 976.833 10.2738C974.313 9.04617 971.568 8.34956 968.766 8.22633C965.603 8.1535 962.45 7.87233 959.327 7.3846C958.482 7.2181 957.666 6.92875 956.905 6.52563C954.68 5.32431 953.334 3.38982 950.795 1.919C945.161 -1.3413 936.871 0.118296 934.855 7.04114C930.826 3.39098 926.425 4.34074 921.528 6.58689C920.169 7.16589 918.975 8.08177 918.058 9.249C917.141 10.4162 916.531 11.7968 916.285 13.2617C916.05 14.7852 916.155 16.3401 916.592 17.8134C915.355 17.3206 914.028 17.0952 912.695 17.1516C911.363 17.208 910.056 17.545 908.858 18.1408C907.659 18.7367 906.597 19.5782 905.738 20.6111C904.879 21.644 904.244 22.8454 903.873 24.1379C903.772 24.5627 903.728 24.9988 903.742 25.4346C903.714 25.8992 903.71 26.3648 903.732 26.8294C904.332 29.184 904.187 31.6731 903.317 33.9497C903.064 34.4851 902.733 34.9797 902.335 35.4168C901.959 35.9089 901.485 36.3157 900.943 36.6104C900.401 36.9051 899.804 37.0811 899.191 37.1267C898.578 37.1723 897.963 37.0865 897.387 36.875C896.811 36.6635 896.287 36.331 895.849 35.8995C895.818 40.2796 898.103 43.2428 902.651 42.1219C902.074 43.4437 901.798 44.8772 901.842 46.317C901.886 47.7568 902.25 49.1663 902.907 50.4418C903.473 51.5318 904.262 52.4867 905.224 53.2429C906.186 53.9991 907.297 54.5393 908.485 54.8277C908.408 52.098 908.73 49.3692 909.441 46.7292C909.916 44.8455 910.439 43.0108 911.035 41.2007C914.189 42.1247 917.448 42.646 920.736 42.7523C932.806 43.3775 944.844 40.7461 955.608 35.1294C954.286 39.236 953.441 43.4805 953.089 47.7777C953.012 49.6755 953.353 51.5643 954.088 53.3083C954.823 55.0523 955.933 56.6081 957.339 57.8636C958.667 58.8438 958.458 60.9235 958.302 62.367C957.875 64.1451 957.723 65.9773 957.851 67.7988C957.896 68.0614 957.976 68.3165 958.088 68.5576C958.282 68.9652 958.567 69.3223 958.919 69.6017C959.271 69.8811 959.683 70.0756 960.122 70.1704C960.561 70.2651 961.017 70.2578 961.454 70.1487C961.891 70.0397 962.299 69.8319 962.646 69.5411C963.775 68.1693 964.613 66.5791 965.107 64.87C968.305 55.7461 977.2 54.4828 981.324 58.3778C985.448 62.2728 985.756 66.751 983.124 74.9212C981.361 80.4006 976.264 83.6009 972.072 82.3731C971.322 82.1464 970.618 81.7896 969.991 81.3187C970.021 83.2655 970.519 85.1732 971.441 86.8786C972.363 88.584 973.683 90.0365 975.287 91.1121C978.111 92.5332 981.342 92.9255 984.433 92.2227C985.135 89.0424 987.14 83.7589 988.96 77.0561C990.466 73.6564 991.995 70.3301 993.182 67.2726C993.578 66.2779 993.925 65.2995 994.223 64.3373C997.079 55.4577 998.388 48.8523 996.693 41.4851Z" fill="#B16668"/>
<path d="M989.811 116.49C1007.21 109.177 1021.52 117.794 1025.93 128.159C1033.36 145.639 1032.26 180.656 1032.26 180.656L990.675 121.109L989.811 116.49Z" fill="#37474F"/>
<path d="M1011.53 119.348C1022.74 124.688 1030.44 148.255 1031.58 165.291C1032.8 180.609 1032.73 196.011 1031.38 211.334C1030.61 222.64 1030.59 233.981 1031.33 245.28C1032.02 256.987 1033.85 275.49 1033.85 275.49C1033.85 275.49 1017.63 299.912 978.361 307.887C934.672 316.81 904.736 297.056 904.736 297.056C904.742 296.323 904.187 282.392 902.667 220.193C901.789 183.704 901.417 161.097 908.368 148.127C911.38 143.805 909.653 141.31 922.16 134.285C922.16 134.285 945.704 126.024 962.893 121.888C995.547 114.004 999.79 113.739 1011.53 119.348Z" fill="#455A64"/>
<path d="M877.895 670.39C877.895 670.39 879.111 670.391 879.857 674.867C880.603 679.344 883.399 693.167 882.516 700.937C874.264 708.601 857.742 709.444 848.25 706.951C834.071 703.248 825.064 707.763 812.289 708.439C799.515 709.114 779.523 705.381 777.117 694.927C774.711 684.473 785.543 679.935 792.532 678.787L821.34 674.168L877.895 670.39Z" fill="#263238"/>
<path d="M878.099 635.713C878.099 635.713 878.042 663.648 878.075 672.469C878.014 680.972 867.941 686.06 859.088 687.154C843.985 689.075 832.348 688.672 816.043 688.754C799.737 688.837 785.747 681.374 805.968 677.35C826.19 673.326 841.977 670.989 843.925 667.119C846.119 662.833 844.049 649.966 842.734 640.286L878.099 635.713Z" fill="#C8856A"/>
<path d="M812.342 709.209C813.139 714.43 813.158 719.747 812.398 724.983C810.988 728.416 804.474 731.574 801.552 732.332C793.272 734.287 792.279 733.77 779.074 734.444C775.493 734.526 771.926 734.941 768.417 735.685C757.166 738.373 748.454 743.025 738.076 742.745C722.52 742.362 711.227 737.494 705.761 730.178C704.861 726.549 705.127 722.718 706.521 719.237C708.699 713.965 715.529 710.709 720.497 709.438C733.918 705.821 740.498 703.595 750.684 700.195C756.094 698.293 761.38 696.045 766.51 693.464C770.951 691.236 773.847 687.362 778.93 687.048C784.013 686.735 788.838 688.579 793.667 689.761C798.496 690.944 804.173 692.568 809.367 693.677C811.14 693.949 809.793 695.321 812.342 709.209Z" fill="#263238"/>
<path d="M813.496 650.643C812.793 657.132 810.886 675.521 810.208 682.009C809.635 687.347 809.449 692.833 809.167 698.195C809.176 699.436 808.97 700.671 808.558 701.843C807.629 703.573 806.145 704.936 804.352 705.709C791.916 712.284 783.24 712.888 769.668 715.471C760.298 717.614 750.801 719.126 741.24 719.998C733.951 720.261 725.768 719.837 721.838 715.743C720.031 713.783 720.566 710.281 728.552 707.718C736.538 705.154 743.743 703.03 751.783 699.732C756.83 697.821 761.72 695.509 766.407 692.816C768.728 691.683 770.693 689.921 772.079 687.728C773.173 685.194 773.699 682.452 773.619 679.697C773.645 676.146 773.501 672.595 773.405 669.044C773.206 663.02 773.055 656.971 772.856 650.947C772.929 650.996 813.523 650.3 813.496 650.643Z" fill="#C8856A"/>
<path d="M820.25 518.699C822.593 528.632 823.728 538.825 823.629 549.052C822.566 569.488 821.828 574.81 819.485 598.784C815.865 635.845 811.716 672.759 811.716 672.759C809.289 674.758 806.86 676.856 789.793 677.619C783.867 677.622 778.018 676.342 772.637 673.866C772.637 673.866 765.559 614.062 762.733 587.445C757.963 542.391 755.341 483.764 754.155 437.005C752.985 391.296 753.672 325.592 753.672 325.592L875.095 310.75C875.095 310.75 887.969 332.739 884.885 372.559C881.801 412.379 875.359 496.634 874.62 502.127C873.881 507.62 881.896 524.11 881.496 552.945C881.097 581.781 877.928 646.995 877.928 646.995C877.928 646.995 862.742 658.04 841.718 648.495C838.074 624.783 820.25 518.699 820.25 518.699Z" fill="#455A64"/>
<path d="M830.289 391.874C830.289 391.874 845.878 389.451 863.808 371.534C863.808 371.534 862.142 386.737 835.975 398.763L826.33 518.776C829.992 533.789 832.158 560.271 829.665 573.764L823.402 536.002C823.006 530.172 822.041 524.399 820.523 518.769L830.289 391.874Z" fill="#37474F"/>
<path d="M1012.35 218.355C1011.81 215.905 1009.43 215.903 1007.51 215.901C1003.59 216.558 999.995 218.491 997.264 221.404C994.106 224.105 991.1 226.982 988.261 230.02C985.668 232.972 982.443 235.291 978.834 236.798C976.396 237.947 973.285 238.165 974.282 234.638C975.503 230.474 978.55 225.822 977.174 221.24C976.226 218.078 973.746 218.248 971.933 220.426C968.96 224.023 965.728 227.394 962.263 230.512C958.741 233.693 954.931 236.458 951.506 239.738C949.755 241.499 948.118 243.372 946.606 245.344C942.241 250.804 935.433 251.606 929.204 253.046C924.945 254.047 917.379 255.485 910.762 256.705C905.028 243.568 885.382 202.783 876.659 189.668C867.48 175.99 859.748 176.816 841.981 174.619L851.245 236.464C851.245 236.464 871.667 270.781 881.639 282.452C891.611 294.123 901.13 294.719 912.985 291.422C925.352 287.93 946.714 276.973 958.558 271.863C964.042 269.418 969.424 267.733 975.074 265.802C980.818 263.401 986.392 260.598 991.752 257.414C994.394 255.97 996.608 253.84 998.163 251.246C999.195 249.605 999.064 247.596 1000.02 246.029C1000.98 244.462 1002.91 243.851 1003.6 241.769C1004.3 239.687 1003.39 237.09 1004.21 235.057C1005.32 233 1006.29 230.873 1007.12 228.69C1007.4 226.778 1008.12 224.957 1009.23 223.375C1010.11 222.151 1012.84 220.536 1012.35 218.355Z" fill="#C8856A"/>
<path d="M760.265 100.277C758.737 98.3679 757.734 96.0856 757.356 93.6569C756.978 91.2282 757.238 88.7378 758.111 86.434C759.6 81.8381 763.032 76.8526 773.311 70.6261C785.491 63.3009 820.099 56.3624 838.564 78.1913C841.233 81.3237 810.621 148.299 813.046 161.628C803.652 152.89 772.525 121.562 772.525 121.562C765.413 119.11 761.09 116.661 759.246 110.253C758.536 106.909 758.893 103.418 760.265 100.277Z" fill="#263238"/>
<path d="M766.372 118.144C766.372 118.144 757.911 134.153 759.013 135.228C761.294 136.825 763.704 138.224 766.218 139.411L766.372 118.144Z" fill="#AF6152"/>
<path d="M776.628 89.406C770.514 92.8006 765.333 98.006 764.138 112.021C763.844 115.689 766.939 120.486 765.932 125.402C761.605 146.458 769.05 163.318 773.27 166.868C776.09 169.317 790.233 169.525 797.53 166.889C806.651 163.693 826.257 153.266 835.054 138.084C845.399 120.189 846.734 96.9529 833.671 88.4782C815.272 76.6477 783.157 85.7917 776.628 89.406Z" fill="#C8856A"/>
<path d="M774.039 144.105L774.041 143.86C774.041 143.86 774.042 143.615 773.897 143.59C773.751 143.566 773.678 143.59 773.605 143.737C772.325 145.16 770.76 146.294 769.015 147.062C768.589 147.185 768.207 147.432 767.917 147.771C767.838 147.882 767.789 148.013 767.777 148.15C767.765 148.286 767.789 148.423 767.848 148.546C767.907 148.669 767.998 148.773 768.111 148.848C768.224 148.923 768.356 148.965 768.491 148.971C768.977 148.985 769.46 148.885 769.902 148.678C770.194 148.575 770.472 148.435 770.73 148.263C771.322 147.894 771.871 147.459 772.367 146.967C772.826 146.632 773.212 146.204 773.5 145.711C773.788 145.218 773.972 144.671 774.039 144.105Z" fill="#AF6152"/>
<path d="M828.408 148.326L833.485 173.663C839.225 174.524 840.122 181.249 837.61 186.529L839.303 193.646L801.016 203.246L794.705 167.76L828.408 148.326Z" fill="#C8856A"/>
<path d="M774.08 167.164C777.474 168.818 784.816 169.638 794.585 167.702L793.72 162.773C790.66 164.161 787.495 165.295 784.257 166.164C780.928 167.001 777.499 167.338 774.08 167.164Z" fill="#AF6152"/>
<path d="M767.734 97.4609C767.886 106.489 778.188 108.137 782.205 109.707C780.869 113.116 780.506 116.828 781.155 120.422C782.311 124.949 784.25 128.572 788.803 129.824C791.589 130.56 792.326 129.313 793.168 127.063C794.38 123.883 795.848 119.04 802.493 119.536C810.085 120.105 812.72 131.435 808.732 139.114C807.971 140.749 806.83 142.177 805.406 143.275C803.982 144.373 802.318 145.108 800.556 145.419C799.574 145.462 798.596 145.295 797.687 144.927C796.777 144.559 795.957 144 795.281 143.286C796.4 147.232 798.409 150.859 801.152 153.883C803.896 156.907 807.299 159.247 811.097 160.72C811.097 160.72 818.147 165.619 831.116 160.933C836.699 153.921 841.921 146.625 846.76 139.074C859.534 117.922 860.245 80.6611 836.185 75.453C835.022 75.2073 813.387 73.549 803.052 76.5002C771.413 85.647 767.721 95.8951 767.734 97.4609Z" fill="#263238"/>
<path d="M824.807 73.9563C822.091 76.1991 820.329 79.4043 819.887 82.9068C819.68 84.6561 819.935 86.4265 820.627 88.0384C821.318 89.6503 822.421 91.0465 823.824 92.0853C831.069 96.985 841.409 90.0945 842.221 81.9723C843.092 72.4066 831.449 68.3104 824.807 73.9563Z" fill="#27A0F7"/>
<path d="M830.828 76.6269C824.005 81.5105 820.195 91.9709 824.36 99.1623C825.509 101.119 827.048 102.832 828.027 104.886C831.13 111.466 827.559 119.164 827.117 126.473C826.852 132.262 828.159 138.003 830.899 143.077C833.441 146.747 838.673 147.411 840.947 151.325C842.527 154.016 841.751 157.438 842.455 160.494C844.032 167.048 851.963 169.744 858.68 169.481C864.379 169.242 870.428 167.414 873.832 162.796C875.248 160.267 876.804 157.82 878.492 155.466C882.254 151.435 888.729 151.221 892.828 147.533C894.373 145.976 895.543 144.084 896.248 142.002C896.952 139.921 897.173 137.707 896.892 135.533C896.305 131.186 894.948 126.987 892.886 123.134C889.639 116.261 891.685 111.764 892.755 104.651C893.217 100.806 892.374 96.9259 890.364 93.6429C888.354 90.3598 885.296 87.8679 881.688 86.5738C876.706 84.9558 870.81 85.6595 866.688 82.3798C864.471 80.6175 863.158 77.9026 861.112 75.9205C853.241 68.2612 838.821 70.9865 830.828 76.6269Z" fill="#263238"/>
<path d="M865.374 192.401C861.286 181.249 849.471 175.958 845.938 175.148C842.404 174.338 833.829 173.426 833.829 173.426C836.052 177.828 832.901 181.004 827.168 182.71C819.879 184.953 808.454 185.872 800.513 181.17L797.229 179.383C797.229 179.383 778.057 185.624 772.678 188.529C771.047 189.432 759.079 191.768 746.272 225.838C740.782 240.502 740.253 256.49 752.329 265.987C753.475 274.936 752.113 295.324 752.113 295.324C751.227 323.659 750.428 346.664 750.428 346.664C750.428 346.664 763.547 362.542 818.202 360.611C870.336 358.775 884.124 336.392 884.124 336.392C883.037 325.952 869.405 293.937 870.32 281.592C871.689 263.502 877.875 226.493 865.374 192.401Z" fill="#27A0F7"/>
<path d="M719.841 740.138C720.119 740.284 720.333 740.528 720.444 740.824C720.674 741.523 721.032 742.171 721.499 742.735C722.184 745.335 721.815 748.109 720.473 750.447C718.964 752.509 716.996 754.185 714.729 755.339C710.729 757.469 706.271 758.557 701.759 758.506C697.248 758.454 692.829 757.263 688.906 755.042C687.012 753.824 685.339 752.291 683.957 750.506C682.655 748.903 681.183 747.448 679.567 746.168C678.124 745.087 676.586 744.143 674.971 743.347C670.785 740.893 666.01 739.395 662.218 736.232C658.089 733.11 655.175 728.631 653.975 723.563C652.982 719.655 652.821 715.574 653.502 711.588C653.829 709.973 654.571 708.063 656.152 707.796C657.734 707.528 658.914 708.95 659.876 710.248C666.567 719.527 674.983 727.402 684.662 733.44C693.919 739.094 704.807 741.451 715.59 740.133C716.66 739.987 718.802 739.402 719.841 740.138Z" fill="#263238"/>
<path d="M705.715 755.121C700.443 756.061 695.022 755.148 690.36 752.535C687.873 750.949 685.537 749.136 683.38 747.118C679.633 743.653 675.488 740.649 671.033 738.172C668.976 737.117 666.773 736.234 664.814 734.983C659.276 731.175 655.475 725.301 654.245 718.647C653.471 715.565 653.411 712.341 654.069 709.224C655.818 702.25 662.768 698.341 669.543 698.422C672.512 698.561 675.435 699.184 678.2 700.267C679.821 700.821 681.392 701.511 682.897 702.328C684.058 702.965 685.17 703.75 686.38 704.314C688.964 705.348 691.76 705.737 694.533 705.448C698.807 705.453 703.083 705.188 707.358 705.168C710.539 705.172 715.647 704.076 717.225 707.626C717.783 709.25 717.994 710.977 717.845 712.694C717.813 715.351 717.94 718.008 718.225 720.648C718.578 723.19 719.079 725.708 719.726 728.188C720.749 732.67 721.327 737.246 721.45 741.848C721.716 743.66 721.413 745.513 720.583 747.15C719.752 748.786 718.436 750.122 716.819 750.972C713.478 753.194 709.678 754.614 705.715 755.121Z" fill="#37474F"/>
<path d="M663.62 734.215C662.918 730.571 665.267 717.541 671.914 710.75C675.311 706.979 679.685 704.239 684.537 702.841C684.537 702.841 676.618 697.429 668.778 697.934C660.938 698.439 654.187 702.809 653.475 710.853C652.763 718.897 654.731 728.63 663.62 734.215Z" fill="#263238"/>
<path d="M717.7 658.997C717.7 658.997 716.153 702.673 716.186 711.619C716.159 715.432 707.904 720.507 695.684 720.665C687.101 720.778 681.167 716.445 680.057 712.362C678.946 708.279 672.985 663.471 672.985 663.471L717.7 658.997Z" fill="#FFA8A7"/>
<path d="M626.281 757.192C626.548 757.361 626.744 757.622 626.834 757.927C627 758.64 627.3 759.314 627.719 759.911C627.964 761.22 627.949 762.568 627.672 763.874C627.396 765.181 626.865 766.421 626.11 767.521C624.454 769.455 622.371 770.971 620.031 771.945C615.88 773.758 611.35 774.497 606.856 774.095C602.361 773.692 598.046 772.161 594.302 769.642C592.518 768.274 590.971 766.618 589.722 764.741C588.555 763.038 587.206 761.468 585.699 760.062C584.334 758.884 582.87 757.826 581.326 756.899C577.362 754.08 572.712 752.264 569.239 748.809C565.381 745.368 562.839 740.675 562.047 735.534C561.356 731.563 561.51 727.483 562.497 723.565C562.945 721.95 563.833 720.14 565.437 719.97C567.041 719.8 568.099 721.344 568.964 722.666C574.911 732.441 582.685 740.953 591.859 747.731C600.61 754.075 611.228 757.282 622.033 756.845C623.126 756.846 625.218 756.457 626.281 757.192Z" fill="#263238"/>
<path d="M611.052 771.115C605.727 771.627 600.399 770.292 595.952 767.331C593.597 765.551 591.409 763.558 589.414 761.378C585.948 757.664 582.059 754.375 577.829 751.578C575.822 750.352 573.717 749.298 571.857 747.901C566.629 743.664 563.294 737.501 562.583 730.763C562.068 727.623 562.265 724.403 563.16 721.343C565.418 714.518 572.653 711.174 579.399 711.793C582.34 712.15 585.203 712.979 587.88 714.249C589.455 714.934 590.968 715.754 592.403 716.7C593.514 717.436 594.577 718.293 595.713 718.955C598.205 720.183 600.957 720.79 603.738 720.725C608.009 720.999 612.282 721.15 616.553 721.448C619.732 721.672 624.884 721.017 626.242 724.762C626.633 726.464 626.661 728.232 626.326 729.95C625.783 735.156 626.016 740.41 627.016 745.537C627.684 750.094 627.903 754.708 627.671 759.314C627.794 761.142 627.346 762.967 626.39 764.532C625.434 766.098 624.018 767.326 622.34 768.044C618.854 769.922 614.993 770.973 611.052 771.115Z" fill="#37474F"/>
<path d="M570.733 747C570.322 743.307 573.665 730.496 580.819 724.244C584.49 720.747 589.055 718.354 593.995 717.337C593.995 717.337 586.516 711.338 578.679 711.256C570.842 711.175 563.73 714.908 562.411 722.928C561.093 730.948 562.285 740.682 570.733 747Z" fill="#263238"/>
<path d="M630.463 676.308C630.463 676.308 625.572 719.74 624.902 728.661C624.608 732.474 615.969 736.865 603.754 735.972C595.199 735.4 589.752 730.652 588.836 726.472C587.92 722.291 585.549 677.238 585.549 677.238L630.463 676.308Z" fill="#FFA8A7"/>
<path d="M586.151 701.97L587.829 715.621C587.829 715.621 591.877 720.904 607.565 720.553C623.252 720.202 626.741 715.173 626.741 715.173L628.041 703.318L586.151 701.97Z" fill="#263238"/>
<path d="M674.829 687.018L677.422 698.552C677.422 698.552 685.289 703.467 699.014 701.838C712.738 700.21 717.144 696.019 717.144 696.019L718.371 680.736L674.829 687.018Z" fill="#263238"/>
<path d="M720.845 589.967C720.89 575.124 719.749 560.308 717.434 545.664C717.434 545.664 716.646 461.876 718.217 434.6C719.787 407.324 716.254 370.006 716.254 370.006L580.77 368.56C580.77 368.56 576.452 425.528 575.845 480.889C575.459 515.077 575.894 580.207 577.351 630.76C578.458 669.297 579.289 698.822 586.054 702.786C586.054 702.786 591.712 709.459 607.013 709.623C614.126 709.968 621.181 708.055 627.188 704.15C636.225 697.86 636.244 664.38 636.969 640.399C637.225 631.437 651.864 529.962 651.864 529.962C654.1 555.777 653.435 564.299 658.394 608.408C660.851 630.243 666.318 660.677 667.849 669.861C669.379 679.044 670.443 685.957 675.307 688.624C682.218 692.393 707.855 690.663 716.431 684.641C720.391 681.861 720.517 674.193 720.787 656.464C720.782 650.31 720.79 614.827 720.845 589.967Z" fill="#37474F"/>
<path d="M651.957 529.669L663.044 444.87C663.044 444.87 678.031 443.935 698.727 427.017C698.727 427.017 696.579 441.003 669.776 451.543L656.998 533.19L654.564 567.366C653.665 554.523 652.625 541.144 651.957 529.669Z" fill="#263238"/>
<path d="M688.234 206.902C705.4 208.316 714.987 210.917 723.898 227.388C726.567 232.415 728.907 237.614 730.904 242.952C732.734 247.838 733.258 252.552 734.676 257.437C738.061 268.969 740.409 280.789 741.693 292.757C742.213 296.343 742.188 299.99 741.619 303.575C739.516 313.999 730.742 323.536 724.203 331.659C719.835 337.123 715.395 342.563 711.413 348.32C708.798 352.102 703.415 357.54 698.166 357.485C696.991 357.434 695.837 357.168 694.76 356.699C686.246 353.024 679.398 346.291 675.535 337.798C675.288 337.374 675.143 336.897 675.109 336.405C675.161 335.676 675.446 334.982 675.921 334.428L696.348 304.761C697.753 303.022 698.729 300.972 699.195 298.782C699.284 297.478 699.178 296.169 698.883 294.899C697.59 287.832 695.86 280.857 693.703 274.014C692.59 270.496 691.331 267.027 690.024 263.557C688.781 261.051 687.84 258.402 687.224 255.666L688.234 206.902Z" fill="#455A64"/>
<path d="M635.897 199.379L638.602 235.198L683.09 226.118L677.845 188.952L635.897 199.379Z" fill="#FFA8A7"/>
<path d="M611.639 140.473C607.484 147.838 603.928 155.528 601.006 163.468L611.42 167.826C613.383 157.033 614.494 146.997 611.639 140.473Z" fill="#F28F8F"/>
<path d="M630.834 109.32C617.407 109.967 605.677 124.656 611.493 146.163C611.418 149.675 611.052 153.176 610.399 156.63C607.836 175.634 610.63 192.221 614.386 196.358C618.965 199.019 624.032 200.724 629.289 201.372C634.545 202.02 639.883 201.599 644.988 200.132C654.275 197.867 677.792 191.213 688.043 176.523C700.083 159.242 703.918 135.446 692.026 125.307C675.26 111.029 638.239 108.961 630.834 109.32Z" fill="#FFA8A7"/>
<path d="M614.404 196.119C616.48 198.41 628.267 203.665 635.935 202.96L635.702 198.038C628.539 198.717 621.321 198.067 614.404 196.119Z" fill="#F28F8F"/>
<path d="M625.788 159.658C625.963 160.114 626.272 160.506 626.672 160.782C627.073 161.059 627.547 161.207 628.034 161.207C628.521 161.208 628.997 161.061 629.402 160.785C629.806 160.51 630.12 160.119 630.302 159.663C631.388 157.394 632.722 155.254 634.28 153.282C636.284 151 639.055 149.547 642.052 149.205C653.248 148.311 652.751 163.428 648.073 169.417C640.405 179.194 634.602 172.705 634.602 172.705C634.602 172.705 632.594 188.702 643.177 195.537C643.177 195.537 665.773 199.083 677.83 193.127C684.537 183.838 690.663 174.138 696.17 164.084C708.108 140.784 705.029 120.062 694.501 115.721C693.924 108.21 688.271 97.6859 672.183 93.6821C656.822 89.8257 647.268 91.9441 636.936 94.184C626.605 96.4239 614.493 103.236 603.594 96.5959C602.847 99.7209 602.849 102.975 603.599 106.09C604.349 109.205 605.826 112.09 607.907 114.507C606.244 114.057 604.469 114.279 602.959 115.126C601.448 115.972 600.32 117.377 599.816 119.042C599.311 120.706 599.469 122.5 600.255 124.041C601.042 125.582 602.396 126.75 604.029 127.296C603.078 128.054 602.416 129.12 602.155 130.311C601.894 131.501 602.051 132.744 602.599 133.826C603.196 134.878 604.08 135.734 605.147 136.294C606.213 136.854 607.418 137.095 608.62 136.988C610.834 136.775 613.014 136.284 615.111 135.527C615.196 140.664 621.74 145.319 627.405 144.028C627.235 144.028 626.667 145.348 626.593 145.52C626.328 146.05 626.097 146.597 625.902 147.158C625.503 148.261 625.21 149.399 625.028 150.557C624.638 152.892 624.712 155.278 625.244 157.578C625.299 158.3 625.483 159.004 625.788 159.658Z" fill="#263238"/>
<path d="M701.381 211.462C712.459 217.901 720.572 239.098 719.525 256.694C718.815 267.837 716.157 297.333 715.132 322.015C714.784 330.104 718.44 391.548 718.44 391.548C718.44 391.548 699.757 411.643 655.094 414.578C602.502 418.042 576.14 403.62 576.14 403.62C576.14 403.62 578.135 351.566 579.979 317.353C582.765 266.62 587.524 251.839 595.669 234.643C598.371 229.562 599.564 225.482 607.875 222.289L637.303 214.695C651.234 215.271 674.033 212.9 680.664 207.408L680.413 205.159C692.354 206.271 694.526 207.496 701.381 211.462Z" fill="#F0F0F0"/>
<path d="M476.685 760.178C476.415 760.341 476.208 760.591 476.097 760.888C475.648 762.617 475.585 764.424 475.913 766.176C476.021 768.061 476.761 769.848 478.013 771.246C479.444 772.668 481.146 773.786 483.017 774.531C487.144 776.515 491.699 777.441 496.279 777.227C500.859 777.014 505.324 775.668 509.28 773.308C511.056 772.235 512.622 770.842 513.9 769.199C515.121 767.347 516.456 765.574 517.897 763.89C519.021 762.731 520.266 761.698 521.611 760.809C525.662 758.071 530.362 756.337 534.03 752.962C538.01 749.608 540.722 744.972 541.702 739.847C542.497 735.881 542.477 731.798 541.643 727.85C541.242 726.259 540.405 724.397 538.828 724.224C537.251 724.051 536.098 725.544 535.215 726.84C528.935 736.479 520.885 744.824 511.503 751.423C502.531 757.642 491.769 760.666 480.936 760.011C479.844 759.912 477.759 759.445 476.685 760.178Z" fill="#37474F"/>
<path d="M491.119 773.328C496.555 773.725 501.846 774.097 506.604 770.895C509.026 769.171 511.284 767.223 513.348 765.077C516.929 761.402 520.93 758.168 525.266 755.445C527.29 754.248 529.434 753.246 531.362 751.902C536.716 747.76 540.249 741.67 541.197 734.951C541.834 731.836 541.749 728.619 540.95 725.552C538.887 718.672 531.774 715.166 525.02 715.747C522.057 716.095 519.166 716.919 516.455 718.186C514.862 718.836 513.322 719.612 511.849 720.506C510.727 721.24 509.653 722.071 508.458 722.706C505.929 723.884 503.161 724.435 500.386 724.314C494.143 724.577 487.855 724.595 481.634 725.177C478.452 725.467 479.003 729.849 478.937 732.174C478.872 734.499 478.801 734.23 478.738 736.236C478.208 740.371 477.367 744.462 476.221 748.471C475.388 753.009 475.013 757.617 475.102 762.225C475.002 763.964 475.431 765.688 476.331 767.167C477.232 768.646 478.561 769.81 480.141 770.503C483.538 772.264 487.291 773.23 491.119 773.328Z" fill="#455A64"/>
<path d="M538.714 743.012C538.783 733.467 524.694 720.971 510.702 721.814C513.431 717.216 522.704 714.141 530.364 715.812C538.025 717.484 547.099 725.055 538.714 743.012Z" fill="#FAFAFA"/>
<path d="M474.965 673.213L480.28 729.44C480.252 733.228 488.266 737.978 499.782 737.672C507.88 737.435 513.221 732.918 514.269 728.788C515.317 724.658 521.645 674.114 521.645 674.114L474.965 673.213Z" fill="#FFC4C3"/>
<path d="M367.651 681.532L378.157 637L418.999 652.172L390.912 703.753L367.651 681.532Z" fill="#FFC4C3"/>
<path d="M352.702 693.366C352.106 697.187 352.226 701.081 353.055 704.848C353.488 708.659 353.969 712.397 354.207 716.232C354.297 718.556 354.572 720.868 355.028 723.146C355.367 725.916 355.428 728.714 355.21 731.5C355.189 734.431 355.168 737.338 355.147 740.269C355.284 741.511 355.275 742.765 355.12 744.007C354.797 745.228 373.25 756.239 380.695 760.423C381.129 760.668 381.563 760.864 382.045 761.109C384.134 761.847 386.39 761.978 388.557 761.488C390.724 760.998 392.716 759.906 394.307 758.336C395.917 754.444 396.332 750.161 395.499 746.043C394.665 741.925 392.622 738.163 389.634 735.248C389.634 735.248 388.691 735.247 388.985 727.919C389.023 722.642 389.231 717.269 389.826 712.017C390.188 708.696 391.551 707.647 392.855 704.57C394.159 701.494 396.259 698.833 396.185 695.682C395.689 692.679 394.599 689.812 392.979 687.251C390.305 682.363 384.357 678.497 379.535 676.245C376.786 674.972 372.296 673.551 369.429 675.258C367.898 676.185 367.135 677.992 366.012 679.407C364.6 680.983 362.958 682.332 361.145 683.409C357.534 685.476 354.682 688.672 353.023 692.512C352.876 692.756 352.777 693.073 352.702 693.366Z" fill="#455A64"/>
<path d="M389.9 735.265C390.8 736.385 391.603 737.58 392.3 738.838C395.519 744.811 396.337 751.814 394.585 758.407C407.792 757.344 411.39 749.692 411.39 749.692C411.39 749.692 412.239 743.065 404.728 738.166C403.822 737.571 402.869 737.055 401.876 736.622L401.731 736.622C398.034 734.93 393.895 734.455 389.9 735.265Z" fill="#FAFAFA"/>
<path d="M349.563 695.368C346.095 696.683 346.824 706.283 348.862 715.542C350.899 724.801 352.037 728.027 350.797 735.695C349.557 743.363 348.855 746.782 351.905 749.642C354.956 752.503 379.44 764.325 379.44 764.325C376.224 755.04 374.522 745.28 374.4 735.425C374.039 718.328 373.078 707.433 365.396 699.61C363.477 697.399 360.949 695.816 358.131 695.061C355.313 694.306 352.331 694.413 349.563 695.368Z" fill="#263238"/>
<path d="M411.272 749.657C405.167 754.291 398.027 757.334 390.492 758.514C379.422 759.677 378.944 755.397 377.997 742.191C377.049 728.985 376.914 710.743 371.903 702.668C366.892 694.593 358.258 690.941 354.857 691.721C354.156 691.353 350.742 693.844 349.591 695.384C352.276 695.291 354.946 695.777 357.423 696.808C359.9 697.839 362.127 699.393 363.956 701.364C370.747 708.242 371.759 722.598 371.859 735.607C371.959 748.617 372.286 763.754 382.558 765.451C387.559 766.047 392.635 765.619 397.481 764.19C402.326 762.762 406.842 760.364 410.757 757.14C414.758 753.916 411.272 749.657 411.272 749.657Z" fill="#37474F"/>
<path d="M389.117 730.398C389.512 730.685 389.847 731.049 390.102 731.469C390.356 731.888 390.526 732.355 390.6 732.842C390.635 734.218 390.294 735.578 389.615 736.776C388.936 737.973 387.945 738.961 386.75 739.631C385.341 740.411 384.157 740.093 386.452 737.358C387.93 735.311 388.849 732.91 389.117 730.398Z" fill="#FAFAFA"/>
<path d="M389.442 721.25C389.974 721.785 390.296 722.497 390.348 723.255C389.765 726.144 388.097 728.7 385.693 730.386C383.263 731.459 384.615 728.772 385.714 727.527C387.112 725.532 388.358 723.434 389.442 721.25Z" fill="#FAFAFA"/>
<path d="M390.21 711.176C390.508 711.344 390.763 711.58 390.955 711.865C391.147 712.149 391.27 712.476 391.315 712.818C391.307 713.895 386.422 717.71 384.772 717.463C383.122 717.217 382.858 716.825 384.786 715.505C386.715 714.184 390.21 711.176 390.21 711.176Z" fill="#FAFAFA"/>
<path d="M407.031 677.214C407.031 677.214 415.428 662.568 440.035 612.428C453.381 585.332 457.253 571.219 459.453 561.159C461.652 551.099 462.892 523.184 462.892 523.184L468.722 573.233C466.427 586.493 462.805 612.769 466.648 639.834C471.365 673.225 476.367 713.944 476.367 713.944C479.083 716.071 489.44 718.011 496.551 717.506C514.305 716.205 517.645 708.954 517.645 708.954C517.645 708.954 526.756 638.625 529.17 615.498C534.806 561.113 536.421 548.293 540.11 485.626C543.223 432.582 538.793 399.704 524.824 351.991C486.021 369.194 433.976 365.332 412.77 345.722C412.77 345.722 390.882 384.118 390.951 421.632C391.032 460.905 394.717 550.445 394.717 550.445C385.808 569.095 382.516 586.408 379.188 608.898C376.215 629.044 372.626 657.518 372.626 657.518C394.604 657.15 407.031 677.214 407.031 677.214Z" fill="#37474F"/>
<path d="M516.926 414.772C515.333 395.799 511.572 377.098 505.722 359.061C506.715 358.818 507.708 358.552 508.678 358.26C515.317 376.342 519.514 395.294 521.152 414.584C530.419 412.5 532.348 398.988 532.189 390.864C532.003 386.026 531.498 381.208 530.678 376.445C530.18 373.175 529.423 369.758 528.902 366.367C531.413 375.909 533.502 384.987 535.238 393.845C535.236 394.211 535.233 394.577 535.231 394.943C534.608 403.676 530.729 415.745 521.462 417.853C523.089 436.152 523.322 454.717 523.463 472.99C523.68 521.927 521.913 570.836 518.165 619.718C516.437 642.135 510.981 693.356 507.767 715.673C506.537 716.037 505.166 716.376 503.63 716.667C505.362 697.153 511.552 649.153 513.143 629.615C515.125 605.516 516.612 581.367 517.604 557.168C518.649 532.043 519.182 506.9 519.204 481.741C519.137 459.419 519 436.975 516.926 414.772Z" fill="#263238"/>
<path d="M524.639 352.297L521.783 333.226C521.783 333.226 496.287 347.273 466.212 345.126C448.274 343.844 431.08 337.511 416.572 326.843L411.887 345.881C411.887 345.881 424.376 364.962 466.193 364.809C508.009 364.656 524.639 352.297 524.639 352.297Z" fill="#263238"/>
<path d="M462.577 523.135L453.529 439.436C453.529 439.436 439.782 440.227 418.92 421.187C418.92 421.187 422.036 437.181 444.618 448.362L456.16 520.296L459.149 561.167C461.159 548.58 462.304 535.872 462.577 523.135Z" fill="#263238"/>
<path d="M430.193 213.128C413.189 213.112 404.605 214.402 388.111 237.803L356.766 282.302C356.766 282.302 320.998 267.28 312.446 260.953C303.893 254.626 307.825 251.74 305.024 239.417C302.67 229.275 305.472 224.722 303.186 221.781C301.334 219.33 295.728 221.921 295.219 234.951C295.204 237.082 294.993 242.715 291.739 242.565C289.018 242.562 287.517 238.544 286.73 236.56C282.865 227.004 285.378 215.593 279.662 206.672C279.23 205.851 278.568 205.177 277.757 204.735C277.352 204.538 276.892 204.484 276.451 204.581C276.01 204.678 275.613 204.921 275.324 205.272C275.146 205.626 275.029 206.006 274.975 206.398C274.16 211.615 275.043 217.028 273.985 222.195C273.18 226.04 271.355 229.761 271.764 233.656C271.923 235.199 272.446 236.694 272.483 238.261C272.273 240.417 271.859 242.549 271.247 244.628C270.383 249.795 273.6 254.917 275.461 259.499C277.551 264.379 280.314 268.933 283.67 273.027C285.018 274.693 297.245 283.448 300.58 285.778C308.482 291.443 330.529 305.987 345.985 314.966C359.844 323.012 366.052 324.512 377.578 312.937C392.504 298.059 409.406 278.676 409.406 278.676L430.193 213.128Z" fill="#FFC4C3"/>
<path d="M521.534 151.513C521.534 151.513 529.446 168.246 528.16 169.392C526.023 170.394 523.733 171.011 521.392 171.216L521.534 151.513Z" fill="#FFA8A7"/>
<path d="M503.49 110.687C509.883 115.29 521.411 120.827 523.682 141.81C524.092 145.429 521.896 150.587 521.742 155.037C521.584 160.05 522.828 165.822 522.338 169.71C519.762 190.322 512.605 197.358 508.558 200.191C505.316 202.462 490.556 201.226 483.305 197.723C474.219 193.362 455.108 180.115 447.861 162.893C439.327 142.638 440.795 117.575 455.524 109.885C476.072 99.0953 497.145 106.133 503.49 110.687Z" fill="#FFC4C3"/>
<path d="M519.158 179.888C518.819 179.667 518.432 179.569 518.069 179.373L517.947 179.373L517.778 179.25C517.63 179.169 517.492 179.07 517.368 178.956L517.054 178.686L516.837 178.466C516.572 178.196 516.38 177.854 516.115 177.584C516.003 177.456 515.858 177.361 515.696 177.309C515.534 177.257 515.361 177.25 515.195 177.289C515.055 177.34 514.937 177.439 514.865 177.57C514.792 177.701 514.77 177.853 514.801 177.999L514.799 178.293C514.797 178.513 515.038 178.709 515.158 178.93C515.262 179.098 515.374 179.262 515.495 179.419C516.081 180.119 516.793 180.701 517.595 181.135C518.051 181.411 518.565 181.578 519.096 181.626C519.183 181.636 519.271 181.628 519.355 181.602C519.439 181.577 519.516 181.534 519.583 181.476C519.649 181.419 519.704 181.348 519.742 181.268C519.78 181.189 519.802 181.102 519.805 181.014C519.817 180.783 519.762 180.553 519.647 180.353C519.532 180.154 519.362 179.992 519.158 179.888Z" fill="#FFA8A7"/>
<path d="M507.95 200.596C504.219 201.994 494.35 201.32 487.24 199.151L486.508 192.834C490.039 194.92 493.716 196.747 497.509 198.3C500.846 199.612 504.369 200.387 507.95 200.596Z" fill="#F28F8F"/>
<path d="M515.905 103.051C516.56 103.266 517.199 103.528 517.816 103.836C521.147 105.648 523.984 108.253 526.083 111.427C529.208 116.248 530.854 121.898 530.817 127.675C531.049 131.33 530.094 134.97 528.097 138.045C525.654 140.961 522.358 143.023 518.687 143.932C519.762 142.251 520.341 140.3 520.355 138.307C520.37 136.313 519.82 134.361 518.769 132.679C518.737 137.082 518.065 142.708 515.203 145.812C512.924 148.338 509.897 150.052 506.578 150.697C507.433 153.505 507.334 156.526 506.296 159.283C506.05 160.097 505.582 160.825 504.946 161.386C503.116 162.828 501.407 160.869 500.545 159.351C499.97 158.323 499.542 157.222 498.991 156.17C498.393 154.683 497.462 153.357 496.27 152.295C495.078 151.234 493.658 150.465 492.12 150.048C490.449 149.643 488.693 149.739 487.068 150.324C485.444 150.91 484.02 151.958 482.972 153.342C481.814 155.641 481.155 158.159 481.04 160.729C480.925 163.298 481.357 165.859 482.305 168.24C484.143 172.449 486.744 175.118 489.7 175.732C490.874 175.975 492.089 175.948 493.255 175.653C494.421 175.357 495.508 174.801 496.434 174.026C496.434 174.026 490.952 190.338 476.539 193.578C476.539 193.578 460.924 195.301 448.382 188.171C446.98 187.387 445.317 182.517 444.431 181.024C442.753 178.185 440.978 175.37 439.203 172.555C436.52 167.965 434.304 163.111 432.587 158.067C428.348 147.104 428.68 134.97 431.168 123.255C433.027 114.499 441.001 105.846 441.001 105.846C444.23 102.326 446.296 98.5118 450.393 95.7511C454.358 93.0223 458.781 91.0448 463.442 89.9162C473.493 87.499 483.995 87.9575 493.764 91.2401C499.363 93.0403 504.629 95.7466 509.357 99.2536C511.149 101.076 513.434 102.327 515.93 102.856L515.905 103.051Z" fill="#F0997A"/>
<path d="M413.579 230.208C417.885 218.668 422.523 211.286 444.695 214.51L447.797 214.904C455.618 216.843 466.667 218.59 486.895 222.277C489.316 222.988 506.273 226.109 510.172 227.067C510.172 227.067 528.136 235.178 531.295 277.492C532.134 288.816 527.733 343.278 527.733 343.278C527.733 343.278 504.308 362.04 457.941 356.862C418.313 352.448 407.162 334.804 404.055 328.443C404.055 328.443 406.685 317.048 408.818 300.762C408.437 276.573 400.986 263.898 413.579 230.208Z" fill="#27A0F7"/>
<path d="M441.687 105.407C441.687 105.407 424.735 105.66 420.503 134.71C417.959 151.544 419.346 173.806 414.206 194.694C411.707 205.272 408.149 215.092 408.359 226.137C408.537 237.303 411.488 248.228 416.941 257.911C418.432 252.659 419.899 247.407 421.391 242.155C419.967 249.514 421.227 257.127 424.939 263.588C428.649 269.984 433.376 275.717 438.932 280.559C439.964 275.238 441.502 270.027 443.526 264.998C445.143 268.801 445.747 272.971 445.278 277.095C449.972 274.82 453.907 271.203 456.589 266.696C456.568 269.506 456.548 272.316 456.649 275.126C456.614 275.577 456.711 276.028 456.93 276.422C457.433 277.106 458.451 276.985 459.349 276.766C469.052 274.331 493.869 248.159 498.926 225.488L513.117 228.531C513.117 228.531 515.088 223.988 509.035 213.866C502.983 203.744 498.704 199.488 496.711 173.951C491.449 181.546 477.235 188.252 469.042 179.448C460.849 170.644 441.687 105.407 441.687 105.407Z" fill="#F0997A"/>
<path d="M568.687 348.162C574.653 346.205 579.127 339.271 587.911 321.456C598.865 299.255 604.709 294.307 612.825 271.565C619.633 254.926 612.713 229.134 605.64 223.394C589.718 228.09 580.431 235.438 571.179 254.208C562.888 271.067 550.55 296.356 543.003 311.328C535.85 312.827 528.673 314.268 521.473 315.652C515.553 316.793 509.634 317.884 503.716 318.926C497.441 319.976 491.016 321.516 485.039 318.546C482.902 317.589 480.881 316.387 479.019 314.963C476.871 313.148 474.844 311.284 472.525 309.689C468.021 306.514 463.071 304.033 457.837 302.326C457.464 302.161 457.053 302.101 456.648 302.153C454.872 302.569 455.382 305.682 455.957 306.786C457.799 310.39 461.594 312.917 464.316 315.861C464.822 316.425 465.399 317.209 465.053 317.896C464.708 318.582 463.979 318.63 463.323 318.654C458.659 318.651 454.452 316.197 450.61 313.449C446.769 310.702 442.758 308.027 438.121 307.656C436.252 307.484 434.38 307.654 432.56 307.481C430.764 307.007 428.942 306.637 427.103 306.375C426.174 306.27 425.237 306.497 424.452 307.016C423.667 307.535 423.085 308.313 422.806 309.215C422.499 311.274 424.55 313.016 424.632 315.099C424.62 316.546 423.736 317.893 423.579 319.339C423.291 322.06 425.63 324.243 427.071 326.499C428.054 328.093 428.648 329.907 429.681 331.403C431.036 333.175 432.664 334.715 434.504 335.966C436.918 337.904 439.478 339.866 442.137 341.56C444.796 343.253 447.554 344.627 450.337 346.002C464.155 352.776 479.894 352.884 494.984 352.257C503.172 351.894 511.384 351.605 519.597 351.268C529.705 350.833 539.838 350.398 549.947 349.817C556.163 349.803 562.369 349.233 568.493 348.113L568.687 348.162Z" fill="#FFA8A7"/>
<path d="M606.754 221.794C595.315 224.868 579.185 229.748 569.919 249.723C562.204 266.616 542.267 309.767 542.267 309.767L518.514 316.38C516.552 319.197 515.186 322.389 514.501 325.755C513.816 329.122 513.828 332.59 514.535 335.941C516.654 347.241 521.535 352.356 521.535 352.356C521.535 352.356 533.776 352.094 554.623 351.521C575.471 350.948 577.035 346.082 581.734 336.865C586.434 327.649 615.259 272.765 615.259 272.765C615.259 272.765 624.949 238.386 606.754 221.794Z" fill="#455A64"/>
<path d="M779.161 197.633C776.915 193.054 769.993 187.616 769.993 187.616C740.56 200.179 742.577 225.05 741.885 248.793C741.194 272.537 738.731 299.363 738.731 299.363C727.854 305.507 716.443 310.621 704.643 314.641C697.346 316.864 692.144 318.035 685.077 315.632C682.657 314.774 680.41 313.548 677.819 312.837C673.146 311.512 668.445 310.652 663.769 309.768C659.233 308.818 654.761 307.589 650.378 306.088C647.715 305.254 645.523 306.354 646.153 309.561C647.089 314.115 651.875 316.541 654.714 319.676C657.12 322.346 654.368 323.666 651.673 323.909C647.788 324.441 643.84 324.113 640.106 322.947C636.121 321.803 632.078 320.869 627.995 320.149C624.147 319.104 620.063 319.307 616.319 320.729C614.249 321.658 612.662 322.93 613.007 325.329C613.123 326.137 613.943 326.676 614.451 326.97C614.826 327.166 615.224 327.314 615.636 327.411L616.532 327.632C617.017 327.779 617.889 327.902 618.397 328.123C620.105 328.985 621.609 330.204 622.81 331.699C624.327 333.218 626.6 334.296 628.288 335.693C629.976 337.089 630.417 339.733 631.983 341.154C633.549 342.574 635.445 342.16 637.112 343.091C638.779 344.022 639.519 345.736 641.259 346.618C643.877 348.044 646.826 348.747 649.809 348.655C656.155 348.542 662.493 348.081 668.795 347.272C675.084 346.175 681.424 345.411 687.788 344.983C704.903 343.941 736.84 340.314 766.658 328.241C778.073 323.622 777.363 315.054 779.689 299.659C782.63 280.078 785.624 247.205 785.214 234.183C784.673 216.191 785.158 209.851 779.161 197.633Z" fill="#C8856A"/>
<path d="M921.809 134.152C904.04 139.319 900.238 140.684 892.248 171.775C887.819 188.871 874.787 244.582 874.787 244.582L900.736 272.228C900.736 272.228 909.529 275.336 916.405 257.313C923.109 239.681 937.884 202.512 937.884 202.512C937.884 202.512 940.587 145.5 921.809 134.152Z" fill="#37474F"/>
<path d="M906.867 269.981C900 275.371 877.299 270.403 866.519 260.148C855.738 249.892 832.296 218.076 823.771 208.189C815.247 198.303 811.009 202.959 803.258 199.913C797.428 197.974 791.761 195.577 786.308 192.743C782.968 190.656 779.163 189.44 775.231 189.202C771.299 188.964 767.363 189.712 763.774 191.38C763.502 185.691 773.313 182.976 782.634 180.775C791.955 178.575 797.222 179.191 807.843 178.61C817.443 178.076 825.454 178.793 835.652 185.787C846.914 193.493 866.238 207.874 877.286 214.942C889.18 222.624 899.571 229.79 906.517 242.765C911.57 252.282 910.704 266.992 906.867 269.981Z" fill="#FFBDA7"/>
<path d="M504.565 223.46C532.675 224.948 535.918 232.862 554.988 249.656C573.695 266.155 595.691 284.818 595.691 284.818C595.691 284.818 652.132 275.285 656.375 273.592C660.721 271.464 664.568 268.414 667.65 264.651C669.987 261.638 672.687 258.931 675.686 256.595C678.13 254.875 680.576 253.033 683.021 251.118C685.467 249.202 688.109 246.991 688.342 251.464C688.441 253.915 687.813 256.346 686.537 258.443C685.7 259.769 684.501 260.752 683.592 261.98C682.658 263.276 681.834 264.648 681.129 266.083C678.661 270.874 685.399 270.165 688.39 269.994C693.116 269.831 697.697 268.251 701.551 265.454C704.999 262.826 709.063 259.117 713.315 262.437C713.494 262.61 713.722 262.722 713.969 262.756C714.168 262.732 714.355 262.647 714.505 262.511C715.509 261.822 716.656 261.377 717.855 261.211C719.055 261.045 720.273 261.163 721.416 261.556C721.824 261.69 722.194 261.921 722.496 262.228C722.798 262.536 723.022 262.912 723.152 263.326C723.646 265.415 721.153 267.159 721.063 269.248C721.076 269.793 721.137 270.336 721.245 270.87C721.364 273.099 720.71 275.305 719.397 277.111C718.192 278.978 716.647 280.599 715.345 282.393C714.789 283.149 714.333 283.975 713.989 284.85C712.765 288.546 710.363 291.736 707.16 293.915C700.703 298.785 693.287 302.186 685.425 303.882C677.244 305.672 669.05 303.014 660.803 303.87C655.524 304.482 614.482 321.567 589.668 327.454C584.505 328.68 577.749 325.507 572.837 322.678C562.917 316.898 533.402 293.169 514.415 278.169C488.911 251.272 504.565 223.46 504.565 223.46Z" fill="#FFC4C3"/>
<path d="M332.467 174.735C352.851 182.545 360.344 189.856 372.401 220.436C379.046 237.351 397.325 280.129 397.325 280.129L372.439 310.659C372.439 310.659 363.651 314.587 355.344 296.693C347.252 279.215 323.975 238.218 323.975 238.218C323.975 238.218 310.746 186.768 332.467 174.735Z" fill="#F0F0F0"/>
<path d="M364.654 308.759C371.896 314.845 396.785 310.227 409.04 299.42C421.295 288.613 448.254 254.838 458.052 244.373C467.85 233.908 472.159 239.134 480.759 236.099C489.358 233.063 492.57 232.501 499.594 228.876C508.619 224.247 513.863 224.741 523.741 226.17C519.167 217.461 514.2 218.807 504.187 216.005C494.175 213.202 488.291 213.787 476.88 212.774C466.488 211.86 457.738 212.369 446.288 219.596C433.666 227.607 411.929 242.479 399.555 249.877C386.253 257.813 374.583 265.236 366.411 279.111C360.429 289.334 360.647 305.348 364.654 308.759Z" fill="#B16668"/>
<path d="M324.941 168.222C323.562 167.584 322.528 166.235 321.246 165.499C320.273 164.981 319.16 164.791 318.068 164.958C316.827 165.153 315.632 165.814 314.465 165.936C313.298 166.058 312.038 165.714 310.774 165.786C309.719 165.906 308.691 166.204 307.731 166.667C303.426 168.413 299.178 170.273 294.984 172.248C292.2 173.615 289.496 175.144 286.885 176.826C284.147 178.581 281.62 180.653 279.356 182.999C270.713 191.916 238.125 222.389 237.195 223.295C237.195 223.295 231.407 214.614 217.113 193.867C202.819 173.119 190.856 155.536 172.735 152.411C151.225 169.973 172.956 206.144 172.956 206.144C172.956 206.144 197.247 237.781 214.107 256.618C225.619 269.544 231.344 273.789 240.141 270.019C248.939 266.25 260.499 253.903 266.614 245.156C274.399 234.056 287.718 210.851 293.674 200.608C299.631 190.366 304.587 193.507 311.169 190.422C317.751 187.338 319.232 184.25 324.196 179.964C325.956 178.485 328.022 177.427 330.239 176.868C332.457 176.309 334.767 176.264 336.997 176.736C338.599 177.181 340.155 177.773 341.648 178.504C340.385 175.968 338.515 173.794 336.206 172.176C333.959 170.236 331.187 169.014 328.242 168.666C327.311 168.698 326.38 168.607 325.475 168.394L324.941 168.222Z" fill="#FFA8A7"/>
<path d="M172.244 150.262C180.105 152.378 187.334 156.374 193.321 161.912C197.047 165.606 204.697 175.488 204.697 175.488C204.697 175.488 190.713 179.977 184.374 191.805C180.591 198.884 178.475 206.739 178.193 214.756C178.193 214.756 175.069 211.551 169.553 204.458C164.037 197.365 151.569 165.112 172.244 150.262Z" fill="#37474F"/>
</svg>
