<svg width="995" height="324" viewBox="0 0 995 324" fill="none" xmlns="http://www.w3.org/2000/svg">
  <g clip-path="url(#clip0_9_1633)">
    <path
      d="M105.553 121.297C94.7129 118.689 78.9482 120.507 72.472 144.712C66.5905 166.827 61.9979 183.492 59.8464 195.213C57.695 206.935 58.372 216.535 59.2506 228.307C59.7922 235.57 60.8686 242.763 61.6782 249.97C62.1559 253.649 62.6131 257.326 63.0499 261.004C63.5871 264.191 63.7996 267.429 63.6841 270.665C62.9728 278.045 62.4191 285.637 64.1281 292.907C64.5263 294.667 65.0493 296.367 65.5927 298.067L69.1117 309.213C69.7058 311.787 71.2045 314.044 73.3266 315.563C75.2118 316.556 77.2957 317.103 79.4239 317.164C80.1436 317.369 80.9036 317.386 81.6345 317.216C82.132 316.983 82.5855 316.662 82.9736 316.268C83.8443 315.617 84.5791 314.795 85.1349 313.853C85.6906 312.911 86.056 311.866 86.2094 310.781C86.2485 309.469 85.6759 308.06 86.3253 306.887C86.5205 306.573 86.7347 306.272 86.9667 305.985C87.3478 305.373 87.6057 304.691 87.7254 303.978C87.8451 303.266 87.8241 302.537 87.6637 301.835C87.3748 300.46 86.9407 299.123 86.3691 297.845C84.0442 291.659 83.156 285.001 83.7735 278.387C83.792 277.762 84.2268 276.918 84.7938 277.14C84.9255 277.215 85.0394 277.318 85.1276 277.442C85.2159 277.567 85.2764 277.709 85.3049 277.86C85.9418 279.791 86.4172 281.775 86.7261 283.79C86.8416 285.615 87.3107 287.396 88.1063 289.031C88.5277 289.838 89.2237 290.461 90.0652 290.783C90.9068 291.106 91.8369 291.106 92.6833 290.784L92.2234 281.46C92.1616 279.873 92.0172 278.291 91.791 276.72C90.9919 273.051 89.7927 269.487 88.2155 266.094C86.8775 262.709 86.045 259.136 85.7453 255.493C85.2308 247.205 85.321 238.885 86.0152 230.601C86.3902 222.817 86.8881 215.037 87.5497 207.26L104.477 153.317L105.553 121.297Z"
      fill="#FFA8A7" />
    <path
      d="M107.647 119.895C96.8754 117.412 92.2483 118.076 85.3722 122.776C79.4796 126.905 75.2405 133.026 73.4302 140.021C75.0696 150.113 81.5353 171.498 95.0351 177.402L107.647 119.895Z"
      fill="#37474F" />
    <path
      d="M61.3761 477.84C61.3761 477.84 78.373 450.426 103.862 408.826C107.774 403.003 110.579 396.499 112.13 389.651C114.01 382.648 115.422 377.511 115.422 377.511L117.964 426.087C115.937 433.566 114.584 441.21 113.921 448.926C113.417 463.432 113.917 477.948 115.419 492.37C118.362 522.546 119.823 538.717 119.823 538.717C121.84 540.308 124.861 542.839 139.549 543.121C144.785 542.935 149.936 541.672 154.687 539.411C154.687 539.411 159.389 508.248 161.811 486.475C165.291 455.45 166.807 444.727 168.137 432.603C170.608 409.831 173.571 399.038 175.195 363.091C176.88 325.81 176.199 270.855 176.199 270.855L77.3586 237.029C77.3586 237.029 65.4902 255.786 70.2161 290.59C68.1746 321.817 64.7685 380.24 64.7685 380.24C59.3545 387.389 53.3161 398.193 47.7742 415.91C41.5954 435.614 37.8737 446.952 33.0265 461.432C41.4674 461.485 58.522 471.768 61.3761 477.84Z"
      fill="#37474F" />
    <path
      d="M164.488 270.798L166.284 270.841C166.771 286.743 166.599 306.544 165.913 328.748C169.616 327.088 173.62 323.415 176.386 315.796C176.343 317.295 176.299 318.793 176.255 320.312C174.144 325.027 170.385 328.754 165.734 330.743C163.718 393.838 153.587 475.586 146.84 542.357L145.012 542.73C154.347 451.529 166.384 332.009 164.488 270.798Z"
      fill="#263238" />
    <path opacity="0.2"
      d="M115.175 377.553L112.132 310.798C102.832 306.534 95.1242 299.385 90.1155 290.378C90.1155 290.378 90.0953 304.964 105.914 312.443L113.694 376.164L112.87 385.938C112.87 385.938 115.008 378.32 115.175 377.553Z"
      fill="black" />
    <path
      d="M129.985 35.1007C131.856 33.3409 133.999 31.9022 136.33 30.8425C138.147 30.0732 140.04 29.5014 141.976 29.1369C147.911 27.6924 154.086 27.623 160.034 28.934C166.025 30.2863 171.232 33.9652 174.527 39.1744C175.411 41.0493 176.498 42.819 177.769 44.4513C180.3 47.1634 184.261 47.7576 187.703 49.1124C190.716 50.2177 193.327 52.2063 195.201 54.8234C196.114 56.1405 196.71 57.6547 196.943 59.2474C197.176 60.84 197.04 62.4678 196.545 64.0034C195.607 65.9855 194.475 67.8691 193.165 69.6263C192.522 70.516 192.088 71.5411 191.898 72.6229C191.708 73.7046 191.766 74.8143 192.068 75.8666C192.896 77.9747 195.936 78.9024 197.313 77.2011C196.237 78.4262 194.893 79.3822 193.389 79.9926C191.884 80.6029 190.261 80.8506 188.649 80.7157C189.338 81.8834 189.761 83.1914 189.89 84.5466C190.018 85.9017 189.849 87.2708 189.393 88.5564C188.937 89.8419 188.207 91.0124 187.253 91.9844C186.3 92.9564 185.146 93.7062 183.876 94.1802C183.514 94.2694 183.175 94.44 182.887 94.6792C182.494 95.2341 182.311 95.9123 182.374 96.5888C181.938 104.307 173.092 106.251 167.191 108.18C161.289 110.109 153.788 112.147 149.727 116.981C148.984 118.018 148.039 118.892 146.95 119.549C145.861 120.206 144.651 120.632 143.396 120.801C140.174 121.355 136.885 121.335 133.678 120.74C131.091 120.4 128.579 119.636 126.243 118.477C123.773 117.187 122.898 115.266 121.066 113.447C119.576 111.971 115.374 112.499 113.467 111.807C106.064 109.148 102.872 101.512 103.005 93.5569C102.273 94.9755 101.868 96.5405 101.82 98.1347C101.773 99.7288 102.084 101.311 102.731 102.762C101.005 101.081 99.7239 98.9917 99.0038 96.6811C98.2837 94.3706 98.1471 91.9119 98.6063 89.5269C99.283 86.2844 101.05 83.3182 102.033 80.2291C104.853 71.1259 101.025 60.4673 105.686 52.1592C107.579 49.2018 110.084 46.6898 113.028 44.797C115.972 42.9042 119.285 41.6758 122.737 41.1968C125.506 40.7813 126.83 38.0553 128.773 36.1375C129.197 35.8133 129.581 35.4672 129.985 35.1007Z"
      fill="#263238" />
    <path
      d="M113.632 125.981C113.632 125.981 117.024 107.28 116.992 106.966C116.378 100.441 107.24 86.8715 107.688 71.774C108.137 56.6765 125.413 38.0927 147.833 40.0379C165.175 41.5301 173.647 51.0775 177.053 64.6169C179.128 72.8039 176.833 76.1932 177.481 80.8618C178.781 90.0323 181.078 99.1009 174.468 112.593C173.166 115.114 171.304 117.299 169.027 118.976C166.75 120.654 164.121 121.778 161.348 122.26C157.594 122.646 153.807 122.431 150.128 121.621L148.205 136.871L113.632 125.981Z"
      fill="#FFA8A7" />
    <path
      d="M163.942 102.847C163.718 103.418 163.385 103.94 162.961 104.383C162.538 104.826 162.033 105.181 161.475 105.428C160.916 105.676 160.316 105.81 159.708 105.823C159.1 105.837 158.496 105.73 157.931 105.508C157.365 105.286 156.849 104.953 156.413 104.53C155.976 104.106 155.627 103.599 155.385 103.038C155.144 102.477 155.015 101.873 155.006 101.26C154.996 100.647 155.107 100.038 155.331 99.4662L163.942 102.847Z"
      fill="#B16668" />
    <path
      d="M160.18 105.759C159.854 104.555 159.196 103.471 158.282 102.633C157.368 101.794 156.235 101.235 155.014 101.02C154.983 101.981 155.246 102.926 155.767 103.727C156.289 104.528 157.043 105.146 157.929 105.497C158.645 105.769 159.419 105.859 160.18 105.759Z"
      fill="#F28F8F" />
    <path
      d="M156.351 82.5792C156.457 83.1189 156.403 83.6795 156.195 84.1904C155.986 84.7013 155.633 85.1398 155.18 85.4509C154.726 85.762 154.193 85.9319 153.646 85.9392C153.099 85.9464 152.563 85.7908 152.106 85.4918C151.649 85.1928 151.29 84.7637 151.075 84.2584C150.86 83.7532 150.799 83.1942 150.898 82.6517C150.998 82.1092 151.254 81.6073 151.634 81.209C152.015 80.8108 152.503 80.5339 153.037 80.4131C153.764 80.2658 154.517 80.4097 155.136 80.8144C155.755 81.219 156.191 81.8523 156.351 82.5792Z"
      fill="#263238" />
    <path
      d="M154.917 73.9395L149.249 77.7341C148.765 76.9516 148.6 76.0092 148.789 75.103C148.978 74.1968 149.507 73.3968 150.264 72.8693C150.639 72.6226 151.058 72.4543 151.498 72.3745C151.938 72.2947 152.389 72.3051 152.823 72.405C153.258 72.505 153.667 72.6924 154.027 72.956C154.386 73.2197 154.689 73.5542 154.917 73.9395Z"
      fill="#263238" />
    <path
      d="M177.314 75.7948L170.8 73.7178C170.916 73.2802 171.119 72.8705 171.397 72.5141C171.676 72.1578 172.023 71.8624 172.419 71.6462C172.814 71.43 173.249 71.2976 173.696 71.2573C174.143 71.217 174.593 71.2695 175.018 71.4117C175.886 71.7042 176.607 72.3215 177.034 73.1366C177.462 73.9518 177.562 74.903 177.314 75.7948Z"
      fill="#263238" />
    <path
      d="M176.028 82.2072C176.01 82.5553 175.923 82.8967 175.77 83.2105C175.618 83.5243 175.404 83.804 175.141 84.0325C174.878 84.261 174.573 84.4335 174.242 84.5396C173.912 84.6456 173.565 84.6829 173.221 84.6493C172.877 84.6157 172.544 84.5118 172.242 84.344C171.94 84.1762 171.675 83.9479 171.464 83.6732C171.253 83.3984 171.1 83.0829 171.015 82.7458C170.929 82.4087 170.913 82.0572 170.967 81.7125C170.993 81.3712 171.085 81.0379 171.24 80.7321C171.394 80.4263 171.607 80.1539 171.866 79.9309C172.125 79.7078 172.425 79.5384 172.749 79.4325C173.073 79.3266 173.414 79.2864 173.752 79.314C174.435 79.3937 175.058 79.7425 175.484 80.2844C175.91 80.8263 176.106 81.5174 176.028 82.2072Z"
      fill="#263238" />
    <path d="M176.881 94.0561L167.741 97.3674L164.813 78.918L176.881 94.0561Z" fill="#F28F8F" />
    <path
      d="M150.185 121.557C146.569 120.323 143.059 118.795 139.692 116.989C133.833 112.87 129.443 106.966 127.161 100.136C127.017 104.977 130.792 113.209 136.488 118.835C140.715 123.006 149.697 125.409 149.697 125.409L150.185 121.557Z"
      fill="#F28F8F" />
    <path
      d="M125.999 95.4664C125.429 99.0004 123.896 102.312 121.572 105.03C119.792 107.184 117.774 109.127 115.557 110.819C112.079 102.385 111.358 96.6471 109.607 91.4277C107.51 84.919 106.639 78.0652 107.038 71.2178C107.628 65.056 109.96 59.1825 113.757 54.2954C117.18 49.7522 121.532 46.001 126.514 43.2984C129.155 41.8439 131.974 40.7513 134.898 40.0499C141.262 38.8418 147.779 38.7756 154.151 39.8543C163.769 41.7713 174.534 51.1068 176.014 61.2477C174.725 58.6074 172.371 56.2553 169.394 57.4592C166.06 58.7799 163.331 61.3677 159.862 62.3721C155.265 63.705 146.741 61.918 142.735 59.3602C143.612 62.6172 144.591 66.6283 143.336 69.8145C142.273 72.7597 140.364 75.3246 137.855 77.1819C136.86 77.6792 136.091 78.5442 135.711 79.5955C135.527 80.8848 135.233 82.1564 134.832 83.396C134.482 84.3224 133.901 85.1433 133.145 85.7785C132.773 86.0968 132.326 86.3138 131.848 86.4086C131.37 86.5034 130.876 86.4729 130.415 86.32C130.059 86.2113 129.756 85.9737 129.565 85.6527C129.459 85.3859 129.405 85.1014 129.403 84.8137C129.43 83.8956 129.457 82.9984 129.484 82.0803C129.468 80.8176 129.119 79.5843 128.472 78.5069C127.88 77.631 127.113 76.8911 126.218 76.335C125.323 75.7788 124.321 75.4189 123.277 75.2782C122.232 75.1376 121.169 75.2196 120.155 75.5187C119.141 75.8179 118.199 76.3276 117.391 77.0149C114.015 80.4645 112.711 84.61 115.604 91.109C117.523 95.5598 122.434 98.3268 125.999 95.4664Z"
      fill="#263238" />
    <path
      d="M82.6102 144.967C84.5145 135.204 90.8972 125.171 97.0992 121.916C103.636 118.522 108.057 118.813 129.953 125.087C144.523 129.247 164.993 136.843 164.993 136.843C170.693 140.044 175.104 144.822 185.458 165.514C193.84 182.216 191.268 199.808 177.524 206.831C177.45 218.389 174.912 225.111 175.236 230.919C176.701 255.451 176.68 279.113 176.68 279.113C176.68 279.113 142.209 290.009 111.009 279.929C80.7112 270.162 72.6489 258.016 69.5031 253.143C69.5031 253.143 71.9521 245.25 76.6876 232.842C81.7813 219.524 84.9619 210.688 83.8896 199.416C81.8415 179.19 79.5065 160.961 82.6102 144.967Z"
      fill="#F0F0F0" />
    <path
      d="M182.164 471.136C183.405 462.204 185.618 453.432 188.763 444.978C188.763 444.978 190.986 361.819 192.312 338.727C193.296 323.782 195.512 308.937 198.936 294.347L313.307 299.263C313.307 299.263 311.936 366.242 309.748 410.705C307.602 454.44 302.891 467.11 298.171 515.496C296.42 533.448 291.938 568.266 291.938 568.266C291.938 568.266 284.61 573.14 271.191 571.824C265.428 571.272 256.389 568.433 254.255 566.611C254.255 566.611 248.601 537.392 247.741 518.399C247.389 510.801 246.776 492.522 249.067 482.089L242.525 424.41C242.525 424.41 239.812 451.118 236.985 471.922C234.158 492.726 217.799 561.877 217.799 561.877C217.799 561.877 212.394 565.92 199.133 564.858C190.547 564.135 185.521 560.994 183.558 558.988C183.558 558.988 182.574 545.559 181.566 523.914C180.237 501.26 180.62 483.526 182.164 471.136Z"
      fill="#455A64" />
    <path
      d="M81.9277 181.353C82.3424 179.271 84.4231 179.048 86.1427 179.109C89.5804 179.54 92.7798 181.082 95.2619 183.505C98.0857 185.772 100.783 188.195 103.342 190.762C105.707 193.297 108.622 195.247 111.862 196.461C113.908 197.388 116.768 197.475 115.8 194.462C114.663 190.86 111.878 186.884 112.995 182.811C113.742 180.005 115.918 180.077 117.563 181.935C120.236 185.011 123.139 187.876 126.247 190.503C129.403 193.17 128.694 191.899 131.765 194.647C133.369 196.12 134.868 197.707 136.248 199.395C140.258 204.027 146.143 205.607 151.629 206.656C155.382 207.392 172.053 210.291 172.053 210.291C172.053 210.291 194.778 164.647 202.158 152.941C209.89 140.575 219.196 138.011 233.512 140.625L223.684 191.987C223.684 191.987 206.529 222.641 198.042 233.212C189.555 243.784 190.432 247.067 170.814 242.112C159.945 239.369 140.959 230.581 130.482 226.53C125.642 224.681 120.893 223.294 115.898 221.776C110.903 220.258 106.053 217.364 101.104 215.01C98.7646 213.828 96.7792 212.043 95.3475 209.836C94.4152 208.413 94.4883 206.658 93.6156 205.32C92.7429 203.982 91.0357 203.503 90.384 201.71C89.7323 199.917 90.5087 197.531 89.7088 195.839C88.7079 194.076 87.8134 192.253 87.0302 190.381C86.746 188.714 86.0832 187.138 85.0935 185.777C83.9671 184.6 81.5381 183.289 81.9277 181.353Z"
      fill="#B16668" />
    <path
      d="M235.937 139.63C222.146 137.847 212.754 137.732 204.661 147.518C196.567 157.303 179.647 192.426 179.647 192.426C179.647 192.426 181.137 199.368 190.639 206.185C196.184 210.232 202.875 212.384 209.743 212.329L231.617 167.91L235.937 139.63Z"
      fill="#F0F0F0" />
    <path
      d="M309.238 165.465C302.171 161.128 286.13 154.056 271.307 149.099C261.232 145.533 250.949 142.583 240.514 140.264C229.769 137.926 222.145 139.834 214.671 147.086C208.773 152.789 203.276 166.554 202.084 182.255C200.625 201.392 203.265 225.173 203.136 241.296C203.007 257.418 195.229 303.298 195.229 303.298C215.181 327.63 277.805 336.187 312.726 323.799C312.726 323.799 314.163 286.012 313.556 270.31C312.742 249.054 314.802 204.23 314.019 193.74C313.325 184.176 311.724 174.708 309.238 165.465Z"
      fill="#37474F" />
    <path
      d="M280.911 135.684L277.112 152.491C263.728 158.283 245.203 150.093 243.727 144.663L247.061 127.448L280.911 135.684Z"
      fill="#B16668" />
    <path d="M314.088 95.6828L319.926 113.665L312.11 116.421C311.836 108.326 310.388 98.056 314.088 95.6828Z"
      fill="#9A4A4D" />
    <path
      d="M305.854 69.3384C321.185 74.1025 313.013 97.381 313.006 107.341C312.828 133.416 303.676 142.348 299.809 144.909C291.765 147.227 284.316 146.28 275.055 141.491C267.935 137.858 250.045 127.919 244.676 114.179C238.366 97.9747 240.659 75.9785 252.493 70.179C269.141 62.0281 299.903 67.487 305.854 69.3384Z"
      fill="#B16668" />
    <path
      d="M308.714 126.837L308.3 126.827L308.093 126.822L307.314 126.511C306.843 126.304 306.398 126.041 305.989 125.728C305.49 125.347 305.017 124.93 304.575 124.482C304.353 124.268 304.154 124.013 303.931 123.819C303.709 123.626 303.528 123.433 303.298 123.491C303.068 123.548 303.168 123.676 303.127 123.675C303.145 124.113 303.202 124.548 303.295 124.975L303.393 125.165L303.652 125.548C303.815 125.769 303.996 125.976 304.193 126.167C304.596 126.602 305.051 126.984 305.548 127.306C306.521 127.964 307.613 128.422 308.764 128.657C308.868 128.685 308.978 128.688 309.084 128.667C309.191 128.645 309.291 128.6 309.377 128.533C309.463 128.466 309.533 128.38 309.581 128.282C309.63 128.184 309.655 128.076 309.655 127.967C309.665 127.694 309.574 127.427 309.401 127.219C309.227 127.01 308.982 126.874 308.714 126.837Z"
      fill="#9A4A4D" />
    <path
      d="M300.101 144.857C297.981 146.301 285.047 146.776 278.898 144.695L279.956 139.86C281.218 141.425 292.523 146.131 300.101 144.857Z"
      fill="#9A4A4D" />
    <path
      d="M305.382 91.0563C303.447 90.6637 301.582 89.9867 299.847 89.047C300.317 89.2669 299.536 91.8178 299.401 92.1698C298.918 93.2978 298.178 94.2967 297.242 95.0854C296.393 95.8829 295.351 96.4401 294.221 96.7C293.092 96.9598 291.917 96.9131 290.816 96.5644C291.118 98.4435 291.234 100.349 291.164 102.254C291.238 103.409 290.87 104.551 290.136 105.447C289.784 105.786 289.343 106.017 288.866 106.109C288.389 106.202 287.896 106.153 287.448 105.969C285.688 105.197 286.029 102.823 285.307 101.323C284.541 99.7701 283.311 98.4999 281.789 97.6902C280.316 96.8144 278.588 96.4728 276.889 96.7217C275.19 96.9706 273.622 97.7951 272.444 99.0593C270.783 101.088 269.646 103.497 269.136 106.07C268.625 108.643 268.756 111.3 269.517 113.8C273.377 123.353 279.581 119.613 279.581 119.613C279.452 122.647 278.692 125.626 277.351 128.354C276.354 130.692 274.657 132.661 272.5 133.985C259.019 134.38 249.788 131.24 244.908 126.029C242.079 118.778 237.704 110.529 236.751 102.862C235.741 96.2983 235.474 89.6349 235.956 83C236.447 76.3346 238.856 69.945 242.887 64.6136C244.611 62.4079 246.748 60.5636 249.175 59.1867C251.602 57.8097 254.271 56.927 257.03 56.5891C257.527 56.6007 258.747 53.9138 259.198 53.3813C260.012 52.2455 260.976 51.2277 262.065 50.3569C264.915 48.0176 268.495 46.7786 272.157 46.8642C275.819 46.9498 279.32 48.3544 282.027 50.8235C283.946 49.1691 286.22 47.9874 288.667 47.3731C291.113 46.7587 293.664 46.7286 296.116 47.2853C298.568 47.8419 300.853 48.9698 302.788 50.5788C304.723 52.1878 306.255 54.2332 307.261 56.5518C309.18 55.4732 311.38 55.0216 313.557 55.2596C315.733 55.4977 317.778 56.4136 319.405 57.8801C322.917 61.0326 323.511 65.433 323.046 69.8921C326.488 70.5365 327.362 75.2776 326.732 78.3334C326.137 80.6956 325 82.8873 323.412 84.731C322.356 85.874 321.467 87.1614 320.77 88.5544C320.438 89.2603 320.308 90.0443 320.395 90.8178C320.482 91.5913 320.781 92.3235 321.261 92.9314C319.464 93.4539 317.551 93.3651 315.817 92.6787C314.084 91.9923 312.628 90.7468 311.676 89.1356C310.931 89.9087 310.013 90.4901 309 90.8301C307.986 91.1702 306.908 91.2587 305.857 91.0883L305.382 91.0563Z"
      fill="#263238" />
    <path
      d="M897.289 371.127C897.289 371.127 899.832 315.783 900.168 293.258C900.024 277.461 898.418 261.721 895.371 246.245L787.742 249.062C787.742 249.062 786.946 303.906 787.17 347.246C787.414 396.924 788.033 414.343 789.761 457.073C790.459 474.62 794.797 535.775 794.797 535.775C794.797 535.775 799.697 540.935 812.734 541.513C818.869 541.92 824.983 540.318 830.171 536.943C830.171 536.943 837.192 482.205 839.365 463.788C840.063 453.242 839.629 442.658 838.071 432.22L845.596 362.528C845.596 362.528 848.035 386.035 853.526 428.416C855.796 445.833 860.255 475.683 860.255 475.683C860.255 475.683 866.953 480.01 879.942 478.712C889.106 477.761 891.363 476.063 893.417 474.235C893.335 474.234 901.993 403.859 897.289 371.127Z"
      fill="#37474F" />
    <path
      d="M845.62 362.655L854.778 309.43C854.778 309.43 867.517 308.042 884.527 293.27C884.527 293.27 883.236 304.87 860.767 314.657L850.817 360.485L849.062 392.666C847.704 382.13 846.537 372.077 845.62 362.655Z"
      fill="#263238" />
    <path
      d="M862.872 128.68L858.747 103.798C860.132 98.239 866.575 84.7253 866.25 69.1746C865.924 53.6239 843.227 31.8509 825.594 35.3999C807.962 38.9488 799.365 49.7413 795.788 63.5937C793.572 72.0329 795.883 72.9635 795.182 77.7664C793.743 87.2253 792.7 100.052 797.725 112.042C798.796 114.665 800.572 116.93 802.856 118.583C805.139 120.236 807.838 121.212 810.651 121.401C814.508 121.802 818.409 121.563 822.198 120.692C822.781 124.668 823.152 128.675 823.312 132.694C823.39 134.073 822.952 135.435 822.085 136.512C821.218 137.588 819.985 138.3 818.628 138.509L862.872 128.68Z"
      fill="#FFBDA7" />
    <path
      d="M807.752 101.722C807.961 102.266 808.274 102.763 808.674 103.184C809.074 103.605 809.553 103.942 810.083 104.176C810.614 104.41 811.186 104.536 811.766 104.547C812.346 104.558 812.923 104.453 813.465 104.239C814.006 104.026 814.502 103.707 814.922 103.301C815.343 102.895 815.68 102.41 815.916 101.874C816.151 101.338 816.28 100.762 816.294 100.177C816.309 99.5921 816.209 99.0109 816 98.4666L807.752 101.722Z"
      fill="#B16668" />
    <path
      d="M811.33 104.482C811.647 103.337 812.28 102.304 813.155 101.504C814.03 100.703 815.111 100.169 816.272 99.9617C816.297 100.875 816.041 101.776 815.54 102.542C815.039 103.308 814.317 103.9 813.472 104.24C812.789 104.504 812.052 104.588 811.33 104.482Z"
      fill="#F28F8F" />
    <path
      d="M815.379 80.7014C815.286 81.0764 815.267 81.4657 815.324 81.847C815.381 82.2283 815.512 82.594 815.711 82.9229C815.909 83.2518 816.17 83.5374 816.479 83.7633C816.789 83.9891 817.14 84.1508 817.512 84.2388C818.087 84.3919 818.696 84.3677 819.259 84.1691C819.823 83.9706 820.316 83.6069 820.675 83.125C821.033 82.643 821.241 82.0649 821.271 81.465C821.301 80.8652 821.152 80.2712 820.844 79.7596C820.535 79.248 820.081 78.8422 819.54 78.5945C818.999 78.3468 818.395 78.2685 817.807 78.3699C817.219 78.4712 816.673 78.7475 816.241 79.163C815.808 79.5786 815.508 80.1144 815.379 80.7014Z"
      fill="#263238" />
    <path
      d="M816.864 71.6028L823.208 74.4903C823.583 73.6103 823.606 72.6204 823.273 71.7281C822.94 70.8357 822.276 70.1101 821.421 69.7034C821.001 69.5163 820.548 69.4171 820.088 69.4119C819.628 69.4067 819.171 69.4956 818.745 69.6732C818.319 69.8507 817.933 70.1133 817.61 70.445C817.286 70.7766 817.032 71.1705 816.864 71.6028Z"
      fill="#B16668" />
    <path
      d="M794.694 73.0042L801.009 69.8093C800.826 69.3857 800.559 69.0049 800.224 68.69C799.889 68.3751 799.493 68.1327 799.061 67.9778C798.629 67.8229 798.169 67.7587 797.711 67.789C797.252 67.8193 796.803 67.9436 796.393 68.1543C795.55 68.5956 794.905 69.3437 794.589 70.2454C794.273 71.1471 794.31 72.134 794.694 73.0042Z"
      fill="#B16668" />
    <path
      d="M795.843 79.3957C795.913 79.9096 796.131 80.3907 796.47 80.7791C796.81 81.1676 797.255 81.4463 797.752 81.5806C798.249 81.715 798.775 81.6992 799.265 81.535C799.755 81.3709 800.188 81.0658 800.509 80.6574C800.829 80.2491 801.025 79.7556 801.071 79.2381C801.116 78.7207 801.01 78.2021 800.766 77.7467C800.521 77.2913 800.149 76.9192 799.695 76.6766C799.241 76.4339 798.725 76.3314 798.212 76.3818C797.503 76.4685 796.856 76.8345 796.412 77.3994C795.968 77.9644 795.763 78.6823 795.843 79.3957Z"
      fill="#263238" />
    <path d="M797.022 92.4174L807.56 96.0442L809.032 75.6825C805.134 74.673 801.044 84.3369 797.022 92.4174Z"
      fill="#F0997A" />
    <path
      d="M822.228 120.655C822.228 120.655 831.727 118.31 834.331 116.47C841.379 111.54 843.785 107.984 845.088 103.17C844.876 106.393 843.89 109.522 842.216 112.287C840.542 115.053 838.23 117.372 835.477 119.045C831.467 121.208 827.248 122.949 822.888 124.242L822.228 120.655Z"
      fill="#F0997A" />
    <path
      d="M869.997 60.889C869.208 57.4853 867.249 54.4799 864.465 52.4034C864.036 52.1172 863.557 51.9147 863.052 51.8062C863.348 49.4099 863.157 46.9814 862.49 44.6682C861.824 42.3551 860.697 40.2057 859.178 38.3508C857.658 36.4959 855.778 34.9743 853.651 33.8786C851.525 32.7828 849.197 32.1358 846.808 31.9769C844.111 31.8541 841.427 31.5537 838.771 31.0776C838.053 30.9193 837.363 30.6568 836.721 30.2983C834.846 29.2306 833.734 27.5543 831.597 26.2507C826.852 23.3609 819.751 24.4471 817.898 30.315C814.531 27.1234 810.757 27.8492 806.537 29.6717C805.366 30.1396 804.329 30.8981 803.525 31.8764C802.72 32.8546 802.173 34.0208 801.935 35.266C801.706 36.5613 801.765 37.8899 802.11 39.1553C801.064 38.7112 799.936 38.4934 798.798 38.5159C797.66 38.5385 796.538 38.8009 795.504 39.2863C794.471 39.7717 793.548 40.4692 792.795 41.334C792.043 42.1988 791.478 43.2117 791.136 44.3073C791.042 44.6678 790.996 45.039 791 45.4112C790.967 45.807 790.955 46.2042 790.965 46.601C791.431 48.6214 791.26 50.7423 790.474 52.668C790.248 53.12 789.956 53.5356 789.608 53.9009C789.278 54.3135 788.865 54.6515 788.397 54.8925C787.929 55.1336 787.416 55.2723 786.892 55.2994C786.369 55.3266 785.846 55.2416 785.358 55.05C784.871 54.8585 784.43 54.5648 784.065 54.1883C783.954 57.9247 785.847 60.4967 789.749 59.6277C789.231 60.7444 788.968 61.9621 788.978 63.1914C788.988 64.4207 789.272 65.6302 789.808 66.7311C790.269 67.672 790.925 68.5018 791.731 69.1654C792.537 69.8291 793.475 70.3113 794.482 70.5801C794.469 68.2497 794.796 65.9277 795.454 63.6889C795.895 62.0909 796.376 60.5356 796.919 59.0026C799.593 59.8514 802.363 60.3587 805.166 60.5126C815.453 61.2776 825.774 59.2635 835.065 54.6779C833.859 58.1563 833.056 61.7615 832.674 65.421C832.572 67.0387 832.826 68.6568 833.42 70.1589C834.013 71.661 834.931 73.0096 836.106 74.1078C837.221 74.9696 837.003 76.74 836.842 77.9686C836.443 79.4775 836.278 81.0378 836.352 82.5943C836.386 82.8192 836.449 83.0384 836.54 83.2463C836.698 83.5977 836.934 83.9078 837.229 84.153C837.524 84.3982 837.872 84.572 838.245 84.6613C838.618 84.7506 839.006 84.753 839.382 84.6684C839.757 84.5838 840.108 84.4143 840.41 84.1728C841.4 83.0241 842.145 81.6834 842.6 80.2347C845.503 72.5116 853.117 71.6045 856.56 75.0068C860.004 78.4091 860.181 82.2358 857.779 89.1561C856.169 93.7972 851.759 96.4298 848.206 95.3018C847.571 95.0941 846.977 94.7762 846.451 94.3623C846.439 96.0239 846.827 97.6611 847.581 99.1338C848.335 100.607 849.433 101.871 850.781 102.82C853.164 104.086 855.912 104.483 858.563 103.943C859.224 101.243 861.035 96.7734 862.717 91.0895C864.067 88.2178 865.435 85.4092 866.507 82.8233C866.863 81.9822 867.178 81.1541 867.451 80.3389C870.058 72.8177 871.302 67.2071 869.997 60.889Z"
      fill="#B16668" />
    <path
      d="M862.687 124.75C877.673 118.845 889.714 126.471 893.277 135.4C899.285 150.456 897.676 180.311 897.676 180.311L863.335 128.708L862.687 124.75Z"
      fill="#37474F" />
    <path
      d="M881.161 127.606C890.621 132.377 896.745 152.632 897.39 167.188C898.133 180.281 897.779 193.421 896.33 206.468C895.459 216.1 895.227 225.776 895.637 235.43C896.003 245.432 897.21 261.253 897.21 261.253C897.21 261.253 882.904 281.779 849.245 287.829C811.799 294.604 786.637 277.176 786.637 277.176C786.655 276.551 786.449 264.654 786.346 211.557C786.297 180.408 786.413 161.113 792.593 150.18C795.246 146.55 793.82 144.389 804.626 138.635C804.626 138.635 824.872 132.039 839.617 128.839C867.628 122.739 871.253 122.595 881.161 127.606Z"
      fill="#455A64" />
    <path
      d="M710.299 464.659C712.107 473.179 712.88 481.897 712.599 490.621C711.3 508.036 710.568 512.562 708.109 532.973C704.31 564.523 700.061 595.938 700.061 595.938C697.952 597.597 695.839 599.34 681.263 599.664C676.207 599.553 671.241 598.349 666.698 596.133C666.698 596.133 661.807 544.973 659.906 522.209C656.701 483.678 655.589 433.607 655.474 393.69C655.353 354.669 657.2 298.623 657.2 298.623L761.082 288.291C761.082 288.291 771.645 307.298 768.249 341.213C764.854 375.129 757.74 446.891 757.004 451.563C756.268 456.236 762.79 470.458 761.896 495.053C761.002 519.648 757.047 575.227 757.047 575.227C757.047 575.227 743.878 584.359 726.124 575.812C723.47 555.511 710.299 464.659 710.299 464.659Z"
      fill="#455A64" />
    <path
      d="M879.96 212.094C879.546 209.993 877.515 209.946 875.877 209.907C872.526 210.392 869.418 211.973 867.032 214.406C864.286 216.65 861.666 219.046 859.185 221.584C856.916 224.053 854.12 225.969 851.012 227.186C848.91 228.12 846.251 228.246 847.17 225.256C848.292 221.727 850.98 217.816 849.895 213.88C849.146 211.164 847.027 211.261 845.438 213.085C842.833 216.097 840.011 218.911 836.994 221.504C833.929 224.152 830.625 226.438 827.639 229.17C826.112 230.639 824.679 232.205 823.351 233.859C819.523 238.433 813.699 238.987 808.356 240.096C804.703 240.868 798.22 241.951 792.552 242.864C787.911 231.546 771.932 196.372 764.742 185.015C757.172 173.168 750.56 173.724 735.443 171.51L742.16 224.453C742.16 224.453 758.926 254.124 767.21 264.273C775.494 274.421 783.604 275.113 793.782 272.527C804.401 269.785 822.837 260.847 833.04 256.714C837.766 254.733 842.39 253.399 847.247 251.86C852.195 249.922 857.004 247.637 861.638 245.023C863.92 243.842 865.85 242.067 867.226 239.883C868.138 238.504 868.065 236.787 868.913 235.468C869.762 234.15 871.415 233.665 872.048 231.903C872.681 230.14 871.96 227.906 872.695 226.187C873.679 224.453 874.55 222.657 875.303 220.811C875.577 219.185 876.227 217.646 877.2 216.317C877.978 215.289 880.34 213.964 879.96 212.094Z"
      fill="#C8856A" />
    <path
      d="M667.15 106.512C665.883 104.855 665.071 102.888 664.795 100.809C664.519 98.7293 664.789 96.6096 665.578 94.6607C666.937 90.7681 669.96 86.5804 678.85 81.4652C689.382 75.4491 719.043 70.1933 734.378 89.1719C736.595 91.8956 709.193 148.451 711.005 159.87C703.158 152.234 677.202 124.908 677.202 124.908C671.182 122.68 667.54 120.507 666.089 115.004C665.548 112.138 665.919 109.166 667.15 106.512Z"
      fill="#263238" />
    <path
      d="M672.017 121.874C672.017 121.874 664.491 135.371 665.411 136.309C667.326 137.715 669.356 138.955 671.478 140.016L672.017 121.874Z"
      fill="#AF6152" />
    <path
      d="M681.32 97.5519C676.039 100.331 671.518 104.673 670.23 116.607C669.909 119.731 672.457 123.883 671.504 128.058C667.407 145.94 673.436 160.467 676.968 163.578C679.328 165.721 691.39 166.17 697.667 164.061C705.51 161.509 722.438 152.989 730.235 140.205C739.404 125.135 740.989 105.336 730.007 97.8548C714.535 87.408 686.96 94.5935 681.32 97.5519Z"
      fill="#C8856A" />
    <path
      d="M678.06 144.17L678.067 143.962C678.067 143.962 678.073 143.753 677.949 143.729C677.826 143.705 677.763 143.725 677.697 143.849C676.578 145.038 675.221 145.975 673.718 146.597C673.352 146.694 673.021 146.897 672.768 147.181C672.697 147.275 672.654 147.385 672.641 147.501C672.628 147.617 672.646 147.735 672.694 147.841C672.742 147.947 672.817 148.038 672.912 148.104C673.007 148.17 673.119 148.209 673.234 148.216C673.648 148.237 674.062 148.161 674.443 147.993C674.694 147.911 674.934 147.797 675.158 147.655C675.67 147.351 676.146 146.991 676.579 146.581C676.978 146.303 677.315 145.946 677.57 145.531C677.825 145.116 677.992 144.653 678.06 144.17Z"
      fill="#AF6152" />
    <path
      d="M724.367 148.816L728.212 170.531C733.093 171.375 733.729 177.13 731.485 181.587L732.793 187.691L699.942 195.147L695.239 164.75L724.367 148.816Z"
      fill="#C8856A" />
    <path
      d="M677.653 163.845C680.517 165.322 686.765 166.163 695.138 164.698L694.495 160.476C691.857 161.601 689.135 162.508 686.355 163.187C683.499 163.837 680.567 164.059 677.653 163.845Z"
      fill="#AF6152" />
    <path
      d="M673.576 104.254C673.533 111.959 682.29 113.563 685.687 114.979C684.483 117.862 684.101 121.023 684.586 124.101C685.486 127.986 687.071 131.114 690.931 132.27C693.294 132.951 693.947 131.901 694.708 129.998C695.803 127.308 697.148 123.204 702.809 123.754C709.275 124.386 711.306 134.103 707.756 140.578C707.075 141.959 706.074 143.155 704.838 144.064C703.603 144.974 702.169 145.57 700.659 145.801C699.821 145.819 698.99 145.657 698.221 145.326C697.452 144.995 696.763 144.502 696.2 143.88C697.078 147.268 698.723 150.401 701.006 153.034C703.288 155.666 706.147 157.728 709.359 159.057C709.359 159.057 715.28 163.373 726.435 159.624C731.333 153.748 735.928 147.624 740.202 141.274C751.507 123.473 752.828 91.6952 732.4 86.79C731.413 86.5581 712.986 84.728 704.111 87.0477C676.941 94.2446 673.595 102.917 673.576 104.254Z"
      fill="#263238" />
    <path
      d="M722.722 85.2947C720.362 87.1561 718.797 89.857 718.353 92.8368C718.143 94.3253 718.326 95.8407 718.885 97.2292C719.444 98.6178 720.359 99.8301 721.536 100.743C727.623 105.063 736.577 99.3823 737.426 92.4681C738.353 84.3234 728.497 80.6051 722.722 85.2947Z"
      fill="#27A0F7" />
    <path
      d="M727.809 87.6888C721.893 91.7245 718.442 100.576 721.858 106.792C722.801 108.483 724.081 109.974 724.877 111.746C727.398 117.419 724.203 123.918 723.686 130.146C723.348 135.08 724.354 140.004 726.594 144.385C728.693 147.565 733.143 148.232 735.008 151.615C736.305 153.941 735.577 156.846 736.12 159.467C737.339 165.089 744.054 167.542 749.79 167.446C754.656 167.351 759.853 165.907 762.846 162.033C764.102 159.903 765.477 157.844 766.962 155.868C770.25 152.502 775.777 152.443 779.346 149.375C780.694 148.077 781.728 146.484 782.369 144.722C783.011 142.96 783.241 141.075 783.043 139.214C782.626 135.495 781.549 131.886 779.863 128.559C777.225 122.633 779.057 118.836 780.106 112.787C780.574 109.516 779.929 106.189 778.278 103.349C776.626 100.51 774.064 98.3247 771.011 97.1514C766.791 95.6753 761.747 96.1626 758.294 93.2853C756.436 91.7392 755.367 89.3976 753.66 87.6672C747.091 80.9813 734.736 83.0299 727.809 87.6888Z"
      fill="#263238" />
    <path
      d="M755.061 187.129C751.787 177.536 741.808 172.795 738.809 172.036C735.81 171.277 728.511 170.334 728.511 170.334C730.323 174.133 727.574 176.782 722.649 178.128C716.387 179.901 706.622 180.466 699.937 176.303L697.17 174.715C697.17 174.715 680.692 179.672 676.047 182.047C674.638 182.786 664.382 184.55 652.802 213.372C647.837 225.778 647.078 239.409 657.199 247.743C658.005 255.4 656.452 272.769 656.452 272.769C655.152 296.927 654.029 316.54 654.029 316.54C654.029 316.54 664.918 330.339 711.586 329.74C756.101 329.173 768.295 310.342 768.295 310.342C767.568 301.413 756.552 273.837 757.569 263.321C759.084 247.913 765.072 216.456 755.061 187.129Z"
      fill="#27A0F7" />
    <path
      d="M603.647 196.103C618.266 197.639 626.396 200.042 633.683 214.265C635.863 218.606 637.76 223.086 639.362 227.679C640.829 231.883 641.186 235.915 642.302 240.11C644.968 250.014 646.745 260.144 647.611 270.379C647.986 273.449 647.894 276.56 647.34 279.607C645.346 288.461 637.677 296.429 631.942 303.234C628.111 307.813 624.218 312.369 620.71 317.205C618.407 320.381 613.709 324.918 609.231 324.77C608.23 324.704 607.251 324.454 606.341 324.034C599.147 320.735 593.434 314.859 590.301 307.538C590.099 307.172 589.983 306.762 589.964 306.342C590.022 305.721 590.279 305.135 590.695 304.671L608.692 279.751C609.924 278.294 610.796 276.564 611.236 274.704C611.337 273.594 611.272 272.475 611.044 271.385C610.077 265.331 608.735 259.347 607.025 253.467C606.143 250.444 605.136 247.46 604.088 244.475C603.075 242.313 602.323 240.035 601.849 237.689L603.647 196.103Z"
      fill="#455A64" />
    <path d="M559.139 188.68L560.76 219.292L598.89 212.399L595.129 180.588L559.139 188.68Z" fill="#FFA8A7" />
    <path
      d="M539.571 137.956C535.885 144.159 532.704 150.653 530.058 157.371L538.86 161.289C540.741 152.119 541.882 143.577 539.571 137.956Z"
      fill="#F28F8F" />
    <path
      d="M556.546 111.745C545.079 112.039 534.789 124.346 539.338 142.808C539.207 145.803 538.827 148.783 538.204 151.718C535.652 167.882 537.718 182.088 540.843 185.69C544.699 188.048 548.99 189.6 553.462 190.253C557.934 190.907 562.497 190.65 566.88 189.497C574.848 187.742 595.04 182.517 604.067 170.18C614.672 155.667 618.4 135.438 608.448 126.559C594.418 114.056 562.871 111.581 556.546 111.745Z"
      fill="#FFA8A7" />
    <path
      d="M540.863 185.486C542.591 187.48 552.546 192.19 559.102 191.736L558.998 187.532C552.873 187.974 546.727 187.281 540.863 185.486Z"
      fill="#F28F8F" />
    <path
      d="M551.276 154.596C551.417 154.989 551.672 155.329 552.009 155.572C552.345 155.816 552.747 155.951 553.162 155.961C553.578 155.971 553.987 155.854 554.338 155.627C554.688 155.4 554.963 155.072 555.127 154.686C556.097 152.772 557.277 150.971 558.644 149.319C560.397 147.411 562.789 146.224 565.353 145.989C574.922 145.442 574.209 158.33 570.102 163.35C563.372 171.544 558.546 165.897 558.546 165.897C558.546 165.897 556.526 179.506 565.423 185.542C565.423 185.542 584.634 189 595.036 184.15C600.936 176.354 606.348 168.195 611.24 159.723C621.873 140.073 619.643 122.333 610.745 118.428C610.396 112.009 605.775 102.921 592.126 99.1959C579.094 95.611 570.902 97.235 562.044 98.9478C553.186 100.661 542.721 106.241 533.55 100.366C532.853 103.018 532.792 105.795 533.372 108.466C533.953 111.138 535.157 113.628 536.886 115.73C535.476 115.314 533.958 115.47 532.653 116.163C531.347 116.857 530.358 118.034 529.896 119.444C529.433 120.855 529.533 122.388 530.175 123.718C530.817 125.048 531.949 126.07 533.332 126.568C532.506 127.196 531.921 128.092 531.675 129.103C531.43 130.114 531.54 131.178 531.987 132.112C532.476 133.02 533.214 133.768 534.113 134.266C535.012 134.764 536.036 134.993 537.063 134.925C538.956 134.785 540.826 134.408 542.629 133.803C542.603 138.187 548.097 142.284 552.955 141.292C552.81 141.288 552.3 142.404 552.234 142.549C551.997 142.996 551.79 143.459 551.613 143.933C551.251 144.866 550.98 145.832 550.802 146.817C550.425 148.801 550.442 150.838 550.852 152.811C550.884 153.428 551.028 154.032 551.276 154.596Z"
      fill="#263238" />
    <path
      d="M614.777 200.245C624.105 205.952 630.62 224.193 629.389 239.185C628.57 248.679 625.736 273.793 624.388 294.832C623.935 301.727 625.876 354.221 625.876 354.221C625.876 354.221 609.55 371.007 571.387 372.654C526.45 374.601 504.234 361.79 504.234 361.79C504.234 361.79 506.936 317.416 509.166 288.261C512.516 245.03 516.86 232.51 524.139 217.994C526.542 213.711 527.638 210.253 534.79 207.688L560.044 201.774C571.919 202.533 591.416 200.947 597.179 196.389L597.008 194.465C607.174 195.643 609.004 196.73 614.777 200.245Z"
      fill="#F0F0F0" />
    <path
      d="M354.701 591.974C354.701 591.974 362.147 579.64 384.104 537.332C396.01 514.47 399.585 502.503 401.655 493.962C403.724 485.421 405.318 461.629 405.318 461.629L409.331 504.442C407.119 515.711 403.525 538.06 406.284 561.225C409.667 589.805 413.154 624.642 413.154 624.642C415.431 626.509 424.23 628.363 430.307 628.068C445.479 627.299 448.468 621.177 448.468 621.177C448.468 621.177 457.591 561.347 460.094 541.662C465.947 495.369 467.57 484.462 471.921 431.066C475.594 385.869 472.445 357.732 461.442 316.756C428.006 330.689 383.675 326.395 365.959 309.258C365.959 309.258 346.548 341.596 345.887 373.605C345.202 407.113 346.628 483.579 346.628 483.579C338.669 499.32 335.528 514.028 332.257 533.153C329.334 550.284 325.726 574.509 325.726 574.509C344.484 574.617 354.701 591.974 354.701 591.974Z"
      fill="#37474F" />
    <path
      d="M453.499 370.169C452.504 353.95 449.654 337.923 445.008 322.421C445.86 322.234 446.713 322.025 447.546 321.795C452.863 337.35 456.081 353.6 457.108 370.089C465.055 368.49 466.96 356.998 466.98 350.064C466.914 345.932 466.576 341.812 465.967 337.732C465.605 334.933 465.025 332.003 464.645 329.099C466.605 337.289 468.213 345.075 469.524 352.666C469.515 352.978 469.506 353.29 469.497 353.602C468.798 361.041 465.256 371.264 457.309 372.885C458.347 388.529 458.19 404.373 457.959 419.965C457.205 461.722 454.759 503.418 450.623 545.052C448.719 564.144 443.081 607.741 439.911 626.72C438.854 627.007 437.678 627.27 436.361 627.488C438.214 610.873 444.416 570.038 446.148 553.399C448.302 532.876 450.034 512.3 451.345 491.673C452.718 470.257 453.656 448.815 454.158 427.35C454.529 408.304 454.842 389.152 453.499 370.169Z"
      fill="#263238" />
    <path
      d="M461.278 317.014L459.208 300.688C459.208 300.688 437.185 312.183 411.566 309.774C396.286 308.336 381.738 302.603 369.565 293.222L365.202 309.376C365.202 309.376 375.491 325.895 411.172 326.567C446.853 327.239 461.278 317.014 461.278 317.014Z"
      fill="#263238" />
    <path
      d="M383.367 196.463C368.861 196.123 361.512 197.059 346.99 216.708L319.393 254.073C319.393 254.073 289.164 240.57 281.989 235.008C274.813 229.446 278.223 227.058 276.07 216.491C274.256 207.793 276.734 203.962 274.84 201.408C273.307 199.282 268.474 201.385 267.79 212.492C267.736 214.31 267.448 219.112 264.674 218.922C262.353 218.867 261.15 215.41 260.516 213.702C257.402 205.475 259.765 195.787 255.059 188.066C254.707 187.357 254.154 186.77 253.471 186.377C253.129 186.201 252.738 186.146 252.36 186.221C251.982 186.295 251.639 186.495 251.385 186.789C251.227 187.087 251.119 187.409 251.066 187.743C250.27 192.178 250.92 196.814 249.918 201.202C249.157 204.466 247.529 207.606 247.803 210.937C247.909 212.257 248.327 213.542 248.328 214.88C248.108 216.716 247.714 218.527 247.151 220.289C246.315 224.681 248.962 229.113 250.462 233.057C252.151 237.261 254.421 241.2 257.206 244.757C258.324 246.204 268.588 253.909 271.389 255.961C278.022 260.946 296.553 273.778 309.567 281.735C321.238 288.865 326.506 290.264 336.561 280.61C349.582 268.202 364.375 251.989 364.375 251.989L383.367 196.463Z"
      fill="#FFC4C3" />
    <path
      d="M462.481 145.646C462.481 145.646 468.911 160.074 467.791 161.027C465.949 161.841 463.983 162.324 461.982 162.454L462.481 145.646Z"
      fill="#FFA8A7" />
    <path
      d="M447.871 110.467C453.237 114.517 462.966 119.462 464.502 137.409C464.782 140.505 462.81 144.863 462.593 148.657C462.362 152.931 463.312 157.88 462.82 161.187C460.227 178.724 453.985 184.59 450.478 186.929C447.668 188.805 435.098 187.467 428.98 184.339C421.31 180.443 405.259 168.775 399.407 153.942C392.514 136.497 394.248 115.141 406.963 108.863C424.701 100.051 442.545 106.46 447.871 110.467Z"
      fill="#FFC4C3" />
    <path
      d="M459.91 169.81C459.626 169.615 459.297 169.524 458.991 169.349L458.887 169.347L458.745 169.239C458.621 169.167 458.505 169.08 458.401 168.98L458.138 168.744L457.957 168.552C457.736 168.317 457.579 168.021 457.358 167.786C457.265 167.674 457.143 167.591 457.006 167.543C456.869 167.496 456.721 167.487 456.579 167.517C456.458 167.557 456.356 167.64 456.292 167.75C456.228 167.86 456.205 167.99 456.229 168.115L456.222 168.365C456.216 168.553 456.418 168.725 456.516 168.915C456.602 169.061 456.694 169.203 456.794 169.34C457.281 169.948 457.877 170.458 458.552 170.844C458.937 171.088 459.372 171.241 459.824 171.291C459.898 171.302 459.973 171.297 460.045 171.276C460.117 171.256 460.184 171.221 460.242 171.173C460.3 171.125 460.348 171.066 460.382 170.999C460.416 170.932 460.436 170.858 460.441 170.783C460.455 170.586 460.413 170.389 460.319 170.216C460.225 170.044 460.083 169.902 459.91 169.81Z"
      fill="#FFA8A7" />
    <path
      d="M449.951 187.263C446.741 188.384 438.333 187.62 432.309 185.632L431.805 180.229C434.778 182.077 437.88 183.706 441.087 185.104C443.909 186.287 446.899 187.016 449.951 187.263Z"
      fill="#F28F8F" />
    <path
      d="M458.61 104.191C459.164 104.387 459.704 104.623 460.225 104.897C463.032 106.507 465.403 108.784 467.133 111.532C469.707 115.706 471.003 120.557 470.861 125.485C470.988 128.609 470.104 131.696 468.34 134.281C466.2 136.722 463.348 138.418 460.199 139.123C461.148 137.71 461.68 136.056 461.73 134.356C461.781 132.655 461.349 130.979 460.485 129.524C460.373 133.28 459.692 138.067 457.191 140.661C455.198 142.771 452.582 144.176 449.738 144.663C450.414 147.075 450.271 149.651 449.333 151.983C449.107 152.672 448.694 153.285 448.141 153.751C446.551 154.946 445.131 153.242 444.425 151.931C443.954 151.043 443.609 150.095 443.16 149.187C442.678 147.907 441.909 146.758 440.912 145.829C439.916 144.9 438.719 144.217 437.415 143.832C435.997 143.454 434.497 143.503 433.1 143.971C431.702 144.439 430.468 145.306 429.547 146.467C428.515 148.405 427.904 150.542 427.757 152.732C427.609 154.922 427.928 157.115 428.692 159.164C430.179 162.791 432.347 165.118 434.857 165.699C435.854 165.929 436.892 165.929 437.892 165.699C438.892 165.47 439.83 165.016 440.635 164.372C440.635 164.372 435.645 178.184 423.286 180.672C423.286 180.672 409.93 181.843 399.366 175.519C398.186 174.823 396.86 170.636 396.132 169.345C394.755 166.891 393.295 164.455 391.834 162.019C389.634 158.051 387.836 153.867 386.468 149.531C383.062 140.096 383.577 129.75 385.925 119.802C387.68 112.367 394.649 105.138 394.649 105.138C397.471 102.197 399.307 98.982 402.856 96.7052C406.291 94.4531 410.102 92.8508 414.101 91.9773C422.722 90.1078 431.674 90.7006 439.946 93.6887C444.688 95.332 449.129 97.7421 453.096 100.825C454.59 102.414 456.516 103.526 458.635 104.024L458.61 104.191Z"
      fill="#F0997A" />
    <path
      d="M368.866 210.717C372.761 200.953 376.86 194.744 395.715 197.92L398.354 198.316C404.99 200.121 414.383 201.823 431.571 205.357C433.622 206.01 448.031 208.999 451.338 209.89C451.338 209.89 466.509 217.156 468.393 253.318C468.891 262.996 464.091 309.378 464.091 309.378C464.091 309.378 443.746 324.936 404.285 319.628C370.559 315.102 361.384 299.835 358.855 294.347C358.855 294.347 361.318 284.676 363.45 270.822C363.589 250.177 357.475 239.219 368.866 210.717Z"
      fill="#27A0F7" />
    <path
      d="M395.242 104.777C395.242 104.777 380.774 104.668 376.606 129.372C374.113 143.685 374.869 162.706 370.083 180.428C367.748 189.406 364.523 197.716 364.491 207.143C364.428 216.674 366.736 226.051 371.203 234.418C372.576 229.965 373.929 225.512 375.302 221.059C373.946 227.311 374.875 233.831 377.918 239.414C380.961 244.942 384.884 249.924 389.531 254.163C390.514 249.642 391.926 245.226 393.749 240.974C395.056 244.25 395.491 247.819 395.012 251.329C399.061 249.478 402.487 246.467 404.862 242.673C404.79 245.071 404.719 247.468 404.751 249.867C404.713 250.251 404.787 250.638 404.966 250.978C405.382 251.572 406.253 251.488 407.023 251.318C415.349 249.427 437.025 227.574 441.774 208.327L453.824 211.196C453.824 211.196 455.592 207.358 450.622 198.606C445.653 189.853 442.083 186.14 440.873 164.314C436.238 170.693 423.982 176.142 417.161 168.473C410.34 160.804 395.242 104.777 395.242 104.777Z"
      fill="#F0997A" />
    <path
      d="M498.94 314.33C504.068 312.775 508.018 306.945 515.854 291.914C525.626 273.183 530.707 269.073 538.068 249.826C544.195 235.76 538.786 213.622 532.862 208.588C519.187 212.289 511.123 218.38 502.869 234.217C495.472 248.442 484.459 269.782 477.733 282.411C471.601 283.553 465.451 284.645 459.281 285.688C454.208 286.547 449.137 287.364 444.068 288.14C438.694 288.915 433.183 290.106 428.14 287.457C426.335 286.6 424.634 285.535 423.072 284.285C421.274 282.695 419.582 281.065 417.633 279.66C413.851 276.865 409.676 274.653 405.243 273.096C404.928 272.948 404.578 272.89 404.232 272.926C402.708 273.247 403.084 275.913 403.553 276.865C405.056 279.976 408.245 282.205 410.511 284.768C410.932 285.259 411.409 285.94 411.101 286.519C410.793 287.098 410.17 287.125 409.61 287.133C405.631 287.041 402.088 284.866 398.864 282.448C395.639 280.03 392.268 277.671 388.319 277.266C386.728 277.083 385.127 277.192 383.578 277.01C382.055 276.57 380.507 276.22 378.943 275.961C378.153 275.854 377.348 276.03 376.669 276.457C375.989 276.885 375.478 277.537 375.223 278.302C374.921 280.053 376.638 281.578 376.667 283.358C376.63 284.591 375.849 285.724 375.688 286.955C375.39 289.271 377.344 291.178 378.529 293.131C379.338 294.509 379.809 296.069 380.662 297.365C381.784 298.903 383.144 300.248 384.69 301.35C386.712 303.05 388.858 304.773 391.095 306.269C393.331 307.765 395.658 308.99 398.006 310.216C409.665 316.261 423.092 316.656 435.978 316.41C442.971 316.258 449.983 316.169 456.997 316.038C465.629 315.861 474.283 315.685 482.919 315.383C488.223 315.491 493.529 315.123 498.775 314.285L498.94 314.33Z"
      fill="#FFA8A7" />
    <path
      d="M533.843 207.245C524.024 209.648 510.169 213.502 501.88 230.366C494.973 244.632 477.135 281.066 477.135 281.066L456.742 286.251C455.014 288.617 453.787 291.315 453.138 294.174C452.49 297.033 452.433 299.992 452.972 302.865C454.563 312.547 458.629 317.004 458.629 317.004C458.629 317.004 469.078 317.016 486.876 316.927C504.674 316.837 506.102 312.716 510.288 304.943C514.475 297.169 540.121 250.896 540.121 250.896C540.121 250.896 549.049 221.75 533.843 207.245Z"
      fill="#455A64" />
    <path
      d="M681.404 189.939C679.576 185.989 673.774 181.217 673.774 181.217C648.421 191.371 649.665 212.629 648.619 232.874C647.573 253.118 644.958 275.959 644.958 275.959C635.56 280.992 625.725 285.137 615.58 288.34C609.312 290.096 604.852 290.996 598.868 288.81C596.82 288.031 594.926 286.943 592.729 286.286C588.768 285.066 584.773 284.242 580.8 283.398C576.949 282.5 573.157 281.366 569.446 280.001C567.19 279.239 565.299 280.135 565.775 282.884C566.486 286.787 570.523 288.949 572.885 291.678C574.887 294.002 572.514 295.075 570.209 295.231C566.884 295.61 563.523 295.254 560.359 294.188C556.981 293.136 553.55 292.261 550.079 291.568C546.817 290.603 543.328 290.698 540.106 291.839C538.322 292.592 536.944 293.647 537.193 295.7C537.275 296.392 537.966 296.867 538.393 297.128C538.709 297.302 539.046 297.436 539.396 297.527L540.156 297.733C540.566 297.868 541.309 297.989 541.738 298.187C543.178 298.956 544.438 300.025 545.434 301.324C546.699 302.648 548.618 303.612 550.031 304.836C551.444 306.06 551.77 308.324 553.079 309.566C554.388 310.808 556.013 310.491 557.418 311.317C558.823 312.144 559.42 313.62 560.888 314.406C563.094 315.673 565.597 316.329 568.144 316.308C573.561 316.334 578.977 316.061 584.369 315.493C589.756 314.678 595.18 314.147 600.618 313.904C615.24 313.344 642.558 310.862 668.23 301.133C678.059 297.411 677.617 290.088 679.897 276.997C682.782 260.347 685.967 232.358 685.867 221.239C685.751 205.879 686.286 200.479 681.404 189.939Z"
      fill="#C8856A" />
    <path
      d="M804.329 138.515C789.069 142.582 785.799 143.674 778.385 170.047C774.278 184.549 762.091 231.831 762.091 231.831L783.7 255.916C783.7 255.916 791.143 258.737 797.355 243.491C803.413 228.576 816.732 197.148 816.732 197.148C816.732 197.148 820.133 148.557 804.329 138.515Z"
      fill="#37474F" />
    <path
      d="M788.974 254.116C783.011 258.583 763.738 253.909 754.737 244.952C745.736 235.995 726.346 208.4 719.263 199.802C712.179 191.203 708.474 195.094 701.92 192.347C696.983 190.581 692.193 188.426 687.595 185.904C684.786 184.059 681.562 182.948 678.212 182.67C674.862 182.392 671.49 182.955 668.396 184.309C668.273 179.45 676.695 177.321 684.69 175.623C692.685 173.924 697.167 174.551 706.24 174.259C714.441 173.988 721.262 174.753 729.829 180.916C739.289 187.707 755.501 200.347 764.791 206.59C774.792 213.372 783.52 219.686 789.197 230.889C793.325 239.106 792.305 251.64 788.974 254.116Z"
      fill="#FFBDA7" />
    <path
      d="M446.624 206.705C470.58 208.514 473.195 215.329 489.143 230.024C504.787 244.459 523.196 260.805 523.196 260.805C523.196 260.805 571.534 253.754 575.186 252.39C578.935 250.659 582.275 248.13 584.978 244.979C587.029 242.453 589.385 240.195 591.989 238.259C594.107 236.839 596.228 235.315 598.352 233.727C600.475 232.14 602.772 230.304 602.885 234.125C602.923 236.218 602.34 238.28 601.211 240.044C600.471 241.16 599.429 241.975 598.63 243.006C597.809 244.093 597.079 245.249 596.45 246.459C594.252 250.5 600.015 250.024 602.57 249.935C606.605 249.887 610.544 248.627 613.886 246.314C616.878 244.138 620.417 241.052 623.981 243.966C624.13 244.117 624.323 244.217 624.533 244.251C624.703 244.234 624.865 244.165 624.995 244.052C625.865 243.483 626.852 243.126 627.878 243.007C628.905 242.889 629.942 243.013 630.909 243.37C631.255 243.492 631.567 243.696 631.818 243.964C632.07 244.232 632.254 244.558 632.357 244.913C632.738 246.705 630.578 248.145 630.461 249.926C630.462 250.391 630.503 250.856 630.585 251.313C630.643 253.217 630.044 255.087 628.889 256.603C627.824 258.172 626.476 259.526 625.33 261.031C624.842 261.666 624.437 262.362 624.126 263.101C623.011 266.232 620.9 268.907 618.126 270.705C612.523 274.736 606.131 277.495 599.39 278.792C592.376 280.162 585.436 277.737 578.383 278.309C573.867 278.73 538.523 292.519 517.238 297.065C512.81 298.012 507.106 295.175 502.97 292.668C494.617 287.546 469.89 266.734 453.979 253.572C432.735 230.134 446.624 206.705 446.624 206.705Z"
      fill="#FFC4C3" />
    <path
      d="M300.726 161.831C317.968 168.885 324.221 175.268 333.921 201.589C339.266 216.148 354.041 252.997 354.041 252.997L332.223 278.567C332.223 278.567 324.649 281.751 317.905 266.324C311.336 251.257 292.263 215.832 292.263 215.832C292.263 215.832 281.964 171.681 300.726 161.831Z"
      fill="#F0F0F0" />
    <path
      d="M325.616 276.797C331.678 282.129 353.003 278.666 363.666 269.681C374.329 260.696 397.978 232.396 406.539 223.655C415.099 214.915 418.675 219.456 426.071 217.032C433.466 214.607 436.217 214.189 442.28 211.231C450.068 207.455 454.533 207.977 462.933 209.386C459.198 201.868 454.935 202.92 446.446 200.337C437.957 197.754 432.925 198.14 423.209 197.057C414.36 196.078 406.885 196.344 396.977 202.291C386.054 208.883 367.223 221.154 356.523 227.229C345.022 233.745 334.923 239.855 327.684 251.536C322.384 260.143 322.263 273.81 325.616 276.797Z"
      fill="#B16668" />
    <path
      d="M294.431 156.13C293.266 155.559 292.409 154.388 291.33 153.736C290.51 153.275 289.563 153.092 288.629 153.213C287.567 153.356 286.534 153.897 285.536 153.978C284.538 154.06 283.469 153.742 282.39 153.78C281.488 153.862 280.604 154.096 279.777 154.473C276.07 155.88 272.41 157.385 268.794 158.99C266.392 160.103 264.056 161.355 261.796 162.741C259.426 164.185 257.23 165.904 255.254 167.863C247.709 175.305 219.32 200.679 218.509 201.434C218.509 201.434 213.738 193.917 201.94 175.941C190.142 157.965 180.273 142.733 164.872 139.719C146.183 154.29 164.03 185.568 164.03 185.568C164.03 185.568 184.148 213.027 198.171 229.422C207.745 240.672 212.548 244.403 220.126 241.356C227.705 238.309 237.804 227.996 243.19 220.65C250.045 211.33 261.854 191.786 267.132 183.162C272.411 174.537 276.579 177.312 282.254 174.807C287.929 172.302 289.252 169.696 293.569 166.134C295.099 164.906 296.882 164.043 298.785 163.608C300.687 163.174 302.66 163.18 304.553 163.626C305.911 164.036 307.227 164.571 308.487 165.223C307.458 163.036 305.905 161.144 303.966 159.72C302.085 158.021 299.744 156.926 297.238 156.572C296.443 156.582 295.651 156.486 294.882 156.287L294.431 156.13Z"
      fill="#FFA8A7" />
    <path
      d="M164.494 137.876C171.161 139.833 177.252 143.38 182.254 148.221C185.362 151.444 191.699 160.021 191.699 160.021C191.699 160.021 179.682 163.583 174.047 173.553C170.683 179.52 168.727 186.182 168.333 193.016C168.333 193.016 165.729 190.222 161.159 184.065C156.589 177.907 146.57 150.15 164.494 137.876Z"
      fill="#37474F" />
  </g>
  <defs>
    <clipPath id="clip0_9_1633">
      <rect width="994.855" height="324" fill="white" />
    </clipPath>
  </defs>
</svg>