<svg width="248" height="162" viewBox="0 0 248 162" fill="none" xmlns="http://www.w3.org/2000/svg">
  <path
    d="M175.377 106.257C173.515 106.257 171.916 105.752 170.623 104.762C157.955 94.8519 169.335 63.475 184.213 37.4233L184.307 37.2615C185.783 34.697 188.412 32.9023 190.697 32.9023C192.258 32.9023 193.542 33.731 194.525 35.3639C195.573 37.134 195.207 38.6197 194.106 40.9145C192.917 43.3025 191.445 46.0238 189.884 48.907C183.394 60.8909 175.321 75.8071 176.289 87.3938C176.816 92.817 179.915 93.6211 181.716 93.6211C187.979 93.6211 197.421 84.0154 199.608 81.446C199.857 81.1469 200.205 80.9998 200.633 80.9998C201.362 80.9998 202.317 81.4607 202.824 82.4953C203.525 83.9222 203.097 85.8787 201.621 88.0165C195.682 96.6465 183.441 106.257 175.372 106.257H175.377Z"
    fill="#27A0F7" />
  <path
    d="M203.71 106.257C201.813 106.257 200.185 105.752 198.868 104.762C185.965 94.8519 197.555 63.475 212.709 37.4233L212.805 37.2615C214.309 34.697 216.986 32.9023 219.313 32.9023C220.904 32.9023 222.211 33.731 223.212 35.3639C224.28 37.134 223.906 38.6197 222.786 40.9145C221.574 43.3025 220.075 46.0238 218.485 48.907C211.876 60.8909 203.652 75.8071 204.639 87.3938C205.175 92.817 208.331 93.6211 210.166 93.6211C216.545 93.6211 226.162 84.0154 228.389 81.446C228.643 81.1469 228.998 80.9998 229.433 80.9998C230.176 80.9998 231.148 81.4607 231.665 82.4953C232.379 83.9222 231.943 85.8787 230.439 88.0165C224.39 96.6465 211.923 106.257 203.705 106.257H203.71Z"
    fill="#27A0F7" />
  <path
    d="M173.237 77.3036C173.237 77.3036 173.228 77.2987 173.228 77.2938C171.908 76.3823 171.011 76.0295 170.233 76.1177C169.782 76.1667 169.317 76.3627 168.776 76.74C168.187 77.1321 167.604 77.872 167.034 78.5826C166.801 78.8766 166.564 79.1706 166.355 79.4157C159.697 87.6141 151.211 96.1702 138.743 97.513L138.311 97.5571C137.452 97.6502 136.621 97.6404 135.81 97.5375C131.026 96.7534 128.548 93.8033 126.987 90.7896L129.199 90.3534C135.136 89.1822 140.864 86.9329 145.753 83.8555C155.159 77.8377 156.507 69.6491 154.637 63.9989C152.867 58.6574 147.594 53.6443 139.792 54.4823C136.218 54.8645 132.587 56.4572 128.995 59.2112C120.969 65.2828 115.71 76.1765 115.915 86.3204C116.019 91.5197 117.628 98.7479 124.685 103.643C129.483 106.912 135.022 108.235 141.154 107.574C154.851 106.099 168.496 95.0039 174.917 84.7816C176.45 82.4588 175.705 79.2834 173.237 77.3036ZM134.443 67.3655C136.204 66.0669 137.988 65.2877 139.607 65.1162C141.999 64.8614 143.935 65.915 144.675 67.8752C145.425 69.8745 144.88 73.0353 141.121 75.907C138.776 77.7887 136.436 78.9011 134.353 79.1216C131.975 79.3765 130.081 78.3915 129.408 76.5538C128.416 73.8488 130.3 70.4136 134.443 67.3655Z"
    fill="#27A0F7" />
  <path
    d="M118.35 24.7935C117.802 20.5785 114.564 15.8604 111.055 15.8604C110.051 15.8604 109.047 16.2543 108.107 17.009C106.288 18.547 105.943 20.4504 106.827 24.0056C111.211 40.6188 101.858 66.9864 94.1483 79.5793C88.829 88.1612 83.8506 92.699 79.7564 92.699C78.1767 92.699 76.749 92.0297 75.6161 90.7671C72.2265 86.984 72.0976 78.7106 72.5857 72.4166C73.1614 66.0656 74.3312 59.6908 75.4641 53.5297C75.9569 50.8336 76.4543 48.128 76.9102 45.3987C77.7162 40.7233 76.2148 37.9275 71.9225 36.0716C71.135 35.7535 70.3982 35.5969 69.7304 35.5969C67.8974 35.5969 66.2947 36.831 64.6874 39.4891C61.3209 45.0522 58.0695 50.8668 54.6292 57.0185C48.5777 67.8408 42.365 78.948 35.4292 88.7213C33.0436 91.7734 30.2896 94.5834 28.6409 93.8809C26.5961 93.0075 27.5033 85.8401 28.3001 81.3403C29.4745 75.2978 30.9298 69.3075 32.362 63.4264L32.9009 61.205C33.3614 59.3064 33.9693 57.2321 34.6095 55.0391C36.0187 50.226 37.5662 44.9145 37.8609 40.4432C37.8609 40.4242 37.8609 40.4005 37.8609 40.3815C37.8471 37.4054 36.9813 34.4719 33.8634 33.665C29.7277 32.597 27.7658 36.8547 26.8586 40.4527C26.2461 42.8687 12.9733 92.2006 16.6392 102.843C18.3662 107.765 21.8479 110.703 25.9559 110.703C27.6553 110.703 29.3916 110.209 31.1278 109.236C35.2312 106.982 40.1682 101.305 43.0144 96.9899C46.0908 92.286 49.1257 87.4682 52.064 82.807C53.9891 79.7501 55.9141 76.698 57.8576 73.6649L59.709 70.7742C60.0037 70.3091 60.7038 70.5369 60.6899 71.0923L60.5932 74.5573C60.2156 87.8004 62.4492 97.3792 67.05 102.263C69.3527 104.708 72.2265 105.947 75.5839 105.947C84.2605 105.947 95.424 97.4978 103.359 84.9382C112.261 70.6461 120.606 42.432 118.35 24.803V24.7935Z"
    fill="#27A0F7" />
  <rect x="111.728" y="117" width="32.3873" height="29.0558" rx="8.02361" fill="#27A0F7" />
  <path
    d="M129.139 134.279L127.387 133.586C127.454 132.881 127.64 132.245 127.945 131.681C128.263 131.116 128.675 130.635 129.179 130.237C129.697 129.839 130.301 129.531 130.991 129.313C131.681 129.095 132.438 128.985 133.261 128.985C134.111 128.985 134.874 129.095 135.551 129.313C136.241 129.518 136.825 129.82 137.303 130.218C137.781 130.603 138.146 131.077 138.398 131.642C138.65 132.194 138.776 132.81 138.776 133.49V140.608H135.829V133.856C135.829 133.458 135.77 133.092 135.65 132.759C135.544 132.412 135.372 132.111 135.133 131.854C134.907 131.597 134.615 131.398 134.257 131.257C133.911 131.103 133.5 131.026 133.022 131.026C132.345 131.026 131.748 131.174 131.23 131.469C130.712 131.764 130.341 132.13 130.115 132.566L130.852 132.836C131.33 133.015 131.655 133.221 131.827 133.452C132 133.683 132.086 134.029 132.086 134.491V140.608H129.139V134.279Z"
    fill="white" />
  <path
    d="M124.821 127.17C123.57 127.17 122.617 126.94 121.963 126.48C121.308 126.009 120.981 125.307 120.981 124.376C120.981 123.631 121.182 123.066 121.584 122.681C121.986 122.284 122.497 122.085 123.117 122.085C123.736 122.085 124.224 122.265 124.58 122.625C124.925 122.985 125.097 123.445 125.097 124.003C125.097 124.363 125.028 124.655 124.89 124.879C124.741 125.102 124.586 125.251 124.425 125.326V125.363H125.183C125.837 125.363 126.308 125.158 126.595 124.748C126.882 124.326 127.026 123.705 127.026 122.886V122.532H129.523V122.886C129.523 124.388 129.127 125.481 128.335 126.164C127.542 126.834 126.371 127.17 124.821 127.17ZM123.117 125.121C123.346 125.121 123.524 125.046 123.65 124.897C123.777 124.748 123.84 124.537 123.84 124.264C123.84 123.991 123.777 123.78 123.65 123.631C123.524 123.482 123.346 123.407 123.117 123.407C122.887 123.407 122.709 123.482 122.583 123.631C122.456 123.78 122.393 123.991 122.393 124.264C122.393 124.537 122.456 124.748 122.583 124.897C122.709 125.046 122.887 125.121 123.117 125.121Z"
    fill="white" />
  <path
    d="M122.835 140.608C122.447 140.608 122.087 140.547 121.753 140.427C121.433 140.32 121.152 140.165 120.912 139.964C120.671 139.75 120.484 139.495 120.351 139.2C120.217 138.892 120.151 138.55 120.151 138.175C120.151 137.464 120.378 136.901 120.832 136.486C121.286 136.057 121.867 135.815 122.574 135.762V135.661C122.574 135.447 122.514 135.286 122.394 135.179C122.287 135.071 122.073 135.004 121.753 134.978L117.066 134.596V133.409C117.066 132.726 117.18 132.116 117.407 131.579C117.647 131.03 117.974 130.567 118.388 130.192C118.815 129.803 119.323 129.508 119.91 129.307C120.498 129.093 121.145 128.985 121.853 128.985C122.908 128.985 123.776 129.133 124.457 129.428C125.138 129.709 125.759 130.138 126.32 130.715L124.978 132.645C124.631 132.176 124.19 131.807 123.656 131.539C123.135 131.258 122.594 131.117 122.033 131.117C121.339 131.117 120.812 131.271 120.451 131.579C120.091 131.874 119.89 132.276 119.85 132.786L122.274 132.967C122.768 133.007 123.215 133.067 123.616 133.148C124.016 133.228 124.357 133.369 124.637 133.57C124.918 133.771 125.131 134.046 125.278 134.394C125.438 134.743 125.519 135.199 125.519 135.762V138.175C125.519 138.55 125.445 138.892 125.298 139.2C125.165 139.495 124.978 139.75 124.737 139.964C124.497 140.165 124.21 140.32 123.876 140.427C123.556 140.547 123.208 140.608 122.835 140.608ZM122.714 137.169C122.434 137.169 122.2 137.263 122.013 137.451C121.84 137.625 121.753 137.866 121.753 138.175C121.753 138.483 121.84 138.731 122.013 138.919C122.2 139.093 122.434 139.18 122.714 139.18C122.995 139.18 123.222 139.093 123.395 138.919C123.582 138.731 123.676 138.483 123.676 138.175C123.676 137.866 123.582 137.625 123.395 137.451C123.222 137.263 122.995 137.169 122.714 137.169Z"
    fill="white" />
  <path
    d="M190.455 142.426C189.861 142.426 189.314 142.351 188.811 142.2C188.309 142.064 187.883 141.861 187.533 141.589C187.183 141.318 186.909 140.993 186.711 140.616C186.513 140.239 186.415 139.809 186.415 139.327V138.965C185.578 138.934 184.885 138.678 184.337 138.195C183.805 137.713 183.538 137.064 183.538 136.249C183.538 135.42 183.827 134.764 184.406 134.281C184.984 133.783 185.707 133.534 186.574 133.534C187.487 133.534 188.218 133.791 188.766 134.304C189.329 134.801 189.61 135.495 189.61 136.385V139.236C189.61 139.508 189.679 139.711 189.816 139.847C189.968 139.968 190.151 140.028 190.364 140.028C190.577 140.028 190.752 139.968 190.889 139.847C191.041 139.711 191.117 139.508 191.117 139.236V134.553C191.117 133.693 190.835 133.037 190.272 132.584C189.724 132.132 188.971 131.905 188.012 131.905C187.16 131.905 186.43 132.064 185.821 132.38C185.228 132.697 184.733 133.112 184.337 133.625L182.26 131.792C182.884 131.053 183.683 130.465 184.657 130.027C185.631 129.575 186.879 129.349 188.4 129.349C190.44 129.349 191.961 129.786 192.966 130.661C193.985 131.521 194.495 132.69 194.495 134.168V139.327C194.495 139.809 194.396 140.239 194.198 140.616C194.001 140.993 193.727 141.318 193.377 141.589C193.027 141.861 192.601 142.064 192.098 142.2C191.596 142.351 191.048 142.426 190.455 142.426ZM186.483 137.358C186.787 137.358 187.038 137.26 187.236 137.064C187.449 136.868 187.556 136.596 187.556 136.249C187.556 135.903 187.449 135.631 187.236 135.435C187.038 135.239 186.787 135.141 186.483 135.141C186.179 135.141 185.92 135.239 185.707 135.435C185.509 135.631 185.41 135.903 185.41 136.249C185.41 136.596 185.509 136.868 185.707 137.064C185.92 137.26 186.179 137.358 186.483 137.358Z"
    fill="#27A0F7" />
  <path
    d="M178.842 142.378C177.99 142.378 177.28 142.129 176.712 141.631C176.159 141.118 175.883 140.417 175.883 139.527L175.883 130.067C175.883 129.75 175.883 129.471 175.883 129.23C175.898 128.989 175.935 128.77 175.995 128.574C176.055 128.363 176.137 128.174 176.242 128.008C176.361 127.827 176.533 127.654 176.757 127.488L177.587 126.854C178.05 126.507 178.371 126.19 178.551 125.904C178.73 125.602 178.82 125.248 178.82 124.84C178.82 124.358 178.64 123.973 178.282 123.687C177.923 123.4 177.452 123.257 176.869 123.257C176.271 123.257 175.793 123.445 175.435 123.822C175.076 124.199 174.792 124.727 174.583 125.406L172.184 124.049C172.333 123.611 172.535 123.189 172.789 122.782C173.043 122.359 173.365 121.99 173.753 121.673C174.157 121.356 174.627 121.107 175.166 120.926C175.718 120.73 176.354 120.632 177.071 120.632C177.759 120.632 178.401 120.715 178.999 120.881C179.612 121.047 180.135 121.296 180.568 121.628C181.002 121.944 181.345 122.337 181.599 122.804C181.853 123.257 181.981 123.777 181.981 124.365C181.981 125.12 181.816 125.776 181.487 126.334C181.159 126.877 180.665 127.412 180.008 127.94L179.201 128.596L179.201 136.97C179.963 137.046 180.583 137.325 181.061 137.807C181.555 138.275 181.801 138.893 181.801 139.663C181.801 140.507 181.517 141.171 180.949 141.654C180.396 142.136 179.694 142.378 178.842 142.378ZM178.932 140.771C179.231 140.771 179.477 140.673 179.672 140.477C179.866 140.281 179.963 140.01 179.963 139.663C179.963 139.316 179.866 139.044 179.672 138.848C179.477 138.652 179.231 138.554 178.932 138.554C178.633 138.554 178.386 138.652 178.192 138.848C177.998 139.044 177.9 139.316 177.9 139.663C177.9 140.01 177.998 140.281 178.192 140.477C178.386 140.673 178.633 140.771 178.932 140.771Z"
    fill="#27A0F7" />
  <path
    d="M169.95 142.424V133.876C169.95 133.291 169.793 132.829 169.48 132.49C169.182 132.136 168.696 131.959 168.025 131.959C167.383 131.959 166.868 132.105 166.48 132.398C166.092 132.691 165.771 133.029 165.517 133.414L163.547 131.659C164.025 130.935 164.622 130.373 165.338 129.972C166.07 129.557 167.047 129.349 168.271 129.349C169.913 129.349 171.152 129.726 171.987 130.481C172.838 131.235 173.264 132.336 173.264 133.784V142.424H169.95Z"
    fill="#27A0F7" />
  <path
    d="M149.594 139.998V134.87C148.832 134.793 148.204 134.516 147.711 134.038C147.233 133.561 146.994 132.922 146.994 132.121C146.994 131.258 147.27 130.581 147.823 130.088C148.391 129.595 149.101 129.349 149.953 129.349C150.805 129.349 151.507 129.61 152.06 130.134C152.628 130.642 152.912 131.351 152.912 132.259V139.998H155.938C156.581 139.998 157.082 139.836 157.44 139.513C157.799 139.174 157.978 138.712 157.978 138.127V137.18H156.23C155.199 137.18 154.414 136.98 153.876 136.579C153.353 136.179 153.091 135.594 153.091 134.824C153.091 134.1 153.301 133.53 153.719 133.114C154.153 132.683 154.728 132.467 155.445 132.467C156.163 132.467 156.731 132.683 157.149 133.114C157.582 133.53 157.799 134.1 157.799 134.824C157.799 135.101 157.754 135.355 157.665 135.586C157.724 135.54 157.829 135.486 157.978 135.424V129.349H161.296V135.17H162.801V137.18H161.296V138.035C161.296 139.436 160.855 140.522 159.974 141.292C159.107 142.046 157.881 142.424 156.297 142.424H147.846V139.998H149.594ZM149.863 133.253C150.162 133.253 150.409 133.153 150.603 132.952C150.797 132.752 150.894 132.475 150.894 132.121C150.894 131.767 150.797 131.489 150.603 131.289C150.409 131.089 150.162 130.989 149.863 130.989C149.564 130.989 149.318 131.089 149.123 131.289C148.929 131.489 148.832 131.767 148.832 132.121C148.832 132.475 148.929 132.752 149.123 132.952C149.318 133.153 149.564 133.253 149.863 133.253ZM155.445 135.794C155.714 135.794 155.924 135.709 156.073 135.54C156.237 135.37 156.32 135.132 156.32 134.824C156.32 134.516 156.237 134.277 156.073 134.107C155.924 133.938 155.714 133.853 155.445 133.853C155.176 133.853 154.96 133.938 154.795 134.107C154.646 134.277 154.571 134.516 154.571 134.824C154.571 135.132 154.646 135.37 154.795 135.54C154.96 135.709 155.176 135.794 155.445 135.794Z"
    fill="#27A0F7" />
  <path
    d="M105.849 142.424C105.121 142.424 104.5 142.258 103.985 141.926C103.485 141.579 103.144 141.104 102.962 140.501L99.5984 142.424H96.3711V134.755C95.5983 134.68 94.9619 134.408 94.4619 133.941C93.977 133.473 93.7346 132.847 93.7346 132.063C93.7346 131.219 94.0149 130.555 94.5756 130.073C95.1513 129.59 95.871 129.349 96.7347 129.349C97.5984 129.349 98.3105 129.605 98.8711 130.118C99.4469 130.615 99.7348 131.309 99.7348 132.199V139.551H99.8712L103.53 137.764V129.349H106.894V135.931C106.894 136.082 106.879 136.241 106.849 136.406C106.833 136.572 106.773 136.738 106.667 136.904C107.318 137.055 107.841 137.372 108.235 137.854C108.644 138.322 108.849 138.91 108.849 139.619C108.849 140.478 108.568 141.165 108.008 141.677C107.447 142.175 106.727 142.424 105.849 142.424ZM105.849 140.818C106.212 140.818 106.493 140.72 106.69 140.524C106.887 140.328 106.985 140.086 106.985 139.8V139.438C106.985 139.151 106.887 138.91 106.69 138.714C106.493 138.518 106.212 138.42 105.849 138.42C105.485 138.42 105.205 138.518 105.008 138.714C104.811 138.91 104.712 139.151 104.712 139.438V139.8C104.712 140.086 104.811 140.328 105.008 140.524C105.205 140.72 105.485 140.818 105.849 140.818ZM96.6438 133.172C96.9468 133.172 97.1968 133.074 97.3938 132.878C97.5908 132.682 97.6893 132.41 97.6893 132.063C97.6893 131.716 97.5908 131.445 97.3938 131.249C97.1968 131.053 96.9468 130.955 96.6438 130.955C96.3408 130.955 96.0907 131.053 95.8938 131.249C95.6968 131.445 95.5983 131.716 95.5983 132.063C95.5983 132.41 95.6968 132.682 95.8938 132.878C96.0907 133.074 96.3408 133.172 96.6438 133.172Z"
    fill="#27A0F7" />
  <path
    d="M86.0388 142.424C84.2464 142.424 82.8718 142.092 81.9148 141.428C80.9731 140.765 80.5022 139.747 80.5022 138.375V136.723C80.5022 135.758 80.7832 134.981 81.3452 134.393C81.9073 133.79 82.6667 133.488 83.6237 133.488C84.4743 133.488 85.173 133.73 85.7198 134.212C86.2819 134.695 86.5629 135.358 86.5629 136.203C86.5629 137.002 86.3122 137.643 85.811 138.126C85.3097 138.593 84.6718 138.857 83.8971 138.917C84.0186 139.551 84.4971 139.868 85.3325 139.868H86.7451C87.2312 139.868 87.5958 139.754 87.8388 139.528C88.0818 139.302 88.2033 138.993 88.2033 138.601V134.71C88.2033 133.835 87.9223 133.149 87.3603 132.651C86.7983 132.154 86.0312 131.905 85.0591 131.905C84.5426 131.905 84.087 131.958 83.692 132.063C83.3123 132.169 82.9705 132.312 82.6667 132.493C82.3781 132.659 82.1275 132.847 81.9148 133.059C81.7022 133.27 81.5123 133.481 81.3452 133.692L79.3402 131.86C79.5832 131.528 79.887 131.211 80.2516 130.91C80.6161 130.593 81.049 130.321 81.5503 130.095C82.0516 129.869 82.6288 129.688 83.2819 129.552C83.9351 129.416 84.6718 129.349 85.492 129.349C87.4818 129.349 88.9932 129.809 90.0261 130.729C91.059 131.648 91.5754 132.945 91.5754 134.619V138.375C91.5754 139.747 91.097 140.765 90.14 141.428C89.1983 142.092 87.8312 142.424 86.0388 142.424ZM83.6692 137.311C83.973 137.311 84.2237 137.213 84.4211 137.017C84.6338 136.821 84.7401 136.55 84.7401 136.203C84.7401 135.856 84.6338 135.585 84.4211 135.389C84.2237 135.192 83.973 135.094 83.6692 135.094C83.3655 135.094 83.1072 135.192 82.8946 135.389C82.6971 135.585 82.5984 135.856 82.5984 136.203C82.5984 136.55 82.6971 136.821 82.8946 137.017C83.1072 137.213 83.3655 137.311 83.6692 137.311Z"
    fill="#27A0F7" />
  <path d="M76.0793 120.572H73.7791L73.4474 117H76.411L76.0793 120.572Z" fill="#27A0F7" />
  <path
    d="M64.6255 126.883C64.6255 126.154 64.7434 125.499 64.9794 124.919C65.2153 124.324 65.5396 123.818 65.9525 123.401C66.3506 122.984 66.8224 122.664 67.368 122.441C67.9135 122.203 68.4959 122.084 69.1152 122.084C69.528 122.084 69.9335 122.129 70.3316 122.218V121.146H72.8087V123.446C72.9561 123.565 73.0888 123.691 73.2068 123.825C73.3248 123.944 73.4427 124.078 73.5607 124.227H73.6491V121.146H76.3032V127.776H64.6255V126.883ZM70.1989 124.182C69.4027 124.182 68.7171 124.361 68.1421 124.718C67.567 125.06 67.2279 125.514 67.1247 126.08H73.6713C73.5533 125.514 73.1921 125.06 72.5875 124.718C71.9683 124.361 71.1721 124.182 70.1989 124.182Z"
    fill="#27A0F7" />
  <path
    d="M63.9103 134.87C63.159 134.793 62.5403 134.516 62.0541 134.038C61.5827 133.561 61.347 132.922 61.347 132.121C61.347 131.259 61.6196 130.581 62.1646 130.088C62.7244 129.595 63.4241 129.349 64.2638 129.349C65.1035 129.349 65.7958 129.611 66.3409 130.134C66.9007 130.643 67.1806 131.351 67.1806 132.26V136.117L67.0701 139.629H67.1806L69.3239 129.996H71.0475L73.1908 139.629H73.3013L73.1908 136.117V129.626H76.4611V140.899C76.4611 141.346 76.3507 141.716 76.1297 142.008C75.9087 142.285 75.5625 142.424 75.0911 142.424H72.2849L70.2299 133.161H70.1415L68.0865 142.424H63.9103V134.87ZM64.1754 133.253C64.47 133.253 64.7131 133.153 64.9046 132.953C65.0961 132.752 65.1919 132.475 65.1919 132.121C65.1919 131.767 65.0961 131.49 64.9046 131.289C64.7131 131.089 64.47 130.989 64.1754 130.989C63.8808 130.989 63.6377 131.089 63.4462 131.289C63.2547 131.49 63.159 131.767 63.159 132.121C63.159 132.475 63.2547 132.752 63.4462 132.953C63.6377 133.153 63.8808 133.253 64.1754 133.253Z"
    fill="#27A0F7" />
  <path
    d="M57.0694 142.512C56.229 142.512 55.5286 142.267 54.9683 141.776C54.4228 141.27 54.15 140.578 54.15 139.7V129.878H57.4233V137.177C58.1753 137.252 58.7872 137.527 59.259 138.003C59.7456 138.464 59.9889 139.075 59.9889 139.834C59.9889 140.667 59.7087 141.322 59.1484 141.798C58.6029 142.274 57.9099 142.512 57.0694 142.512ZM57.1579 140.927C57.4528 140.927 57.6961 140.831 57.8878 140.637C58.0794 140.444 58.1753 140.176 58.1753 139.834C58.1753 139.491 58.0794 139.223 57.8878 139.03C57.6961 138.836 57.4528 138.74 57.1579 138.74C56.863 138.74 56.6197 138.836 56.4281 139.03C56.2364 139.223 56.1405 139.491 56.1405 139.834C56.1405 140.176 56.2364 140.444 56.4281 140.637C56.6197 140.831 56.863 140.927 57.1579 140.927Z"
    fill="#27A0F7" />
</svg>