<svg width="310" height="203" viewBox="0 0 310 203" fill="none" xmlns="http://www.w3.org/2000/svg">
  <path
    d="M219.221 132.821C216.894 132.821 214.895 132.19 213.279 130.952C197.444 118.565 211.668 79.3438 230.266 46.7791L230.383 46.5768C232.229 43.3712 235.515 41.1279 238.371 41.1279C240.323 41.1279 241.928 42.1638 243.156 44.2048C244.467 46.4175 244.008 48.2746 242.633 51.1431C241.146 54.1281 239.306 57.5298 237.355 61.1338C229.243 76.1137 219.151 94.7588 220.362 109.242C221.02 116.021 224.894 117.026 227.145 117.026C234.974 117.026 246.777 105.019 249.51 101.807C249.822 101.434 250.257 101.25 250.791 101.25C251.702 101.25 252.896 101.826 253.53 103.119C254.406 104.903 253.871 107.348 252.026 110.021C244.602 120.808 229.302 132.821 219.215 132.821H219.221Z"
    fill="#27A0F7" />
  <path
    d="M254.637 132.821C252.266 132.821 250.231 132.19 248.585 130.952C232.456 118.565 246.944 79.3438 265.886 46.7791L266.006 46.5768C267.886 43.3712 271.232 41.1279 274.142 41.1279C276.129 41.1279 277.764 42.1638 279.015 44.2048C280.35 46.4175 279.883 48.2746 278.482 51.1431C276.968 54.1281 275.094 57.5298 273.106 61.1338C264.844 76.1137 254.565 94.7588 255.798 109.242C256.469 116.021 260.414 117.026 262.707 117.026C270.681 117.026 282.703 105.019 285.487 101.807C285.804 101.434 286.247 101.25 286.792 101.25C287.72 101.25 288.935 101.826 289.582 103.119C290.474 104.903 289.929 107.348 288.049 110.021C280.488 120.808 264.904 132.821 254.631 132.821H254.637Z"
    fill="#27A0F7" />
  <path
    d="M216.546 96.6295C216.546 96.6295 216.534 96.6234 216.534 96.6172C214.885 95.4779 213.764 95.0368 212.791 95.1471C212.227 95.2084 211.646 95.4534 210.97 95.925C210.234 96.4151 209.504 97.34 208.792 98.2282C208.502 98.5958 208.205 98.9633 207.944 99.2696C199.621 109.518 189.013 120.213 173.429 121.891L172.889 121.946C171.815 122.063 170.777 122.05 169.762 121.922C163.782 120.942 160.686 117.254 158.734 113.487L161.498 112.942C168.92 111.478 176.08 108.666 182.191 104.819C193.949 97.2972 195.634 87.0614 193.297 79.9986C191.084 73.3218 184.493 67.0554 174.74 68.1029C170.273 68.5806 165.734 70.5714 161.243 74.014C151.211 81.6035 144.638 95.2206 144.893 107.9C145.024 114.4 147.035 123.435 155.856 129.554C161.854 133.64 168.778 135.294 176.442 134.467C193.564 132.623 210.62 118.755 218.646 105.977C220.563 103.074 219.631 99.1042 216.546 96.6295ZM168.054 84.2069C170.255 82.5836 172.485 81.6097 174.508 81.3953C177.498 81.0767 179.919 82.3937 180.844 84.8439C181.782 87.3432 181.099 91.2941 176.401 94.8837C173.47 97.2359 170.545 98.6264 167.941 98.9021C164.969 99.2206 162.602 97.9893 161.759 95.6923C160.519 92.311 162.875 88.017 168.054 84.2069Z"
    fill="#27A0F7" />
  <path
    d="M147.937 30.9919C147.252 25.7231 143.205 19.8254 138.818 19.8254C137.563 19.8254 136.308 20.3179 135.134 21.2613C132.86 23.1837 132.428 25.5629 133.534 30.007C139.014 50.7735 127.322 83.733 117.685 99.4741C111.036 110.201 104.813 115.874 99.6954 115.874C97.7209 115.874 95.9363 115.037 94.5201 113.459C90.2831 108.73 90.1219 98.3883 90.7322 90.5207C91.4518 82.582 92.914 74.6135 94.3301 66.9121C94.9461 63.542 95.5678 60.16 96.1378 56.7484C97.1452 50.9041 95.2685 47.4094 89.9032 45.0894C88.9188 44.6919 87.9977 44.4961 87.163 44.4961C84.8718 44.4961 82.8684 46.0388 80.8593 49.3614C76.6511 56.3152 72.5868 63.5835 68.2865 71.2731C60.7221 84.801 52.9562 98.6849 44.2866 110.902C41.3046 114.717 37.862 118.229 35.8011 117.351C33.2451 116.259 34.3792 107.3 35.3751 101.675C36.8431 94.1222 38.6622 86.6344 40.4526 79.283L41.1261 76.5063C41.7018 74.1329 42.4617 71.5401 43.2619 68.7989C45.0234 62.7825 46.9577 56.1432 47.3261 50.554C47.3261 50.5303 47.3261 50.5006 47.3261 50.4769C47.3089 46.7567 46.2266 43.0899 42.3293 42.0812C37.1597 40.7463 34.7073 46.0684 33.5732 50.5659C32.8076 53.5859 16.2166 115.251 20.799 128.553C22.9577 134.706 27.3099 138.379 32.4449 138.379C34.5691 138.379 36.7394 137.762 38.9097 136.545C44.039 133.727 50.2103 126.631 53.768 121.237C57.6135 115.358 61.4072 109.335 65.08 103.509C67.4863 99.6877 69.8927 95.8726 72.322 92.0812L74.6362 88.4678C75.0047 87.8863 75.8797 88.1711 75.8624 88.8653L75.7415 93.1966C75.2695 109.751 78.0615 121.724 83.8125 127.829C86.6909 130.885 90.2831 132.434 94.4798 132.434C105.326 132.434 119.28 121.872 129.199 106.173C140.327 88.3076 150.758 53.0401 147.937 31.0038V30.9919Z"
    fill="#27A0F7" />
  <rect x="139.659" y="146.25" width="40.4842" height="36.3198" rx="8.02361" fill="#27A0F7" />
  <path
    d="M161.424 167.849L159.234 166.983C159.317 166.101 159.549 165.307 159.931 164.601C160.329 163.895 160.844 163.293 161.474 162.796C162.121 162.299 162.876 161.914 163.739 161.641C164.602 161.368 165.548 161.232 166.576 161.232C167.638 161.232 168.592 161.368 169.438 161.641C170.301 161.898 171.031 162.275 171.629 162.772C172.226 163.253 172.682 163.847 172.997 164.553C173.313 165.242 173.47 166.012 173.47 166.863V175.76H169.787V167.32C169.787 166.823 169.712 166.365 169.563 165.948C169.43 165.515 169.214 165.138 168.916 164.817C168.634 164.496 168.269 164.248 167.821 164.071C167.389 163.879 166.875 163.783 166.278 163.783C165.431 163.783 164.685 163.967 164.038 164.336C163.391 164.705 162.926 165.162 162.644 165.708L163.565 166.045C164.162 166.269 164.569 166.526 164.784 166.815C165 167.103 165.108 167.536 165.108 168.114V175.76H161.424V167.849Z"
    fill="white" />
  <path
    d="M156.027 158.962C154.462 158.962 153.271 158.675 152.453 158.1C151.635 157.511 151.226 156.634 151.226 155.47C151.226 154.538 151.477 153.832 151.98 153.351C152.482 152.854 153.121 152.606 153.896 152.606C154.671 152.606 155.28 152.831 155.725 153.281C156.156 153.731 156.371 154.306 156.371 155.004C156.371 155.454 156.285 155.819 156.113 156.098C155.926 156.378 155.733 156.564 155.532 156.657V156.704H156.479C157.297 156.704 157.885 156.447 158.244 155.935C158.603 155.408 158.782 154.631 158.782 153.607V153.165H161.903V153.607C161.903 155.485 161.408 156.851 160.418 157.705C159.428 158.543 157.964 158.962 156.027 158.962ZM153.896 156.401C154.183 156.401 154.405 156.308 154.563 156.122C154.721 155.935 154.8 155.671 154.8 155.33C154.8 154.988 154.721 154.725 154.563 154.538C154.405 154.352 154.183 154.259 153.896 154.259C153.609 154.259 153.386 154.352 153.228 154.538C153.07 154.725 152.991 154.988 152.991 155.33C152.991 155.671 153.07 155.935 153.228 156.122C153.386 156.308 153.609 156.401 153.896 156.401Z"
    fill="white" />
  <path
    d="M153.543 175.76C153.059 175.76 152.608 175.684 152.191 175.534C151.79 175.399 151.44 175.207 151.14 174.955C150.839 174.687 150.605 174.369 150.439 174C150.272 173.615 150.188 173.188 150.188 172.718C150.188 171.83 150.472 171.127 151.039 170.607C151.607 170.071 152.333 169.769 153.218 169.702V169.577C153.218 169.308 153.142 169.107 152.992 168.973C152.859 168.839 152.592 168.755 152.191 168.722L146.333 168.244V166.761C146.333 165.907 146.474 165.144 146.758 164.474C147.059 163.787 147.468 163.209 147.985 162.74C148.519 162.254 149.153 161.885 149.888 161.634C150.622 161.366 151.432 161.232 152.316 161.232C153.635 161.232 154.72 161.416 155.571 161.785C156.422 162.137 157.198 162.673 157.899 163.393L156.222 165.806C155.788 165.22 155.237 164.759 154.57 164.424C153.919 164.072 153.243 163.896 152.542 163.896C151.674 163.896 151.014 164.089 150.564 164.474C150.113 164.843 149.863 165.346 149.813 165.982L152.842 166.209C153.46 166.259 154.019 166.334 154.519 166.435C155.02 166.535 155.446 166.711 155.796 166.963C156.147 167.214 156.414 167.557 156.598 167.993C156.798 168.429 156.898 168.998 156.898 169.702V172.718C156.898 173.188 156.806 173.615 156.623 174C156.456 174.369 156.222 174.687 155.922 174.955C155.621 175.207 155.262 175.399 154.845 175.534C154.444 175.684 154.01 175.76 153.543 175.76ZM153.393 171.462C153.042 171.462 152.75 171.579 152.517 171.814C152.3 172.031 152.191 172.333 152.191 172.718C152.191 173.104 152.3 173.414 152.517 173.648C152.75 173.866 153.042 173.975 153.393 173.975C153.743 173.975 154.027 173.866 154.244 173.648C154.478 173.414 154.595 173.104 154.595 172.718C154.595 172.333 154.478 172.031 154.244 171.814C154.027 171.579 153.743 171.462 153.393 171.462Z"
    fill="white" />
  <path
    d="M238.069 178.033C237.327 178.033 236.642 177.939 236.014 177.75C235.386 177.58 234.854 177.326 234.416 176.986C233.979 176.647 233.636 176.242 233.389 175.77C233.142 175.299 233.018 174.762 233.018 174.158V173.706C231.972 173.668 231.106 173.347 230.422 172.744C229.756 172.141 229.423 171.33 229.423 170.312C229.423 169.275 229.784 168.455 230.507 167.851C231.23 167.229 232.134 166.918 233.218 166.918C234.359 166.918 235.272 167.239 235.957 167.88C236.661 168.502 237.013 169.369 237.013 170.482V174.045C237.013 174.384 237.098 174.639 237.27 174.809C237.46 174.96 237.688 175.035 237.954 175.035C238.221 175.035 238.439 174.96 238.611 174.809C238.801 174.639 238.896 174.384 238.896 174.045V168.191C238.896 167.116 238.544 166.296 237.84 165.73C237.155 165.165 236.214 164.882 235.015 164.882C233.95 164.882 233.037 165.08 232.276 165.476C231.534 165.872 230.916 166.39 230.422 167.031L227.825 164.74C228.605 163.816 229.604 163.081 230.821 162.534C232.038 161.969 233.598 161.686 235.5 161.686C238.049 161.686 239.952 162.233 241.207 163.326C242.482 164.401 243.119 165.862 243.119 167.71V174.158C243.119 174.762 242.995 175.299 242.748 175.77C242.501 176.242 242.158 176.647 241.721 176.986C241.283 177.326 240.751 177.58 240.123 177.75C239.495 177.939 238.81 178.033 238.069 178.033ZM233.104 171.698C233.484 171.698 233.798 171.575 234.045 171.33C234.312 171.085 234.445 170.746 234.445 170.312C234.445 169.878 234.312 169.539 234.045 169.294C233.798 169.049 233.484 168.926 233.104 168.926C232.723 168.926 232.4 169.049 232.134 169.294C231.886 169.539 231.763 169.878 231.763 170.312C231.763 170.746 231.886 171.085 232.134 171.33C232.4 171.575 232.723 171.698 233.104 171.698Z"
    fill="#27A0F7" />
  <path
    d="M223.553 177.972C222.488 177.972 221.6 177.661 220.89 177.039C220.199 176.398 219.854 175.521 219.854 174.409L219.854 162.584C219.854 162.188 219.854 161.839 219.854 161.537C219.872 161.236 219.919 160.962 219.994 160.717C220.068 160.453 220.171 160.217 220.302 160.01C220.451 159.784 220.666 159.567 220.947 159.36L221.983 158.568C222.562 158.134 222.964 157.738 223.188 157.38C223.412 157.003 223.525 156.56 223.525 156.051C223.525 155.447 223.3 154.966 222.852 154.608C222.404 154.25 221.815 154.071 221.087 154.071C220.339 154.071 219.742 154.306 219.293 154.778C218.845 155.249 218.49 155.909 218.228 156.758L215.23 155.061C215.417 154.514 215.669 153.986 215.987 153.477C216.304 152.949 216.706 152.487 217.192 152.091C217.696 151.695 218.284 151.384 218.957 151.158C219.648 150.913 220.442 150.79 221.339 150.79C222.198 150.79 223.001 150.894 223.749 151.101C224.515 151.309 225.169 151.62 225.71 152.034C226.252 152.43 226.682 152.921 226.999 153.505C227.317 154.071 227.476 154.721 227.476 155.457C227.476 156.399 227.27 157.22 226.859 157.917C226.448 158.596 225.832 159.265 225.01 159.925L224.001 160.745L224.001 171.213C224.954 171.307 225.729 171.656 226.327 172.259C226.943 172.844 227.252 173.617 227.252 174.578C227.252 175.634 226.897 176.464 226.187 177.067C225.495 177.67 224.617 177.972 223.553 177.972ZM223.665 175.964C224.038 175.964 224.347 175.842 224.589 175.596C224.832 175.351 224.954 175.012 224.954 174.578C224.954 174.145 224.832 173.805 224.589 173.56C224.347 173.315 224.038 173.192 223.665 173.192C223.291 173.192 222.983 173.315 222.74 173.56C222.497 173.805 222.376 174.145 222.376 174.578C222.376 175.012 222.497 175.351 222.74 175.596C222.983 175.842 223.291 175.964 223.665 175.964Z"
    fill="#27A0F7" />
  <path
    d="M212.438 178.03V167.346C212.438 166.614 212.242 166.036 211.85 165.613C211.477 165.17 210.87 164.949 210.031 164.949C209.229 164.949 208.585 165.132 208.1 165.497C207.615 165.863 207.214 166.287 206.897 166.768L204.434 164.573C205.031 163.669 205.777 162.966 206.673 162.465C207.587 161.946 208.809 161.686 210.339 161.686C212.391 161.686 213.939 162.157 214.984 163.101C216.048 164.044 216.579 165.42 216.579 167.23V178.03H212.438Z"
    fill="#27A0F7" />
  <path
    d="M186.993 174.998V168.587C186.04 168.491 185.255 168.144 184.639 167.548C184.041 166.951 183.742 166.152 183.742 165.151C183.742 164.073 184.088 163.226 184.779 162.61C185.489 161.994 186.376 161.686 187.441 161.686C188.506 161.686 189.384 162.013 190.075 162.668C190.785 163.303 191.14 164.188 191.14 165.324V174.998H194.923C195.726 174.998 196.352 174.796 196.801 174.391C197.249 173.968 197.473 173.39 197.473 172.659V171.475H195.287C193.998 171.475 193.018 171.225 192.345 170.724C191.691 170.224 191.364 169.492 191.364 168.529C191.364 167.625 191.626 166.912 192.149 166.393C192.691 165.854 193.41 165.584 194.307 165.584C195.203 165.584 195.913 165.854 196.436 166.393C196.978 166.912 197.249 167.625 197.249 168.529C197.249 168.876 197.193 169.194 197.081 169.482C197.155 169.425 197.286 169.357 197.473 169.28V161.686H201.62V168.963H203.501V171.475H201.62V172.543C201.62 174.295 201.069 175.652 199.967 176.615C198.884 177.558 197.352 178.03 195.371 178.03H184.807V174.998H186.993ZM187.329 166.566C187.703 166.566 188.011 166.441 188.254 166.19C188.497 165.94 188.618 165.594 188.618 165.151C188.618 164.708 188.497 164.362 188.254 164.111C188.011 163.861 187.703 163.736 187.329 163.736C186.955 163.736 186.647 163.861 186.404 164.111C186.161 164.362 186.04 164.708 186.04 165.151C186.04 165.594 186.161 165.94 186.404 166.19C186.647 166.441 186.955 166.566 187.329 166.566ZM194.307 169.742C194.643 169.742 194.904 169.636 195.091 169.425C195.297 169.213 195.399 168.914 195.399 168.529C195.399 168.144 195.297 167.846 195.091 167.634C194.904 167.423 194.643 167.317 194.307 167.317C193.97 167.317 193.699 167.423 193.494 167.634C193.307 167.846 193.214 168.144 193.214 168.529C193.214 168.914 193.307 169.213 193.494 169.425C193.699 169.636 193.97 169.742 194.307 169.742Z"
    fill="#27A0F7" />
  <path
    d="M132.311 178.03C131.402 178.03 130.625 177.822 129.981 177.408C129.356 176.974 128.93 176.38 128.703 175.626L124.498 178.03H120.464V168.444C119.498 168.35 118.702 168.01 118.077 167.426C117.471 166.842 117.168 166.059 117.168 165.079C117.168 164.023 117.519 163.194 118.219 162.591C118.939 161.987 119.839 161.686 120.918 161.686C121.998 161.686 122.888 162.006 123.589 162.647C124.309 163.269 124.668 164.136 124.668 165.249V174.439H124.839L129.413 172.205V161.686H133.618V169.914C133.618 170.103 133.599 170.301 133.561 170.508C133.542 170.715 133.466 170.923 133.333 171.13C134.148 171.319 134.801 171.715 135.294 172.318C135.805 172.902 136.061 173.637 136.061 174.523C136.061 175.598 135.71 176.456 135.01 177.097C134.309 177.719 133.409 178.03 132.311 178.03ZM132.311 176.022C132.765 176.022 133.116 175.9 133.362 175.654C133.608 175.409 133.731 175.108 133.731 174.75V174.297C133.731 173.939 133.608 173.637 133.362 173.392C133.116 173.147 132.765 173.025 132.311 173.025C131.856 173.025 131.506 173.147 131.26 173.392C131.013 173.637 130.89 173.939 130.89 174.297V174.75C130.89 175.108 131.013 175.409 131.26 175.654C131.506 175.9 131.856 176.022 132.311 176.022ZM120.805 166.465C121.183 166.465 121.496 166.342 121.742 166.097C121.988 165.852 122.112 165.513 122.112 165.079C122.112 164.645 121.988 164.306 121.742 164.061C121.496 163.816 121.183 163.693 120.805 163.693C120.426 163.693 120.113 163.816 119.867 164.061C119.621 164.306 119.498 164.645 119.498 165.079C119.498 165.513 119.621 165.852 119.867 166.097C120.113 166.342 120.426 166.465 120.805 166.465Z"
    fill="#27A0F7" />
  <path
    d="M107.549 178.03C105.308 178.03 103.59 177.615 102.394 176.786C101.216 175.956 100.628 174.684 100.628 172.968V170.904C100.628 169.698 100.979 168.727 101.682 167.991C102.384 167.237 103.333 166.86 104.53 166.86C105.593 166.86 106.466 167.162 107.15 167.765C107.852 168.369 108.204 169.198 108.204 170.254C108.204 171.253 107.89 172.054 107.264 172.657C106.637 173.242 105.84 173.571 104.871 173.647C105.023 174.439 105.621 174.834 106.666 174.834H108.431C109.039 174.834 109.495 174.693 109.799 174.41C110.102 174.128 110.254 173.741 110.254 173.251V168.387C110.254 167.294 109.903 166.436 109.2 165.814C108.498 165.192 107.539 164.881 106.324 164.881C105.678 164.881 105.109 164.947 104.615 165.079C104.14 165.211 103.713 165.39 103.333 165.616C102.973 165.824 102.659 166.059 102.394 166.323C102.128 166.587 101.89 166.851 101.682 167.115L99.1753 164.825C99.4791 164.41 99.8588 164.014 100.315 163.637C100.77 163.241 101.311 162.902 101.938 162.619C102.564 162.336 103.286 162.11 104.102 161.94C104.919 161.771 105.84 161.686 106.865 161.686C109.352 161.686 111.242 162.261 112.533 163.411C113.824 164.561 114.469 166.182 114.469 168.274V172.968C114.469 174.684 113.871 175.956 112.675 176.786C111.498 177.615 109.789 178.03 107.549 178.03ZM104.587 171.639C104.966 171.639 105.28 171.517 105.526 171.272C105.792 171.027 105.925 170.687 105.925 170.254C105.925 169.82 105.792 169.481 105.526 169.236C105.28 168.991 104.966 168.868 104.587 168.868C104.207 168.868 103.884 168.991 103.618 169.236C103.371 169.481 103.248 169.82 103.248 170.254C103.248 170.687 103.371 171.027 103.618 171.272C103.884 171.517 104.207 171.639 104.587 171.639Z"
    fill="#27A0F7" />
  <path d="M95.0994 150.714H92.2243L91.8096 146.25H95.5141L95.0994 150.714Z" fill="#27A0F7" />
  <path
    d="M80.782 158.604C80.782 157.693 80.9294 156.874 81.2243 156.149C81.5192 155.405 81.9247 154.772 82.4407 154.251C82.9384 153.73 83.5282 153.33 84.2101 153.051C84.892 152.754 85.62 152.605 86.3941 152.605C86.9102 152.605 87.417 152.661 87.9146 152.772V151.433H91.011V154.307C91.1953 154.456 91.3612 154.614 91.5086 154.781C91.6561 154.93 91.8035 155.098 91.951 155.284H92.0615V151.433H95.3791V159.72H80.782V158.604ZM87.7488 155.228C86.7535 155.228 85.8965 155.451 85.1777 155.898C84.4589 156.325 84.035 156.893 83.906 157.6H92.0892C91.9417 156.893 91.4902 156.325 90.7345 155.898C89.9605 155.451 88.9652 155.228 87.7488 155.228Z"
    fill="#27A0F7" />
  <path
    d="M79.8881 168.587C78.949 168.491 78.1756 168.145 77.5679 167.548C76.9787 166.951 76.6841 166.152 76.6841 165.151C76.6841 164.073 77.0247 163.226 77.7061 162.61C78.4058 161.994 79.2804 161.686 80.33 161.686C81.3796 161.686 82.2451 162.013 82.9264 162.668C83.6261 163.303 83.976 164.189 83.976 165.324V170.147L83.8379 174.536H83.976L86.6552 162.495H88.8096L91.4888 174.536H91.6269L91.4888 170.147V162.033H95.5767V176.124C95.5767 176.682 95.4386 177.144 95.1624 177.51C94.8862 177.857 94.4535 178.03 93.8642 178.03H90.3564L87.7876 166.451H87.6772L85.1084 178.03H79.8881V168.587ZM80.2195 166.566C80.5878 166.566 80.8916 166.441 81.131 166.191C81.3704 165.94 81.4901 165.594 81.4901 165.151C81.4901 164.708 81.3704 164.362 81.131 164.112C80.8916 163.861 80.5878 163.736 80.2195 163.736C79.8513 163.736 79.5474 163.861 79.3081 164.112C79.0687 164.362 78.949 164.708 78.949 165.151C78.949 165.594 79.0687 165.94 79.3081 166.191C79.5474 166.441 79.8513 166.566 80.2195 166.566Z"
    fill="#27A0F7" />
  <path
    d="M71.3368 178.14C70.2862 178.14 69.4108 177.833 68.7104 177.22C68.0285 176.587 67.6875 175.722 67.6875 174.625V162.348H71.7791V171.472C72.7191 171.565 73.4839 171.909 74.0737 172.504C74.6819 173.081 74.986 173.843 74.986 174.792C74.986 175.834 74.6359 176.652 73.9355 177.247C73.2536 177.843 72.3873 178.14 71.3368 178.14ZM71.4474 176.159C71.816 176.159 72.1201 176.038 72.3597 175.797C72.5993 175.555 72.7191 175.22 72.7191 174.792C72.7191 174.364 72.5993 174.029 72.3597 173.788C72.1201 173.546 71.816 173.425 71.4474 173.425C71.0787 173.425 70.7746 173.546 70.535 173.788C70.2954 174.029 70.1756 174.364 70.1756 174.792C70.1756 175.22 70.2954 175.555 70.535 175.797C70.7746 176.038 71.0787 176.159 71.4474 176.159Z"
    fill="#27A0F7" />
</svg>