<svg width="128" height="128" viewBox="0 0 211 211" fill="none" xmlns="http://www.w3.org/2000/svg">
    <circle cx="105.25" cy="105.25" r="105.25" fill="#27A0F7" />
    <path
        d="M144.294 134.802C142.868 134.802 141.643 134.414 140.652 133.652C130.947 126.034 139.665 101.912 151.063 81.8834L151.135 81.759C152.267 79.7874 154.281 78.4077 156.031 78.4077C157.227 78.4077 158.211 79.0448 158.964 80.3001C159.767 81.661 159.486 82.8032 158.643 84.5674C157.732 86.4032 156.604 88.4954 155.408 90.712C150.437 99.9251 144.251 111.392 144.993 120.3C145.397 124.47 147.771 125.088 149.15 125.088C153.949 125.088 161.183 117.703 162.858 115.728C163.049 115.498 163.316 115.385 163.644 115.385C164.202 115.385 164.933 115.739 165.322 116.534C165.859 117.631 165.531 119.135 164.4 120.779C159.85 127.414 150.473 134.802 144.291 134.802H144.294Z"
        fill="white" />
    <path
        d="M166.001 134.802C164.548 134.802 163.3 134.414 162.291 133.652C152.406 126.034 161.286 101.912 172.895 81.8834L172.969 81.759C174.121 79.7874 176.172 78.4077 177.955 78.4077C179.173 78.4077 180.175 79.0448 180.942 80.3001C181.76 81.661 181.474 82.8032 180.615 84.5674C179.687 86.4032 178.538 88.4954 177.32 90.712C172.257 99.9251 165.957 111.392 166.712 120.3C167.123 124.47 169.541 125.088 170.947 125.088C175.834 125.088 183.202 117.703 184.908 115.728C185.103 115.498 185.374 115.385 185.708 115.385C186.277 115.385 187.022 115.739 187.418 116.534C187.965 117.631 187.631 119.135 186.479 120.779C181.844 127.414 172.293 134.802 165.997 134.802H166.001Z"
        fill="white" />
    <path
        d="M142.655 112.543C142.655 112.543 142.647 112.539 142.647 112.535C141.637 111.835 140.949 111.563 140.353 111.631C140.008 111.669 139.651 111.82 139.237 112.11C138.786 112.411 138.339 112.98 137.902 113.526C137.724 113.752 137.542 113.978 137.382 114.167C132.281 120.47 125.78 127.047 116.228 128.08L115.897 128.114C115.239 128.185 114.603 128.178 113.981 128.099C110.316 127.496 108.418 125.228 107.221 122.911L108.916 122.576C113.464 121.675 117.853 119.946 121.598 117.58C128.805 112.954 129.838 106.658 128.405 102.314C127.049 98.2079 123.009 94.3539 117.031 94.9981C114.293 95.2919 111.512 96.5164 108.759 98.6336C102.611 103.301 98.5821 111.676 98.7384 119.475C98.8184 123.472 100.051 129.029 105.458 132.793C109.134 135.306 113.377 136.323 118.075 135.814C128.569 134.68 139.022 126.151 143.942 118.292C145.116 116.506 144.545 114.065 142.655 112.543ZM112.934 104.903C114.283 103.904 115.65 103.305 116.89 103.173C118.722 102.977 120.206 103.787 120.773 105.294C121.347 106.832 120.929 109.261 118.05 111.469C116.253 112.916 114.461 113.771 112.864 113.941C111.043 114.137 109.592 113.379 109.076 111.966C108.316 109.887 109.759 107.246 112.934 104.903Z"
        fill="white" />
    <path
        d="M100.604 72.1734C100.184 68.9329 97.7038 65.3057 95.0152 65.3057C94.246 65.3057 93.4768 65.6085 92.7571 66.1888C91.3634 67.3711 91.0987 68.8344 91.7762 71.5676C95.1351 84.3398 87.9691 104.611 82.0627 114.292C77.9875 120.89 74.1733 124.379 71.0366 124.379C69.8264 124.379 68.7326 123.864 67.8647 122.893C65.2678 119.985 65.169 113.624 65.543 108.786C65.9841 103.903 66.8803 99.0021 67.7482 94.2655C68.1258 92.1928 68.5068 90.1128 68.8561 88.0145C69.4736 84.42 68.3233 82.2707 65.0349 80.8439C64.4316 80.5994 63.8671 80.4789 63.3555 80.4789C61.9512 80.4789 60.7233 81.4277 59.4919 83.4713C56.9127 87.7481 54.4217 92.2183 51.7861 96.9477C47.1498 105.268 42.3901 113.807 37.0764 121.32C35.2488 123.667 33.1388 125.827 31.8757 125.287C30.3091 124.616 31.0042 119.105 31.6146 115.646C32.5143 111.001 33.6293 106.395 34.7266 101.874L35.1394 100.166C35.4922 98.7066 35.958 97.1119 36.4484 95.426C37.5281 91.7257 38.7136 87.6423 38.9394 84.2047C38.9394 84.1901 38.9394 84.1719 38.9394 84.1573C38.9288 81.8693 38.2655 79.6141 35.8768 78.9937C32.7084 78.1727 31.2053 81.446 30.5102 84.212C30.0409 86.0695 19.8723 123.995 22.6808 132.177C24.004 135.961 26.6714 138.22 29.8187 138.22C31.1206 138.22 32.4508 137.84 33.781 137.092C36.9247 135.359 40.7071 130.994 42.8876 127.677C45.2445 124.061 47.5697 120.357 49.8208 116.774C51.2956 114.424 52.7705 112.077 54.2594 109.745L55.6778 107.523C55.9036 107.165 56.4399 107.341 56.4293 107.767L56.3552 110.431C56.0659 120.613 57.7772 127.977 61.302 131.732C63.0661 133.611 65.2678 134.563 67.84 134.563C74.4873 134.563 83.04 128.068 89.1193 118.412C95.9396 107.424 102.333 85.7337 100.604 72.1807V72.1734Z"
        fill="white" />
</svg>